<?xml version="1.0" encoding="UTF-8"?>
<!DOCTYPE svg PUBLIC "-//W3C//DTD SVG 1.1//EN" "http://www.w3.org/Graphics/SVG/1.1/DTD/svg11.dtd">
<!-- Creator: CorelDRAW X7 -->
<svg xmlns="http://www.w3.org/2000/svg" xml:space="preserve" width="3839px" height="856px" version="1.1" style="shape-rendering:geometricPrecision; text-rendering:geometricPrecision; image-rendering:optimizeQuality; fill-rule:evenodd; clip-rule:evenodd"
viewBox="0 0 3839 857"
 xmlns:xlink="http://www.w3.org/1999/xlink">
 <defs>
  <style type="text/css">
   <![CDATA[
    .fil1 {fill:#EE7421}
    .fil0 {fill:#23396B}
   ]]>
  </style>
 </defs>
 <g id="Warstwa_x0020_1">
  <metadata id="CorelCorpID_0Corel-Layer"/>
  <g id="_823472736">
   <path class="fil0" d="M125 125c-80,83 -125,189 -125,304 0,114 45,222 125,303 83,82 189,125 304,125 236,0 428,-192 428,-428l-62 0c0,202 -164,366 -366,366 -98,0 -189,-39 -258,-107 -70,-69 -107,-161 -107,-259 0,-97 37,-189 107,-258 69,-68 160,-107 258,-107l0 -64c-115,0 -221,45 -304,125z"/>
   <path class="fil0" d="M225 225c-113,112 -113,297 0,409l45 -45c-87,-88 -87,-231 0,-319 89,-88 231,-88 319,0 43,42 66,99 66,159 0,61 -23,118 -66,160l46 45c54,-54 83,-128 83,-205 0,-76 -29,-150 -83,-204 -114,-112 -297,-112 -410,0z"/>
   <path class="fil1" d="M430 347c45,0 82,37 82,82 0,46 -37,83 -82,83 -23,0 -43,-9 -58,-24 -17,-16 -26,-36 -26,-59l-63 0c0,39 15,76 43,104 28,28 64,43 104,43 80,0 146,-66 146,-147 0,-81 -66,-146 -146,-146l0 64z"/>
   <path class="fil0" d="M3530 136c8,-1 16,-2 24,-3 8,0 16,0 23,0 8,0 16,0 24,0 8,1 16,2 24,3l0 185c3,-4 7,-9 12,-14 6,-6 12,-11 20,-16 7,-6 16,-10 27,-14 11,-3 23,-5 37,-5 39,0 68,11 88,32 20,22 30,56 30,102l0 223c-8,1 -16,2 -24,2 -8,1 -16,1 -24,1 -7,0 -15,0 -23,-1 -8,0 -16,-1 -25,-2l0 -197c0,-25 -3,-43 -11,-56 -8,-13 -21,-20 -39,-20 -8,0 -16,1 -24,4 -8,2 -15,6 -21,13 -7,6 -12,15 -17,27 -4,12 -6,27 -6,46l0 183c-8,1 -16,2 -24,2 -8,1 -16,1 -24,1 -7,0 -15,0 -23,-1 -8,0 -16,-1 -24,-2l0 -493zm-85 410c6,9 10,19 14,31 3,12 5,26 5,42 -18,7 -35,12 -50,14 -16,2 -32,3 -49,3 -30,0 -55,-4 -77,-14 -21,-9 -39,-22 -53,-38 -14,-16 -25,-35 -32,-57 -7,-22 -11,-47 -11,-73 0,-25 4,-49 11,-71 7,-22 17,-41 31,-58 14,-16 32,-29 53,-39 21,-9 46,-14 73,-14 10,0 19,0 28,1 8,0 16,1 24,2 7,2 15,4 23,6 7,2 16,5 25,9 0,10 -1,21 -4,34 -3,13 -7,25 -13,37 -13,-5 -25,-8 -35,-9 -10,-2 -22,-3 -35,-3 -28,0 -49,9 -63,28 -14,18 -21,44 -21,77 0,37 8,63 23,80 15,16 36,25 62,25 7,0 13,0 18,-1 6,0 12,0 17,-1 5,-1 11,-3 16,-4 6,-2 13,-4 20,-7l0 0zm-399 -129c-1,-22 -7,-39 -18,-52 -11,-14 -26,-20 -46,-20 -22,0 -39,6 -51,19 -12,12 -19,30 -21,53l136 0 0 0zm-136 66c1,27 11,47 28,59 17,12 39,18 67,18 15,0 31,-1 47,-4 16,-3 31,-7 45,-13 5,9 10,20 13,33 4,12 6,26 6,40 -35,13 -74,20 -118,20 -33,0 -60,-4 -83,-13 -23,-9 -42,-22 -57,-38 -14,-16 -25,-35 -32,-57 -7,-22 -11,-46 -11,-72 0,-25 4,-49 11,-72 7,-22 18,-42 32,-58 14,-17 32,-30 53,-40 20,-9 45,-14 73,-14 24,0 45,4 64,13 19,8 35,20 48,35 14,15 24,32 30,53 7,20 10,42 10,65 0,9 0,17 -1,25 0,9 -1,15 -2,20l-223 0 0 0zm-325 -130l-44 0 -3 -14 126 -161 15 0 0 102 82 0c1,7 2,13 3,18 0,6 0,11 0,17 0,6 0,12 0,18 -1,6 -2,13 -3,20l-82 0 0 136c0,14 2,26 4,34 2,9 5,15 10,20 4,5 9,9 15,10 7,2 14,3 23,3 6,0 13,-1 19,-2 7,-1 13,-2 18,-3 3,9 5,18 6,27 2,9 2,17 2,24 0,5 0,10 0,13 0,3 -1,7 -1,10 -21,5 -42,7 -64,7 -41,0 -72,-9 -94,-29 -21,-19 -32,-50 -32,-93l0 -157zm-187 46c0,-11 -2,-19 -5,-26 -4,-7 -9,-12 -15,-16 -6,-4 -14,-6 -23,-8 -10,-1 -20,-2 -31,-2 -24,0 -50,5 -77,15 -7,-12 -11,-23 -14,-33 -4,-11 -5,-23 -5,-37 20,-7 39,-12 59,-15 20,-3 38,-5 55,-5 47,0 83,11 110,34 26,22 39,58 39,107l0 202c-16,5 -35,10 -57,14 -23,5 -48,7 -76,7 -23,0 -44,-2 -63,-6 -19,-4 -36,-11 -49,-20 -14,-10 -25,-22 -32,-36 -7,-15 -11,-33 -11,-55 0,-22 5,-40 14,-54 9,-15 21,-26 35,-35 15,-9 31,-15 49,-19 18,-4 36,-6 54,-6 13,0 27,1 43,2l0 -8zm0 70c-5,-1 -11,-2 -17,-3 -7,0 -12,-1 -17,-1 -22,0 -40,4 -52,12 -13,8 -20,20 -20,38 0,12 3,21 8,27 5,6 11,11 18,14 7,3 14,4 22,5 8,1 15,1 20,1 7,0 14,0 21,-2 6,-1 12,-2 17,-3l0 -88zm-583 -188c10,-2 20,-4 30,-4 9,-1 17,-1 23,-1 9,0 18,0 27,1 9,0 18,1 25,3l76 259 75 -259c8,-1 16,-2 24,-3 9,-1 17,-1 26,-1 7,0 14,0 23,1 9,0 19,2 30,4l-132 347c-8,1 -17,2 -27,3 -9,0 -17,0 -23,0 -7,0 -15,0 -23,0 -9,-1 -17,-2 -25,-4l-129 -346 0 0zm-144 71c-9,-2 -16,-4 -22,-4 -5,-1 -12,-1 -21,-1 -15,0 -28,3 -39,9 -11,6 -20,14 -27,24 -7,10 -12,22 -16,36 -3,13 -5,28 -5,42 0,19 3,34 7,47 5,13 11,23 19,31 7,7 17,13 27,16 11,4 23,5 35,5 8,0 15,0 21,-1 7,0 14,-2 21,-4l0 -200zm0 -216c8,-1 16,-2 24,-3 8,0 16,0 23,0 8,0 16,0 24,0 8,1 16,2 24,3l0 481c-21,6 -42,11 -64,14 -22,3 -48,5 -79,5 -24,0 -47,-3 -69,-10 -21,-6 -40,-16 -57,-31 -17,-14 -30,-32 -39,-54 -10,-23 -15,-50 -15,-83 0,-25 4,-49 13,-72 8,-23 20,-42 35,-59 16,-16 34,-30 56,-39 22,-10 47,-15 74,-15 8,0 16,1 25,1 9,1 17,2 25,5l0 -143zm-386 263c0,-11 -2,-19 -5,-26 -4,-7 -9,-12 -15,-16 -7,-4 -14,-6 -24,-8 -9,-1 -19,-2 -30,-2 -24,0 -50,5 -78,15 -6,-12 -11,-23 -14,-33 -3,-11 -4,-23 -4,-37 19,-7 39,-12 59,-15 20,-3 38,-5 55,-5 47,0 83,11 109,34 27,22 40,58 40,107l0 202c-16,5 -35,10 -57,14 -23,5 -48,7 -76,7 -23,0 -44,-2 -63,-6 -19,-4 -36,-11 -50,-20 -13,-10 -24,-22 -31,-36 -8,-15 -11,-33 -11,-55 0,-22 4,-40 14,-54 9,-15 21,-26 35,-35 15,-9 31,-15 49,-19 18,-4 36,-6 54,-6 13,0 27,1 43,2l0 -8zm0 70c-5,-1 -11,-2 -18,-3 -6,0 -11,-1 -16,-1 -22,0 -40,4 -53,12 -12,8 -19,20 -19,38 0,12 3,21 8,27 5,6 11,11 17,14 7,3 15,4 23,5 8,1 14,1 20,1 7,0 14,0 20,-2 7,-1 13,-2 18,-3l0 -88z"/>
  </g>
 </g>
</svg>
