<svg width="1024" height="1024" viewBox="0 0 1024 1024" fill="none" xmlns="http://www.w3.org/2000/svg">
<g clip-path="url(#clip0_6_1368)">
<mask id="mask0_6_1368" style="mask-type:luminance" maskUnits="userSpaceOnUse" x="0" y="0" width="1024" height="1024">
<path d="M1024 0H0V1024H1024V0Z" fill="white"/>
</mask>
<g mask="url(#mask0_6_1368)">
<path d="M502.28 174.7C505.462 174.24 508.972 174.324 512.188 174.332C542.279 174.409 570.466 186.37 591.605 207.78C610.339 226.753 621.501 251.863 623.572 278.421C624.526 290.646 623.896 303.213 623.818 315.477C628.378 316.69 632.475 318.718 636.308 321.459C644.902 327.605 650.764 336.311 652.439 346.815C654.038 356.835 651.479 367.38 645.431 375.53C639.478 383.553 631.422 387.777 621.663 389.19C621.142 392.783 620.605 396.37 619.802 399.914C612.308 432.988 588.943 461.434 560.563 479.315C560.798 486.135 560.818 492.97 560.903 499.794C596.621 500.845 622.655 495.823 656.584 513.539C667.647 519.315 677.743 526.462 686.593 535.266C706.953 555.52 720.957 582.175 724.015 610.886C725.539 625.196 724.983 639.943 725.041 654.319C711.928 654.461 698.793 653.872 685.684 654.331C685.46 658.065 684.963 661.776 684.512 665.488L763.185 665.545C771.964 665.533 791.211 664.52 798.382 665.912C800.369 666.297 802.427 667.335 803.544 669.082C804.657 670.821 804.67 672.687 804.202 674.633C803.377 678.065 801.546 679.642 798.615 681.396C793.576 681.768 788.45 681.603 783.397 681.616C782.629 725.669 783.08 769.831 783.051 813.893L879.883 813.938L905.379 813.949C910.67 813.944 916.356 813.546 921.586 814.331C925.837 814.969 929.894 816.58 933.072 819.538C936.387 822.623 938.053 826.672 938.193 831.173C938.361 836.597 936.635 841.66 932.751 845.514C929.517 848.723 925.864 850.213 921.376 850.606C908.053 851.771 890.439 850.807 876.695 850.783L789.544 850.741L519.875 850.691L236.337 850.801L146.414 850.83H118.248C113.488 850.829 108.48 851.138 103.744 850.716C99.6661 850.353 95.7601 848.765 92.6921 846.039C89.0861 842.834 86.7581 838.297 86.5351 833.453C86.3131 828.642 88.1301 824.046 91.4661 820.595C94.4131 817.546 97.4071 816.136 101.585 815.578C106.59 814.909 112.018 815.269 117.077 815.271L143.168 815.259L241.095 815.456C241.088 770.855 242.197 726.057 240.838 681.473C234.617 681.128 224.752 683.188 219.7 679.141C217.973 677.757 216.885 675.804 216.758 673.585C216.633 671.412 217.5 669.196 219.051 667.669C220.375 666.366 221.971 665.706 223.81 665.546C234.857 664.586 248.822 665.448 260.123 665.465L338.65 665.65C338.483 661.944 338.01 658.398 337.388 654.743C324.737 654.315 311.966 654.686 299.303 654.719C299.284 640.797 298.782 626.675 299.922 612.788C302.317 583.638 313.896 556.563 334.388 535.517C342.671 527.009 352.149 519.826 362.499 514.013C395.738 495.345 426.025 500.142 462.293 499.705L462.472 477.996C459.538 476.116 456.697 474.145 453.907 472.057C426.465 451.518 408.688 424.144 403.808 389.929C398.894 388.924 394.145 387.677 389.686 385.317C381.592 381.034 375.336 373.703 372.758 364.877C369.809 354.783 371.241 342.178 376.289 332.966C381.862 322.798 391.071 318.382 401.759 315.242C401.794 314.572 401.802 313.902 401.838 313.233C402.066 309.035 400.017 305.207 399.605 300.976C396.738 271.52 406.166 239.122 425.022 216.313C444.512 192.737 471.712 177.575 502.28 174.7Z" fill="#7B7B7B"/>
<path d="M622.922 332.085C624.562 332.774 626.177 333.661 627.617 334.707C632.431 338.205 635.478 343.402 636.388 349.265C637.441 356.058 635.298 361.885 631.415 367.333C628.86 369.96 626.118 371.502 622.829 372.991C622.763 359.357 623.04 345.725 622.922 332.085Z" fill="white"/>
<path d="M400.529 332.362C401.017 332.38 401.43 332.59 401.884 332.759C403.265 337.18 402.479 366.636 402.51 373.731C399.462 372.474 396.8 371.049 394.131 369.117C392.222 367.235 390.556 365.325 389.308 362.932C386.581 357.7 386.231 351.579 388.108 346.004C390.27 339.586 394.644 335.372 400.529 332.362Z" fill="white"/>
<path d="M482.95 258.943C483.436 258.913 483.921 258.878 484.408 258.871C486.572 258.837 488.322 259.189 489.835 260.847C493.096 264.42 491.565 281.497 491.548 286.764L607.989 286.897L608.005 297.437L540.75 297.455L415.513 297.488L415.518 286.878L478.447 286.826C478.841 280.109 478.042 273.169 478.809 266.524C479.233 262.846 480.062 261.22 482.95 258.943Z" fill="white"/>
<path d="M478.057 488.153C503.655 499.232 518.979 498.848 544.654 488.992C544.84 503.196 547.026 515.572 538.7 527.974C538.051 528.774 537.386 529.556 536.687 530.315C530.297 537.263 521.572 541.134 512.144 541.354C503.055 541.565 494.209 538.489 487.689 532.065C475.656 520.211 478.063 503.601 478.057 488.153Z" fill="white"/>
<path d="M682.842 681.57L766.943 681.527C766.491 725.476 767.019 769.482 767.019 813.436L744.25 813.463C716.202 813.404 687.845 814.299 659.842 813.124C663.22 809.211 666.253 804.994 667.714 799.97C670.381 790.8 671.105 774.527 672.339 764.374C675.692 736.783 678.865 709.074 682.842 681.57Z" fill="white"/>
<path d="M256.439 681.407C284.843 680.683 313.447 681.396 341.875 681.458C345.582 709.157 348.788 736.954 352.001 764.716C353.149 774.627 354.612 797.296 357.549 805.991C358.894 809.969 361.613 812.921 364.836 815.501L256.533 815.533L256.439 681.407Z" fill="white"/>
<path d="M418.537 313.603L606.894 313.696L606.764 358.556C606.485 397.895 602.969 419.164 573.804 447.912C557.422 462.748 535.385 480.518 512.255 480.378C488.454 480.234 464.374 461.521 448.257 445.22C430.742 427.505 420.82 405.024 418.787 380.241C418.076 371.578 418.393 362.741 418.399 354.048L418.537 313.603Z" fill="white"/>
<path d="M465.9 338.106C470.376 337.67 474.69 337.907 478.799 339.937C483.432 342.225 486.886 346.428 488.335 351.38C489.829 356.487 489.177 362.064 486.459 366.649C483.417 371.781 478.729 374.456 473.125 375.933C468.764 376.4 464.994 376.229 460.976 374.174C456.519 371.894 453.267 367.885 451.739 363.14C450.039 357.865 450.547 351.838 453.253 346.983C456.135 341.813 460.436 339.615 465.9 338.106Z" fill="#7B7B7B"/>
<path d="M550.231 338.121C554.202 337.813 557.803 337.968 561.546 339.482C566.45 341.467 570.206 345.226 572.076 350.186C573.928 355.099 573.844 360.734 571.518 365.474C568.688 371.24 563.775 374.15 557.941 376.17C553.497 376.769 549.252 376.41 545.218 374.326C540.51 371.894 537.06 367.493 535.483 362.468C534.016 357.797 534.519 352.794 536.804 348.473C539.719 342.959 544.476 339.99 550.231 338.121Z" fill="#7B7B7B"/>
<path d="M362.053 598.194C380.36 597.46 398.937 598.189 417.284 598.212L520.066 598.137L619.77 598.366C633.67 598.416 647.964 597.484 661.81 598.188C665.557 598.379 668.636 599.594 671.101 602.509C673.79 605.689 673.933 610.009 673.846 614.008C673.707 620.385 672.509 626.928 671.722 633.266L667.622 666.349L656.862 753.742C655.183 767.442 653.169 781.123 651.794 794.856C651.703 795.354 651.619 795.853 651.497 796.344C650.468 800.501 647.829 802.357 644.346 804.466C629.064 805.274 613.365 804.539 598.042 804.529L505.961 804.494L424.681 804.489C410.851 804.491 396.547 805.286 382.767 804.36C379.885 804.166 377.56 803.483 375.209 801.773C371.88 799.353 371.1 795.386 370.454 791.535C367.988 776.826 366.843 761.684 365.072 746.861L356.812 682.079L351.026 636.594C350.013 628.546 348.5 620.245 348.36 612.147C348.306 608.999 348.923 606.41 350.851 603.87C353.628 600.209 357.655 598.739 362.053 598.194Z" fill="white"/>
<path d="M510.035 678.94C512.053 679.042 513.475 679.172 514.943 680.763C518.012 684.09 516.474 695.379 516.435 700C521.204 700.002 532.705 698.363 536.385 701.642C537.409 702.553 537.963 703.585 537.968 704.979C537.972 706.376 537.44 707.45 536.461 708.416C532.886 711.941 521.096 710.563 516.101 710.505C516.007 716.326 517.951 725.658 514.35 730.56C513.501 730.924 512.754 731.224 511.812 731.271C510.505 731.336 509.15 730.937 508.229 729.968C504.988 726.561 506.428 715.233 506.492 710.49C501.74 710.43 492.907 711.933 488.945 709.27C487.783 708.488 487.097 707.339 486.952 705.948C486.794 704.427 487.16 702.8 488.274 701.687C491.669 698.294 501.806 699.661 506.526 699.706C506.613 694.469 505.755 688.841 506.688 683.682C507.127 681.252 508.035 680.311 510.035 678.94Z" fill="white"/>
<path d="M501.909 622.038L519.938 622L519.907 639.359C530.839 641.495 540.449 645.076 549.506 651.651C553.576 646.963 557.648 641.766 562.696 638.112C567.085 642.234 571.763 646.119 575.774 650.617C571.031 654.941 566.448 659.386 561.914 663.927C569.578 674.036 573.354 683.856 576.154 696.054C582.562 695.926 588.964 695.925 595.373 695.947L595.57 713.269C589.019 713.498 582.409 713.338 575.853 713.335C573.492 725.187 569.383 734.151 562.268 743.938C567.172 748.585 572.04 753.241 576.525 758.3L564.284 770.022C560.496 765.081 555.275 760.651 550.823 756.286C540.819 763.054 531.173 767.271 519.122 768.719L519.248 786.16C519.28 787.227 519.288 787.743 518.935 788.774C515.322 790.751 507.293 789.48 503.023 789.406L503.037 769.031C491.254 766.576 482.673 762.407 472.695 755.847C468.118 760.506 463.567 765.148 459.274 770.073C454.964 765.766 450.805 761.312 446.62 756.883C451.064 752.23 455.765 747.817 460.389 743.345C453.318 733.763 449.576 725.134 447.251 713.433L428 713.471L428.017 696.028L447.179 696.013C449.532 684.049 453.689 673.8 460.595 663.715C456.512 658.86 451.586 654.421 447.027 650.009C451.36 645.949 455.622 641.775 460.287 638.095C464.27 642.821 468.762 647.135 473.098 651.535C482.554 645.424 490.965 641.775 501.912 639.28L501.909 622.038Z" fill="#7B7B7B"/>
<path d="M508.748 679.647C513.953 679.218 518.872 680.06 523.448 682.675C529.36 686.053 533.716 691.769 535.263 698.412C536.814 705.068 535.528 712.486 531.727 718.175C527.655 724.269 521.774 727.187 514.808 728.646C509.024 729.299 503.764 728.577 498.659 725.569C492.731 722.075 488.516 716.35 487.02 709.625C485.546 703.001 486.905 695.966 490.704 690.345C495.042 683.928 501.331 680.936 508.748 679.647Z" fill="white"/>
</g>
</g>
<defs>
<clipPath id="clip0_6_1368">
<rect width="1024" height="1024" fill="white"/>
</clipPath>
</defs>
</svg>
