<svg width="347" height="471" viewBox="0 0 347 471" fill="none" xmlns="http://www.w3.org/2000/svg">
<path d="M40 87.0001C40 87.6001 39.8 90.8006 40 91.3006C42.2 91.3006 -29.1 90.5006 40 91.3006C37.4 91.3006 40 216.901 40 219.501V439.501C40 448.101 43.5 455.801 49.1 461.501C54.7 467.101 62.5 470.601 71.1 470.601H315.3C323.9 470.601 331.6 467.101 337.3 461.501C342.9 455.901 346.4 448.101 346.4 439.501V116.201C346.4 107.601 342.9 99.9006 337.3 94.2006C331.7 88.6006 323.9 85.1006 315.3 85.1006L40 87.0001Z" fill="#ECECEC"/>
<path d="M154.4 114.6C151.8 114.6 149.7 116.7 149.7 119.3C149.7 121.9 151.8 124 154.4 124H318.4C321 124 323.1 121.9 323.1 119.3C323.1 116.7 321 114.6 318.4 114.6H154.4Z" fill="#4D4D4D"/>
<path d="M149.2 154.3C146.6 154.3 144.5 156.4 144.5 159C144.5 161.6 146.6 163.7 149.2 163.7H318.5C321.1 163.7 323.2 161.6 323.2 159C323.2 156.4 321.1 154.3 318.5 154.3H149.2Z" fill="#4D4D4D"/>
<path d="M114 193.9C111.4 193.9 109.3 196 109.3 198.6C109.3 201.2 111.4 203.3 114 203.3H318.5C321.1 203.3 323.2 201.2 323.2 198.6C323.2 196 321.1 193.9 318.5 193.9H114Z" fill="#4D4D4D"/>
<path d="M67.9002 233.6C65.3002 233.6 63.2002 235.7 63.2002 238.3C63.2002 240.9 65.3002 243 67.9002 243H318.4C321 243 323.1 240.9 323.1 238.3C323.1 235.7 321 233.6 318.4 233.6H67.9002Z" fill="#4D4D4D"/>
<path d="M67.9002 273.2C65.3002 273.2 63.2002 275.3 63.2002 277.9C63.2002 280.5 65.3002 282.6 67.9002 282.6H318.4C321 282.6 323.1 280.5 323.1 277.9C323.1 275.3 321 273.2 318.4 273.2H67.9002Z" fill="#4D4D4D"/>
<path d="M67.9002 312.8C65.3002 312.8 63.2002 314.9 63.2002 317.5C63.2002 320.1 65.3002 322.2 67.9002 322.2H318.4C321 322.2 323.1 320.1 323.1 317.5C323.1 314.9 321 312.8 318.4 312.8H67.9002Z" fill="#4D4D4D"/>
<path d="M67.9002 352.5C65.3002 352.5 63.2002 354.6 63.2002 357.2C63.2002 359.8 65.3002 361.9 67.9002 361.9H318.4C321 361.9 323.1 359.8 323.1 357.2C323.1 354.6 321 352.5 318.4 352.5H67.9002Z" fill="#4D4D4D"/>
<path d="M67.9002 392.1C65.3002 392.1 63.2002 394.2 63.2002 396.8C63.2002 399.4 65.3002 401.5 67.9002 401.5H318.4C321 401.5 323.1 399.4 323.1 396.8C323.1 394.2 321 392.1 318.4 392.1H67.9002Z" fill="#4D4D4D"/>
<path d="M67.9002 431.8C65.3002 431.8 63.2002 433.9 63.2002 436.5C63.2002 439.1 65.3002 441.2 67.9002 441.2H318.4C321 441.2 323.1 439.1 323.1 436.5C323.1 433.9 321 431.8 318.4 431.8H67.9002Z" fill="#4D4D4D"/>
<path d="M121.964 73.2052H117.904H96.2426H40.7595V53.4757C40.7595 36.9157 53.202 23.4532 68.5057 23.4532C83.7944 23.4532 96.2433 36.9157 96.2433 53.4757H117.905C117.905 23.9922 95.739 0 68.5057 0C41.2596 0 19.0977 23.9922 19.0977 53.4757V73.2052H15.0398C6.73867 73.2052 0 80.4896 0 89.4804V166.716C0 175.706 6.73867 183 15.0398 183H121.964C130.268 183 137 175.706 137 166.716V89.4804C136.999 80.4896 130.268 73.2052 121.964 73.2052Z" fill="#CFD1D2"/>
<path d="M85 119.527C85 109.847 77.8366 102 69 102C60.1634 102 53 109.847 53 119.527C53 126.487 56.7028 132.499 62.0676 135.328V154.406C62.0676 158.6 65.1713 162 69 162C72.8287 162 75.9324 158.6 75.9324 154.406V135.328C81.2972 132.499 85 126.487 85 119.527Z" fill="#808083"/>
</svg>
