<?xml version="1.0" encoding="utf-8"?>
<!-- Generator: Adobe Illustrator 27.5.0, SVG Export Plug-In . SVG Version: 6.00 Build 0)  -->
<svg version="1.1" id="Layer_1" xmlns="http://www.w3.org/2000/svg" xmlns:xlink="http://www.w3.org/1999/xlink" x="0px" y="0px"
	 viewBox="0 0 491.5 491.5" style="enable-background:new 0 0 491.5 491.5;" xml:space="preserve">
<g id="Layer_x5F_1">
	<g id="_421496896">
		<g>
			<path id="_421499248" style="fill:#4F4F4F;" d="M54.2,45.4h383.1c6.7,0,12.8,2.8,17.3,7.2c4.4,4.4,7.2,10.5,7.2,17.3v266.6
				c0,6.7-2.8,12.8-7.2,17.3c-4.4,4.4-10.5,7.2-17.3,7.2H54.2c-6.7,0-12.8-2.8-17.3-7.2c-4.4-4.4-7.2-10.5-7.2-17.3V69.8
				c0-6.7,2.8-12.8,7.2-17.3C41.4,48.1,47.5,45.4,54.2,45.4z"/>
			<path id="_421498936" style="fill-rule:evenodd;clip-rule:evenodd;fill:#FFFFFF;" d="M54.2,57.1c-3.4,0-6.6,1.3-8.9,3.7
				c-2.4,2.4-3.7,5.6-3.7,8.9v266.6c0,3.4,1.3,6.6,3.7,8.9c2.4,2.4,5.6,3.7,8.9,3.7h383.1c3.4,0,6.6-1.3,8.9-3.7
				c2.4-2.4,3.7-5.6,3.7-8.9V69.8c0-3.4-1.3-6.6-3.7-8.9c-2.4-2.4-5.6-3.7-8.9-3.7C437.3,57.1,54.2,57.1,54.2,57.1z"/>
			<path id="_421499488" style="fill:#4F4F4F;" d="M54.2,45.4h383.1c6.7,0,12.8,2.8,17.3,7.2c4.4,4.4,7.2,10.5,7.2,17.3V106h-432
				V69.8c0-6.7,2.8-12.8,7.2-17.3C41.4,48.1,47.5,45.4,54.2,45.4L54.2,45.4z"/>
			<path id="_421498888" style="fill:#D3D3D3;" d="M86.3,67.8c0-2.6-2.1-4.7-4.7-4.7s-4.7,2.1-4.7,4.7v15.7c0,2.6,2.1,4.7,4.7,4.7
				s4.7-2.1,4.7-4.7C86.3,83.6,86.3,67.8,86.3,67.8z"/>
			<path id="_421498864" style="fill:#E5E5E5;" d="M114.6,67.8c0-2.6-2.1-4.7-4.7-4.7s-4.7,2.1-4.7,4.7v15.7c0,2.6,2.1,4.7,4.7,4.7
				s4.7-2.1,4.7-4.7C114.6,83.6,114.6,67.8,114.6,67.8z"/>
			<path id="_421498192" style="fill:#838383;" d="M142.8,67.8c0-2.6-2.1-4.7-4.7-4.7c-2.6,0-4.7,2.1-4.7,4.7v15.7
				c0,2.6,2.1,4.7,4.7,4.7c2.6,0,4.7-2.1,4.7-4.7C142.8,83.6,142.8,67.8,142.8,67.8z"/>
		</g>
		<path id="_421498000" style="fill:#ACACAC;" d="M63.3,125h364.9c2.6,0,4.7,2.1,4.7,4.7V158c0,2.6-2.1,4.7-4.7,4.7H63.3
			c-2.6,0-4.7-2.1-4.7-4.7v-28.3C58.6,127.1,60.7,125,63.3,125L63.3,125z"/>
		<path id="_421498696" style="fill:#4D4D4D;" d="M63.3,181.6c-2.6,0-4.7,2.1-4.7,4.7c0,2.6,2.1,4.7,4.7,4.7h364.9
			c2.6,0,4.7-2.1,4.7-4.7c0-2.6-2.1-4.7-4.7-4.7H63.3L63.3,181.6z"/>
		<path id="_421498528" style="fill:#4D4D4D;" d="M63.3,209.9c-2.6,0-4.7,2.1-4.7,4.7c0,2.6,2.1,4.7,4.7,4.7h364.9
			c2.6,0,4.7-2.1,4.7-4.7c0-2.6-2.1-4.7-4.7-4.7H63.3L63.3,209.9z"/>
		<path id="_421498480" style="fill:#4D4D4D;" d="M63.3,238.2c-2.6,0-4.7,2.1-4.7,4.7c0,2.6,2.1,4.7,4.7,4.7h58.4
			c2.6,0,4.7-2.1,4.7-4.7c0-2.6-2.1-4.7-4.7-4.7H63.3z M351.8,238.2c-2.6,0-4.7,2.1-4.7,4.7c0,2.6,2.1,4.7,4.7,4.7h76.5
			c2.6,0,4.7-2.1,4.7-4.7c0-2.6-2.1-4.7-4.7-4.7H351.8z"/>
		<path id="_421498552" style="fill:#4D4D4D;" d="M63.3,266.5c-2.6,0-4.7,2.1-4.7,4.7c0,2.6,2.1,4.7,4.7,4.7h57.1
			c2.6,0,4.7-2.1,4.7-4.7c0-2.6-2.1-4.7-4.7-4.7H63.3z M353.1,266.5c-2.6,0-4.7,2.1-4.7,4.7c0,2.6,2.1,4.7,4.7,4.7h75.1
			c2.6,0,4.7-2.1,4.7-4.7c0-2.6-2.1-4.7-4.7-4.7H353.1z"/>
		<path id="_421498408" style="fill:#4D4D4D;" d="M63.3,294.8c-2.6,0-4.7,2.1-4.7,4.7s2.1,4.7,4.7,4.7h57.1c2.6,0,4.7-2.1,4.7-4.7
			s-2.1-4.7-4.7-4.7H63.3z M353.1,294.8c-2.6,0-4.7,2.1-4.7,4.7s2.1,4.7,4.7,4.7h75.1c2.6,0,4.7-2.1,4.7-4.7s-2.1-4.7-4.7-4.7H353.1
			z"/>
		<path id="_421498504" style="fill:#4D4D4D;" d="M63.3,323.1c-2.6,0-4.7,2.1-4.7,4.7c0,2.6,2.1,4.7,4.7,4.7h57.1
			c2.6,0,4.7-2.1,4.7-4.7c0-2.6-2.1-4.7-4.7-4.7H63.3z M353.1,323.1c-2.6,0-4.7,2.1-4.7,4.7c0,2.6,2.1,4.7,4.7,4.7h75.1
			c2.6,0,4.7-2.1,4.7-4.7c0-2.6-2.1-4.7-4.7-4.7H353.1z"/>
		<path id="_421497736" style="fill:#BCBCBC;" d="M136.6,228.4h200.3c5.7,0,11,2.3,14.8,6.1c3.8,3.8,6.1,9,6.1,14.8v122.5
			c0,5.8-2.3,11-6.1,14.8c-3.8,3.8-9,6.1-14.8,6.1H214.4l-65.2,52.2c-0.9,0.9-2.2,1.4-3.5,1.3c-2.6-0.1-4.6-2.4-4.5-5l0,0l2.5-48.6
			h-7.1c-5.8,0-11-2.3-14.8-6.1c-3.8-3.8-6.1-9-6.1-14.8V249.3c0-5.7,2.3-11,6.1-14.8C125.6,230.7,130.8,228.4,136.6,228.4
			L136.6,228.4z"/>
		<g>
			<path id="_421497688" style="fill:#4A4A4A;" d="M141.7,284.9c-1.3,0-2.4,1.1-2.4,2.4v40.1c0,1.3,1.1,2.4,2.4,2.4
				c4.9,0,10.4,0,15.6,0c1.3,0,2.4-1.1,2.4-2.4v-35.6c0-1.3-1.1-2.4-2.4-2.4C150.8,289.4,146.1,284.9,141.7,284.9z"/>
			<path id="_421497832" style="fill:#BFBFBF;" d="M144,324.5h11c1.2,0,2.3,0.2,3.3,0.7s1.9,1.1,2.7,2c0.8,0.9,1.4,1.8,1.7,2.9
				s0.5,2.2,0.3,3.3l-2.6,25.1c-0.2,2.1-1.2,3.9-2.6,5.2c-1.4,1.3-3.3,2.1-5.4,2.1h-5.7c-2.1,0-4-0.8-5.4-2.1
				c-1.4-1.3-2.4-3.1-2.6-5.2l-2.6-25.1c-0.1-1.2,0-2.3,0.3-3.3c0.3-1.1,0.9-2,1.7-2.9c0.8-0.9,1.7-1.5,2.7-2
				C141.7,324.8,142.8,324.5,144,324.5L144,324.5z"/>
			<path id="_421497712" style="fill:#525252;" d="M303.8,296.2c0-1.3-1.1-2.4-2.4-2.4c-43.1,0-86.1,0-129.2,0
				c-1.3,0-2.4,1.1-2.4,2.4v42.5c0,2.8,1,5.4,2.7,7.5c1.7,2.1,4.1,3.7,7,4.6l52.1,16.9c1.8,0.6,3.5,0.9,5.3,0.9
				c1.8,0,3.5-0.3,5.3-0.9l52-16.9c2.9-0.9,5.3-2.6,7-4.6c1.7-2.1,2.7-4.7,2.7-7.5v-42.5H303.8z"/>
			<path id="_421497640" style="fill:#4C4C4C;" d="M303.8,296.2c0-1.3-1.1-2.4-2.4-2.4c-43.1,0-86.1,0-129.2,0
				c-1.3,0-2.4,1.1-2.4,2.4v5.6l65.1,19c1.2,0.3,2.4,0.4,3.6,0.1l3.5-1l0,0l61.8-18V296.2L303.8,296.2z"/>
			<path id="_421497520" style="fill:#4A4A4A;" d="M239.2,293.7h-4.8v74.6c0.8,0.1,1.6,0.2,2.4,0.2s1.6-0.1,2.4-0.2V293.7
				L239.2,293.7z"/>
			<path id="_421496680" style="fill:#454545;" d="M239.2,293.7h-4.8v26.9l0.5,0.1c1.2,0.3,2.4,0.4,3.6,0.1l0.7-0.2V293.7z"/>
			<path id="_421496968" style="fill:#636363;" d="M237.6,252.6l103,30l0,0c1.3,0.4,2,1.7,1.6,3c-0.3,0.9-1,1.5-1.8,1.7l-103,30l0,0
				c-0.5,0.2-1.1,0.1-1.5-0.1l-103-30l0,0c-1.3-0.4-2-1.7-1.6-3c0.3-0.9,1-1.5,1.8-1.7l103-30l0,0
				C236.6,252.4,237.1,252.4,237.6,252.6L237.6,252.6z"/>
		</g>
	</g>
</g>
</svg>
