<svg width="54" height="64" viewBox="0 0 54 64" fill="none" xmlns="http://www.w3.org/2000/svg">
<path d="M33.3799 62H8C4.69141 62 2 59.3086 2 56V8C2 4.69141 4.69141 2 8 2H36C39.3086 2 42 4.69141 42 8V31.5C42 32.0522 42.4478 32.5 43 32.5C43.5522 32.5 44 32.0522 44 31.5V8C44 3.58887 40.4111 0 36 0H8C3.58887 0 0 3.58887 0 8V56C0 60.4111 3.58887 64 8 64H33.3799C33.9321 64 34.3799 63.5522 34.3799 63C34.3799 62.4478 33.9321 62 33.3799 62Z" fill="black"/>
<path d="M38 32.9199C38.5522 32.9199 39 32.4722 39 31.9199V11C39 9.3457 37.6543 8 36 8H8C6.3457 8 5 9.3457 5 11V56C5 57.6543 6.3457 59 8 59H28.9102C29.4624 59 29.9102 58.5522 29.9102 58C29.9102 57.4478 29.4624 57 28.9102 57H8C7.44873 57 7 56.5513 7 56V11C7 10.4487 7.44873 10 8 10H36C36.5513 10 37 10.4487 37 11V31.9199C37 32.4722 37.4478 32.9199 38 32.9199Z" fill="black"/>
<path d="M17 41H25C25.5522 41 26 40.5522 26 40C26 39.4478 25.5522 39 25 39H17C15.9331 39 14.9292 39.4165 14.1729 40.1729C13.4165 40.9292 13 41.9331 13 43C13 45.2056 14.7944 47 17 47H25.0298C25.582 47 26.0298 46.5522 26.0298 46C26.0298 45.4478 25.582 45 25.0298 45H17C15.897 45 15 44.103 15 43C15 42.4673 15.2085 41.9653 15.5869 41.5869C15.9653 41.2085 16.4673 41 17 41Z" fill="black"/>
<path d="M33 23.9999C33 17.9352 28.0666 13.0012 22.0021 13H21.9979C15.9334 13.0012 11 17.9352 11 23.9999C11 30.0653 15.9346 34.9999 22 34.9999C28.0654 34.9999 33 30.0653 33 23.9999ZM22 32.7015C20.4898 31.3713 19.3929 29.7685 18.7302 27.9999H25.2698C24.6071 29.7685 23.5102 31.3713 22 32.7015ZM18.1875 25.9999C18.0732 25.3468 18 24.6817 18 23.9999C18 23.3181 18.0732 22.653 18.1875 21.9999H25.8125C25.9268 22.653 26 23.3181 26 23.9999C26 24.6817 25.9268 25.3468 25.8125 25.9999H18.1875ZM13 23.9999C13 23.3117 13.0848 22.6442 13.2318 21.9999H16.163C16.0665 22.6556 16 23.3198 16 23.9999C16 24.6799 16.0665 25.3441 16.163 25.9999H13.2318C13.0848 25.3556 13 24.688 13 23.9999ZM22 15.2982C23.5102 16.6285 24.6071 18.2313 25.2698 19.9999H18.7302C19.3929 18.2313 20.4898 16.6285 22 15.2982ZM27.837 21.9999H30.7682C30.9152 22.6442 31 23.3117 31 23.9999C31 24.688 30.9152 25.3556 30.7682 25.9999H27.837C27.9335 25.3441 28 24.6799 28 23.9999C28 23.3198 27.9335 22.6556 27.837 21.9999ZM30.0502 19.9999H27.3797C26.8757 18.3779 26.0765 16.8633 24.9763 15.5164C27.1932 16.2968 29.0114 17.918 30.0502 19.9999ZM19.0237 15.5164C17.9235 16.8633 17.1243 18.3779 16.6203 19.9999H13.9498C14.9886 17.918 16.8068 16.2968 19.0237 15.5164ZM13.9498 27.9999H16.6203C17.1243 29.6218 17.9235 31.1365 19.0237 32.4834C16.8068 31.703 14.9886 30.0818 13.9498 27.9999ZM24.9763 32.4834C26.0765 31.1365 26.8757 29.6218 27.3797 27.9999H30.0502C29.0114 30.0818 27.1932 31.703 24.9763 32.4834Z" fill="black"/>
<path d="M28 6C28.5522 6 29 5.55225 29 5C29 4.44775 28.5522 4 28 4H20C19.4478 4 19 4.44775 19 5C19 5.55225 19.4478 6 20 6H28Z" fill="black"/>
<path d="M16 6C16.5523 6 17 5.55228 17 5C17 4.44772 16.5523 4 16 4C15.4477 4 15 4.44772 15 5C15 5.55228 15.4477 6 16 6Z" fill="black"/>
<path d="M53.3848 39.0769L41.3848 34.0769C41.1387 33.9744 40.8613 33.9744 40.6152 34.0769L28.6152 39.0769C28.2427 39.2322 28 39.5959 28 39.9998V44.9998C28 53.302 32.9517 60.7297 40.6152 63.9226C40.7383 63.9739 40.8691 63.9998 41 63.9998C41.1309 63.9998 41.2617 63.9739 41.3848 63.9226C49.0483 60.7297 54 53.302 54 44.9998V39.9998C54 39.5959 53.7573 39.2322 53.3848 39.0769ZM41 61.9114C34.3037 58.9446 30 52.3518 30 44.9998V40.6663L41 36.0833L52 40.6663V43.9998H46.8157C46.4016 42.8383 45.3019 41.9998 44 41.9998C42.3457 41.9998 41 43.3455 41 44.9998C41 46.6541 42.3457 47.9998 44 47.9998C45.3019 47.9998 46.4016 47.1613 46.8157 45.9998H51.9635C51.8902 47.3715 51.6682 48.7105 51.308 49.9998H43C42.7349 49.9998 42.4805 50.1052 42.293 50.2927L41.2853 51.3004C40.8942 51.1132 40.4617 50.9998 40 50.9998C38.3457 50.9998 37 52.3455 37 53.9998C37 55.6541 38.3457 56.9998 40 56.9998C41.6543 56.9998 43 55.6541 43 53.9998C43 53.538 42.8865 53.1055 42.6994 52.7144L43.4141 51.9998H50.6218C48.8492 56.3461 45.4601 59.9353 41 61.9114ZM45 44.9998C45 45.551 44.5513 45.9998 44 45.9998C43.4487 45.9998 43 45.551 43 44.9998C43 44.4485 43.4487 43.9998 44 43.9998C44.5513 43.9998 45 44.4485 45 44.9998ZM41 53.9998C41 54.551 40.5513 54.9998 40 54.9998C39.4487 54.9998 39 54.551 39 53.9998C39 53.4485 39.4487 52.9998 40 52.9998C40.2709 52.9998 40.5156 53.11 40.6959 53.2857C40.699 53.2889 40.6999 53.2934 40.7031 53.2966C40.7064 53.2999 40.7108 53.3007 40.7141 53.3039C40.8897 53.4842 41 53.7288 41 53.9998Z" fill="black"/>
</svg>
