<svg width="467" height="370" viewBox="0 0 467 370" fill="none" xmlns="http://www.w3.org/2000/svg">
<path fill-rule="evenodd" clip-rule="evenodd" d="M189.1 263.5C185.2 263.5 182 260.3 182 256.4V213.1C182 209.2 185.2 206 189.1 206C253.2 206 317.3 206 381.4 206C385.3 206 388.5 209.2 388.5 213.1V256.4C388.5 260.3 385.3 263.5 381.4 263.5C323.8 263.5 251.9 263.5 189.1 263.5Z" fill="#898989"/>
<path fill-rule="evenodd" clip-rule="evenodd" d="M459.4 220.2H111.1C107.2 220.2 104 217 104 213.1V107.1C104 103.2 107.2 100 111.1 100H459.5C463.4 100 466.6 103.2 466.6 107.1V213.1C466.6 217 463.4 220.2 459.4 220.2Z" fill="#989898"/>
<path fill-rule="evenodd" clip-rule="evenodd" d="M420.7 167.2H221.7C217.8 167.2 214.6 164 214.6 160.1C214.6 156.2 217.8 153 221.7 153H420.7C424.6 153 427.8 156.2 427.8 160.1C427.8 164 424.7 167.2 420.7 167.2Z" fill="white"/>
<path fill-rule="evenodd" clip-rule="evenodd" d="M459.4 369.5H111.1C107.2 369.5 104 366.3 104 362.4V256.4C104 252.5 107.2 249.3 111.1 249.3H459.5C463.4 249.3 466.6 252.5 466.6 256.4V362.4C466.6 366.3 463.4 369.5 459.4 369.5Z" fill="#989898"/>
<path fill-rule="evenodd" clip-rule="evenodd" d="M185.1 334.1H149.8C145.9 334.1 142.7 330.9 142.7 327V291.7C142.7 287.8 145.9 284.6 149.8 284.6H185.1C189 284.6 192.2 287.8 192.2 291.7V327C192.3 330.9 189.1 334.1 185.1 334.1Z" fill="#BCBCBC"/>
<path fill-rule="evenodd" clip-rule="evenodd" d="M420.7 316.5H221.7C217.8 316.5 214.6 313.3 214.6 309.4C214.6 305.5 217.8 302.3 221.7 302.3H420.7C424.6 302.3 427.8 305.5 427.8 309.4C427.9 313.3 424.7 316.5 420.7 316.5Z" fill="white"/>
<path d="M228.71 86.5815C226.654 86.5815 224.556 86.7001 222.474 86.9373L215.509 87.6979L215.991 80.3403C216.102 78.5768 216.158 76.8324 216.158 75.1596C216.158 33.7178 184.163 0 144.829 0C126.786 0 109.563 7.11163 96.3421 20.0371C83.1889 32.8876 75.1579 50.3011 73.7291 69.0631L73.2292 75.5678L67.0855 74.7095C64.4863 74.3485 61.8441 74.1636 59.2366 74.1636C26.5796 74.1636 0 102.165 0 136.588C0 170.813 26.4339 198.812 58.9221 198.988L59.9998 199H123.973C123.97 198.944 123.955 198.899 123.955 198.841V147.363H112.394C107.282 147.363 105.598 144.12 108.653 140.158L117.248 129.012C120.304 125.051 125.297 118.571 128.353 114.604L136.949 103.454C140.002 99.4965 145.001 99.4965 148.054 103.454L156.65 114.604C159.703 118.571 164.702 125.053 167.755 129.012L176.351 140.158C179.403 144.12 177.721 147.363 172.607 147.363H161.049V198.841C161.049 198.901 161.032 198.946 161.032 199H228.124L229.01 198.993C259.884 198.834 285 173.622 285 142.792C285.002 111.803 259.751 86.5815 228.71 86.5815Z" fill="#BCBCBC"/>
</svg>
