<svg width="1024" height="1024" viewBox="0 0 1024 1024" fill="none" xmlns="http://www.w3.org/2000/svg">
<g clip-path="url(#clip0_2_2)">
<path d="M728.363 280.53C730.824 280.557 732.936 280.692 735.191 281.762C738.343 283.257 740.734 285.961 741.776 289.299C742.822 292.648 742.44 296.325 740.726 299.386C738.756 302.904 735.686 304.791 731.922 305.934C729.369 305.874 726.959 305.694 724.64 304.535C721.523 302.977 719.165 300.281 718.088 296.964C717.041 293.741 717.34 290.142 719.004 287.178C721.124 283.398 724.362 281.751 728.363 280.53Z" fill="#010101"/>
<path d="M354.367 176.579C357.064 176.475 359.801 177.075 362.12 178.479C365.11 180.289 367.176 183.35 367.867 186.762C368.546 190.111 367.908 193.701 365.956 196.525C363.588 199.948 360.544 201.166 356.587 201.866C354.271 201.727 352.195 201.481 350.097 200.42C346.982 198.845 344.684 196.056 343.741 192.694C342.789 189.307 343.249 185.586 345.097 182.58C347.307 178.987 350.384 177.497 354.367 176.579Z" fill="#010101"/>
<path d="M690.773 440.128C693.144 440.192 695.211 440.358 697.374 441.408C700.476 442.913 702.904 445.622 704.004 448.895C705.108 452.178 704.88 455.833 703.278 458.914C701.283 462.75 698.179 464.442 694.198 465.685C691.122 465.64 688.356 465.378 685.671 463.721C682.681 461.877 680.488 458.966 679.713 455.522C678.979 452.261 679.514 448.748 681.334 445.929C683.534 442.52 686.918 440.908 690.773 440.128Z" fill="#010101"/>
<path d="M291.589 273.597C293.879 273.407 296.257 273.1 298.505 273.719C302.068 274.699 305.199 277.082 306.873 280.403C308.431 283.491 308.627 287.23 307.401 290.464C305.861 294.527 303.195 296.56 299.37 298.33C296.816 298.583 294.303 298.926 291.806 298.122C288.481 297.051 285.684 294.654 284.158 291.509C282.664 288.433 282.426 284.766 283.605 281.547C285.101 277.464 287.814 275.442 291.589 273.597Z" fill="#010101"/>
<path d="M678.725 173.533C681.216 173.393 683.607 173.227 685.988 174.139C689.233 175.381 691.878 177.854 693.281 181.037C694.663 184.174 694.688 187.745 693.336 190.898C691.696 194.723 688.71 196.822 685.016 198.416C682.2 198.766 679.462 198.898 676.786 197.813C673.538 196.496 670.969 194.004 669.673 190.735C668.402 187.532 668.507 183.826 669.983 180.708C671.816 176.835 674.85 174.98 678.725 173.533Z" fill="#7B7B7B"/>
<path d="M832.745 590.608C835.106 590.571 837.264 590.724 839.463 591.668C842.653 593.039 845.145 595.617 846.381 598.866C847.611 602.098 847.549 605.816 846.09 608.965C844.166 613.114 840.98 614.971 836.811 616.393C834.064 616.542 831.434 616.174 828.973 614.876C825.68 613.14 823.241 610.063 822.311 606.458C821.455 603.144 821.891 599.506 823.686 596.572C825.816 593.089 828.91 591.562 832.745 590.608Z" fill="#010101"/>
<path d="M202.903 577.653C205.608 577.852 207.998 578.579 210.273 580.093C213.198 582.04 215.179 585.13 215.764 588.592C216.35 592.052 215.475 595.621 213.392 598.441C210.738 602.033 207.499 603.232 203.243 603.958C200.647 603.626 198.193 603.016 195.994 601.542C193.112 599.61 191.094 596.583 190.461 593.168C189.842 589.832 190.586 586.303 192.522 583.517C195.086 579.829 198.609 578.324 202.903 577.653Z" fill="#010101"/>
<path d="M331.904 445.056C334.174 445.055 336.354 445.253 338.473 446.122C341.647 447.424 344.183 449.929 345.472 453.11C346.803 456.396 346.722 460.155 345.212 463.369C343.122 467.816 339.796 469.741 335.361 471.265C332.574 471.478 329.574 470.831 327.161 469.408C324.129 467.62 321.931 464.629 321.085 461.216C320.233 457.779 320.76 454.068 322.644 451.055C324.865 447.504 327.959 446.002 331.904 445.056Z" fill="#010101"/>
<path d="M185.04 348.59C190.844 348.511 196.662 348.612 202.468 348.636C202.351 355.39 202.362 362.132 202.44 368.887C213.46 370.573 222.307 374.068 231.575 380.263C236.443 375.971 240.756 370.869 245.469 366.366C249.78 369.739 253.589 373.756 257.481 377.595C253.124 382.325 248.904 387.344 244.105 391.628C252.293 401.899 256.41 411.874 258.28 424.846L277.075 424.739L277.058 441.987C270.823 441.902 264.585 442.002 258.35 442.051C255.866 453.41 251.943 462.364 244.69 471.522L258.919 485.755C255.424 489.865 251.457 493.51 247.555 497.227C242.931 492.654 238.152 488.225 233.43 483.752C223.287 490.293 213.58 494.914 201.566 496.741C201.555 500.971 203.024 514.093 201.332 517.151L199.892 517.296C195.022 517.133 190.133 517.204 185.259 517.195L184.984 497.09C173.427 494.405 164.22 490.536 154.314 483.993C149.458 488.662 144.678 493.381 139.981 498.21C135.852 494.633 131.975 490.78 128.054 486.979C133.157 482.333 137.953 477.291 142.825 472.402C135.377 461.373 133.076 454.227 129.219 441.807C122.685 441.646 116.14 441.751 109.604 441.783L109.682 424.599C116.236 424.557 122.79 424.679 129.343 424.77C131.653 412.542 135.78 402.415 142.804 392.12C138.145 387.331 133.227 382.467 129.075 377.24C133.046 373.306 137.121 369.506 141.231 365.72C145.327 370.839 150.438 375.513 154.976 380.274C164.895 374.382 173.853 370.667 185.152 368.268L185.04 348.59Z" fill="#7B7B7B"/>
<path d="M190.572 407.095C196.471 406.552 201.967 407.334 207.115 410.461C213.099 414.096 217.178 420.06 218.691 426.859C220.158 433.45 218.827 440.35 215.138 445.996C211.124 452.14 205.34 455.073 198.382 456.603C192.086 457.436 185.96 456.67 180.43 453.343C174.754 449.929 170.926 444.439 169.346 438.035C167.69 431.322 168.85 424.295 172.612 418.481C176.841 411.947 183.181 408.677 190.572 407.095Z" fill="white"/>
<path d="M821.475 350.503L839.504 350.465L839.473 367.824C850.405 369.96 860.015 373.541 869.072 380.116C873.142 375.428 877.214 370.231 882.262 366.577C886.651 370.699 891.329 374.584 895.34 379.082C890.597 383.406 886.014 387.851 881.48 392.392C889.144 402.501 892.92 412.321 895.72 424.519C902.128 424.391 908.53 424.39 914.939 424.412L915.136 441.734C908.585 441.963 901.975 441.803 895.419 441.8C893.058 453.652 888.949 462.616 881.834 472.403C886.738 477.05 891.606 481.706 896.091 486.765L883.85 498.487C880.062 493.546 874.841 489.116 870.389 484.751C860.385 491.519 850.739 495.736 838.688 497.184L838.814 514.625C838.846 515.692 838.854 516.208 838.501 517.239C834.888 519.216 826.859 517.945 822.589 517.871L822.603 497.496C810.82 495.041 802.239 490.872 792.261 484.312C787.684 488.971 783.133 493.613 778.84 498.538C774.53 494.231 770.371 489.777 766.186 485.348C770.63 480.695 775.331 476.282 779.955 471.81C772.884 462.228 769.142 453.599 766.817 441.898L747.566 441.936L747.583 424.493L766.745 424.478C769.098 412.514 773.255 402.265 780.161 392.18C776.078 387.325 771.152 382.886 766.593 378.474C770.926 374.414 775.188 370.24 779.853 366.56C783.836 371.286 788.328 375.6 792.664 380C802.12 373.889 810.531 370.24 821.478 367.745L821.475 350.503Z" fill="#7B7B7B"/>
<path d="M337.909 10.038L355.938 10L355.907 27.359C366.839 29.495 376.449 33.076 385.506 39.651C389.576 34.963 393.648 29.766 398.696 26.112C403.085 30.234 407.763 34.119 411.774 38.617C407.031 42.941 402.448 47.386 397.914 51.927C405.578 62.036 409.354 71.856 412.154 84.054C418.562 83.926 424.964 83.925 431.373 83.947L431.57 101.269C425.019 101.498 418.409 101.338 411.853 101.335C409.492 113.187 405.383 122.151 398.268 131.938C403.172 136.585 408.04 141.241 412.525 146.3L400.284 158.022C396.496 153.081 391.275 148.651 386.823 144.286C376.819 151.054 367.173 155.271 355.122 156.719L355.248 174.16C355.28 175.227 355.288 175.743 354.935 176.774C351.322 178.751 343.293 177.48 339.023 177.406L339.037 157.031C327.254 154.576 318.673 150.407 308.695 143.847C304.118 148.506 299.567 153.148 295.274 158.073C290.964 153.766 286.805 149.312 282.62 144.883C287.064 140.23 291.765 135.817 296.389 131.345C289.318 121.763 285.576 113.134 283.251 101.433L264 101.471L264.017 84.028L283.179 84.013C285.532 72.049 289.689 61.8 296.595 51.715C292.512 46.86 287.586 42.421 283.027 38.009C287.36 33.949 291.622 29.775 296.287 26.095C300.27 30.821 304.762 35.135 309.098 39.535C318.554 33.424 326.965 29.775 337.912 27.28L337.909 10.038Z" fill="#7B7B7B"/>
<path d="M828.314 408.112C833.519 407.683 838.438 408.525 843.014 411.14C848.926 414.518 853.282 420.234 854.829 426.877C856.38 433.533 855.094 440.951 851.293 446.64C847.221 452.734 841.34 455.652 834.374 457.111C828.59 457.764 823.33 457.042 818.225 454.034C812.297 450.54 808.082 444.815 806.586 438.09C805.112 431.466 806.471 424.431 810.27 418.81C814.608 412.393 820.897 409.401 828.314 408.112Z" fill="white"/>
<path d="M345.31 69.1063C350.515 68.6773 355.434 69.5193 360.01 72.1343C365.922 75.5123 370.278 81.2283 371.825 87.8713C373.376 94.5273 372.09 101.945 368.289 107.634C364.217 113.728 358.336 116.646 351.37 118.105C345.586 118.758 340.326 118.036 335.221 115.028C329.293 111.534 325.078 105.809 323.582 99.0843C322.108 92.4603 323.467 85.4253 327.266 79.8043C331.604 73.3873 337.893 70.3953 345.31 69.1063Z" fill="white"/>
<path d="M502.28 174.7C505.462 174.24 508.972 174.324 512.188 174.332C542.279 174.409 570.466 186.37 591.605 207.78C610.339 226.753 621.501 251.863 623.572 278.421C624.526 290.646 623.896 303.213 623.818 315.477C628.378 316.69 632.475 318.718 636.308 321.459C644.902 327.605 650.764 336.311 652.439 346.815C654.038 356.835 651.479 367.38 645.431 375.53C639.478 383.553 631.422 387.777 621.663 389.19C621.142 392.783 620.605 396.37 619.802 399.914C612.308 432.988 588.943 461.434 560.563 479.315C560.798 486.135 560.818 492.97 560.903 499.794C596.621 500.845 622.655 495.823 656.584 513.539C667.647 519.315 677.743 526.462 686.593 535.266C706.953 555.52 720.957 582.175 724.015 610.886C725.539 625.196 724.983 639.943 725.041 654.319C711.928 654.461 698.793 653.872 685.684 654.331C685.46 658.065 684.963 661.776 684.512 665.488L763.185 665.545C771.964 665.533 791.211 664.52 798.382 665.912C800.369 666.297 802.427 667.335 803.544 669.082C804.657 670.821 804.67 672.687 804.202 674.633C803.377 678.065 801.546 679.642 798.615 681.396C793.576 681.768 788.45 681.603 783.397 681.616C782.629 725.669 783.08 769.831 783.051 813.893L879.883 813.938L905.379 813.949C910.67 813.944 916.356 813.546 921.586 814.331C925.837 814.969 929.894 816.58 933.072 819.538C936.387 822.623 938.053 826.672 938.193 831.173C938.361 836.597 936.635 841.66 932.751 845.514C929.517 848.723 925.864 850.213 921.376 850.606C908.053 851.771 890.439 850.807 876.695 850.783L789.544 850.741L519.875 850.691L236.337 850.801L146.414 850.83H118.248C113.488 850.829 108.48 851.138 103.744 850.716C99.666 850.353 95.76 848.765 92.692 846.039C89.086 842.834 86.758 838.297 86.535 833.453C86.313 828.642 88.13 824.046 91.466 820.595C94.413 817.546 97.407 816.136 101.585 815.578C106.59 814.909 112.018 815.269 117.077 815.271L143.168 815.259L241.095 815.456C241.088 770.855 242.197 726.057 240.838 681.473C234.617 681.128 224.752 683.188 219.7 679.141C217.973 677.757 216.885 675.804 216.758 673.585C216.633 671.412 217.5 669.196 219.051 667.669C220.375 666.366 221.971 665.706 223.81 665.546C234.857 664.586 248.822 665.448 260.123 665.465L338.65 665.65C338.483 661.944 338.01 658.398 337.388 654.743C324.737 654.315 311.966 654.686 299.303 654.719C299.284 640.797 298.782 626.675 299.922 612.788C302.317 583.638 313.896 556.563 334.388 535.517C342.671 527.009 352.149 519.826 362.499 514.013C395.738 495.345 426.025 500.142 462.293 499.705L462.472 477.996C459.538 476.116 456.697 474.145 453.907 472.057C426.465 451.518 408.688 424.144 403.808 389.929C398.894 388.924 394.145 387.677 389.686 385.317C381.592 381.034 375.336 373.703 372.758 364.877C369.809 354.783 371.241 342.178 376.289 332.966C381.862 322.798 391.071 318.382 401.759 315.242C401.794 314.572 401.802 313.902 401.838 313.233C402.066 309.035 400.017 305.207 399.605 300.976C396.738 271.52 406.166 239.122 425.022 216.313C444.512 192.737 471.712 177.575 502.28 174.7Z" fill="#7B7B7B"/>
<path d="M622.922 332.085C624.562 332.774 626.177 333.661 627.617 334.707C632.431 338.205 635.478 343.402 636.388 349.265C637.441 356.058 635.298 361.885 631.415 367.333C628.86 369.96 626.118 371.502 622.829 372.991C622.763 359.357 623.04 345.725 622.922 332.085Z" fill="white"/>
<path d="M400.529 332.362C401.017 332.38 401.43 332.59 401.884 332.759C403.265 337.18 402.479 366.636 402.51 373.731C399.462 372.474 396.8 371.049 394.131 369.117C392.222 367.235 390.556 365.325 389.308 362.932C386.581 357.7 386.231 351.579 388.108 346.004C390.27 339.586 394.644 335.372 400.529 332.362Z" fill="white"/>
<path d="M482.95 258.943C483.436 258.913 483.921 258.878 484.408 258.871C486.572 258.837 488.322 259.189 489.835 260.847C493.096 264.42 491.565 281.497 491.548 286.764L607.989 286.897L608.005 297.437L540.75 297.455L415.513 297.488L415.518 286.878L478.447 286.826C478.841 280.109 478.042 273.169 478.809 266.524C479.233 262.846 480.062 261.22 482.95 258.943Z" fill="white"/>
<path d="M478.057 488.153C503.655 499.232 518.979 498.848 544.654 488.992C544.84 503.196 547.026 515.572 538.7 527.974C538.051 528.774 537.386 529.556 536.687 530.315C530.297 537.263 521.572 541.134 512.144 541.354C503.055 541.565 494.209 538.489 487.689 532.065C475.656 520.211 478.063 503.601 478.057 488.153Z" fill="white"/>
<path d="M682.842 681.57L766.943 681.527C766.491 725.476 767.019 769.482 767.019 813.436L744.25 813.463C716.202 813.404 687.845 814.299 659.842 813.124C663.22 809.211 666.253 804.994 667.714 799.97C670.381 790.8 671.105 774.527 672.339 764.374C675.692 736.783 678.865 709.074 682.842 681.57Z" fill="white"/>
<path d="M256.439 681.407C284.843 680.683 313.447 681.396 341.875 681.458C345.582 709.157 348.788 736.954 352.001 764.716C353.149 774.627 354.612 797.296 357.549 805.991C358.894 809.969 361.613 812.921 364.836 815.501L256.533 815.533L256.439 681.407Z" fill="white"/>
<path d="M418.537 313.603L606.894 313.696L606.764 358.556C606.485 397.895 602.969 419.164 573.804 447.912C557.422 462.748 535.385 480.518 512.255 480.378C488.454 480.234 464.374 461.521 448.257 445.22C430.742 427.505 420.82 405.024 418.787 380.241C418.076 371.578 418.393 362.741 418.399 354.048L418.537 313.603Z" fill="white"/>
<path d="M465.9 338.106C470.376 337.67 474.69 337.907 478.799 339.937C483.432 342.225 486.886 346.428 488.335 351.38C489.829 356.487 489.177 362.064 486.459 366.649C483.417 371.781 478.729 374.456 473.125 375.933C468.764 376.4 464.994 376.229 460.976 374.174C456.519 371.894 453.267 367.885 451.739 363.14C450.039 357.865 450.547 351.838 453.253 346.983C456.135 341.813 460.436 339.615 465.9 338.106Z" fill="#7B7B7B"/>
<path d="M550.231 338.121C554.202 337.813 557.803 337.968 561.546 339.482C566.45 341.467 570.206 345.226 572.076 350.186C573.928 355.099 573.844 360.734 571.518 365.474C568.688 371.24 563.775 374.15 557.941 376.17C553.497 376.769 549.252 376.41 545.218 374.326C540.51 371.894 537.06 367.493 535.483 362.468C534.016 357.797 534.519 352.794 536.804 348.473C539.719 342.959 544.476 339.99 550.231 338.121Z" fill="#7B7B7B"/>
<path d="M362.053 598.194C380.36 597.46 398.937 598.189 417.284 598.212L520.066 598.137L619.77 598.366C633.67 598.416 647.964 597.484 661.81 598.188C665.557 598.379 668.636 599.594 671.101 602.509C673.79 605.689 673.933 610.009 673.846 614.008C673.707 620.385 672.509 626.928 671.722 633.266L667.622 666.349L656.862 753.742C655.183 767.442 653.169 781.123 651.794 794.856C651.703 795.354 651.619 795.853 651.497 796.344C650.468 800.501 647.829 802.357 644.346 804.466C629.064 805.274 613.365 804.539 598.042 804.529L505.961 804.494L424.681 804.489C410.851 804.491 396.547 805.286 382.767 804.36C379.885 804.166 377.56 803.483 375.209 801.773C371.88 799.353 371.1 795.386 370.454 791.535C367.988 776.826 366.843 761.684 365.072 746.861L356.812 682.079L351.026 636.594C350.013 628.546 348.5 620.245 348.36 612.147C348.306 608.999 348.923 606.41 350.851 603.87C353.628 600.209 357.655 598.739 362.053 598.194Z" fill="white"/>
<path d="M508.71 657.204C520.867 656.774 533.334 661.013 542.671 668.848C552.225 676.866 557.967 688.183 558.928 700.608C559.917 713.394 556.004 726.356 547.612 736.116C539.251 745.839 527.429 752.193 514.624 753.222C502.85 754.015 490.914 750.199 481.807 742.686C471.922 734.531 465.526 722.413 464.467 709.643C463.39 696.647 467.105 683.649 475.691 673.721C484.06 664.044 495.995 658.17 508.71 657.204Z" fill="#7B7B7B"/>
<path d="M510.035 678.94C512.053 679.042 513.475 679.172 514.943 680.763C518.012 684.09 516.474 695.379 516.435 700C521.204 700.002 532.705 698.363 536.385 701.642C537.409 702.553 537.963 703.585 537.968 704.979C537.972 706.376 537.44 707.45 536.461 708.416C532.886 711.941 521.096 710.563 516.101 710.505C516.007 716.326 517.951 725.658 514.35 730.56C513.501 730.924 512.754 731.224 511.812 731.271C510.505 731.336 509.15 730.937 508.229 729.968C504.988 726.561 506.428 715.233 506.492 710.49C501.74 710.43 492.907 711.933 488.945 709.27C487.783 708.488 487.097 707.339 486.952 705.948C486.794 704.427 487.16 702.8 488.274 701.687C491.669 698.294 501.806 699.661 506.526 699.706C506.613 694.469 505.755 688.841 506.688 683.682C507.127 681.252 508.035 680.311 510.035 678.94Z" fill="white"/>
</g>
<defs>
<clipPath id="clip0_2_2">
<rect width="1024" height="1024" fill="white"/>
</clipPath>
</defs>
</svg>
