<?xml version="1.0" encoding="utf-8"?>
<!-- Generator: Adobe Illustrator 27.5.0, SVG Export Plug-In . SVG Version: 6.00 Build 0)  -->
<svg version="1.1" id="Layer_1" xmlns="http://www.w3.org/2000/svg" xmlns:xlink="http://www.w3.org/1999/xlink" x="0px" y="0px"
	 viewBox="0 0 491.5 491.5" style="enable-background:new 0 0 491.5 491.5;" xml:space="preserve">
<g id="Layer_x5F_1">
	<g id="_229261944">
		<path id="_229263024" style="fill-rule:evenodd;clip-rule:evenodd;fill:#7A7A7A;" d="M218.6,411.3
			c-106.2,0-192.7-86.4-192.7-192.7S112.3,25.9,218.6,25.9s192.7,86.4,192.7,192.7c0,12.5-1.2,25-3.6,37.2c-0.5,2.6-3,4.3-5.6,3.8
			s-4.3-3-3.8-5.6c2.3-11.6,3.4-23.4,3.4-35.3c0-101-82.1-183.1-183.1-183.1c-100.9,0-183.1,82.1-183.1,183.1
			c0,100.9,82.1,183.1,183.1,183.1c11.9,0,23.8-1.1,35.3-3.4c2.6-0.5,5.1,1.2,5.6,3.8c0.5,2.6-1.2,5.1-3.8,5.6
			C243.6,410.1,231.1,411.3,218.6,411.3L218.6,411.3z"/>
		<path id="_229262760" style="fill-rule:evenodd;clip-rule:evenodd;fill:#7A7A7A;" d="M218.6,411.3c-30,0-58-20.4-78.8-57.5
			c-20.3-36.2-31.5-84.2-31.5-135.2s11.2-99,31.5-135.2c20.8-37.1,48.8-57.5,78.8-57.5s58,20.4,78.8,57.5
			c20.3,36.2,31.5,84.2,31.5,135.2c0,12.4-0.7,24.7-2,36.8c-0.3,2.6-2.7,4.5-5.3,4.2c-2.6-0.3-4.5-2.7-4.2-5.3
			c1.3-11.7,1.9-23.7,1.9-35.7c0-49.4-10.8-95.7-30.3-130.5c-19-33.9-44-52.6-70.4-52.6s-51.4,18.7-70.4,52.6
			c-19.5,34.8-30.3,81.1-30.3,130.5s10.8,95.7,30.3,130.5c19,33.9,44,52.6,70.4,52.6c2.7,0,4.8,2.2,4.8,4.8S221.3,411.3,218.6,411.3
			z"/>
		<path id="_229262736" style="fill-rule:evenodd;clip-rule:evenodd;fill:#7A7A7A;" d="M218.6,328.9c-51,0-99-11.2-135.2-31.5
			c-37.1-20.8-57.5-48.8-57.5-78.8s20.4-58,57.5-78.8c36.2-20.3,84.2-31.5,135.2-31.5s99,11.2,135.2,31.5
			c37.1,20.8,57.5,48.8,57.5,78.8c0,2.6-2.2,4.8-4.8,4.8s-4.8-2.1-4.8-4.8c0-26.4-18.7-51.4-52.6-70.4
			c-34.8-19.5-81.1-30.3-130.5-30.3s-95.7,10.8-130.5,30.3c-33.9,19-52.6,44-52.6,70.4S54.2,270,88.1,289
			c34.8,19.5,81.1,30.3,130.5,30.3c12,0,24-0.6,35.7-1.9c2.6-0.3,5,1.6,5.3,4.2c0.3,2.6-1.6,5-4.2,5.3
			C243.3,328.2,231,328.9,218.6,328.9L218.6,328.9z"/>
		<path id="_229263384" style="fill-rule:evenodd;clip-rule:evenodd;fill:#7A7A7A;" d="M218.6,411.3c-2.6,0-4.8-2.1-4.8-4.8V30.7
			c0-2.7,2.1-4.8,4.8-4.8c2.7,0,4.8,2.2,4.8,4.8v375.8C223.4,409.1,221.3,411.3,218.6,411.3L218.6,411.3z"/>
		<path id="_229263168" style="fill-rule:evenodd;clip-rule:evenodd;fill:#7A7A7A;" d="M406.5,223.4H30.7c-2.7,0-4.8-2.1-4.8-4.8
			c0-2.7,2.2-4.8,4.8-4.8h375.8c2.6,0,4.8,2.2,4.8,4.8C411.3,221.3,409.1,223.4,406.5,223.4L406.5,223.4z"/>
		<path id="_229262856" style="fill-rule:evenodd;clip-rule:evenodd;fill:#AFAFAF;" d="M357.8,396.3c-5.1,0-9.2,4.1-9.2,9.2
			c0,5,4.1,9.1,9.1,9.1s9.1-4.1,9.1-9.1C367,400.4,362.9,396.3,357.8,396.3z M357.8,424.2c-10.3,0-18.8-8.4-18.8-18.7
			s8.4-18.7,18.8-18.7c10.3,0,18.7,8.4,18.7,18.7C376.6,415.8,368.2,424.2,357.8,424.2z"/>
		<path id="_229262640" style="fill-rule:evenodd;clip-rule:evenodd;fill:#AFAFAF;" d="M436.9,333.8c-1.2,0-2.5-0.5-3.4-1.4
			c-20.2-20.2-47.1-31.3-75.7-31.3c-28.6,0-55.4,11.1-75.7,31.3c-1.9,1.9-4.9,1.9-6.8,0c-1.9-1.9-1.9-4.9,0-6.8
			c22-22,51.3-34.2,82.4-34.2s60.4,12.1,82.4,34.2c1.9,1.9,1.9,4.9,0,6.8C439.3,333.3,438.1,333.8,436.9,333.8z"/>
		<path id="_229262688" style="fill-rule:evenodd;clip-rule:evenodd;fill:#AFAFAF;" d="M391.5,379.1c-1.2,0-2.5-0.5-3.4-1.4
			c-8.1-8.1-18.9-12.6-30.3-12.6c-11.4,0-22.2,4.5-30.3,12.6c-1.9,1.9-4.9,1.9-6.8,0c-1.9-1.9-1.9-4.9,0-6.8
			c9.9-9.9,23.1-15.4,37.1-15.4s27.2,5.5,37.1,15.4c1.9,1.9,1.9,4.9,0,6.8C394,378.7,392.8,379.1,391.5,379.1L391.5,379.1z"/>
		<path id="_229262376" style="fill-rule:evenodd;clip-rule:evenodd;fill:#AFAFAF;" d="M414.2,356.5c-1.2,0-2.5-0.5-3.4-1.4
			c-14.1-14.2-33-21.9-53-21.9s-38.8,7.8-53,21.9c-1.9,1.9-4.9,1.9-6.8,0s-1.9-4.9,0-6.8c16-16,37.2-24.8,59.8-24.8
			c22.6,0,43.8,8.8,59.8,24.8c1.9,1.9,1.9,4.9,0,6.8C416.7,356,415.4,356.5,414.2,356.5z"/>
		<path id="_229262184" style="fill-rule:evenodd;clip-rule:evenodd;fill:#AFAFAF;" d="M273,259.6c-7.3,0-13.3,6-13.3,13.3v169.7
			c0,7.4,6,13.3,13.3,13.3h169.7c7.4,0,13.3-6,13.3-13.3V272.9c0-7.3-6-13.3-13.3-13.3H273L273,259.6z M442.7,465.6H273
			c-12.6,0-22.9-10.3-22.9-22.9V273c0-12.6,10.3-22.9,22.9-22.9h169.7c12.6,0,22.9,10.3,22.9,22.9v169.7
			C465.6,455.3,455.3,465.6,442.7,465.6L442.7,465.6z"/>
	</g>
</g>
</svg>
