<?xml version="1.0" encoding="utf-8"?>
<!-- Generator: Adobe Illustrator 27.5.0, SVG Export Plug-In . SVG Version: 6.00 Build 0)  -->
<svg version="1.1" id="Layer_1" xmlns="http://www.w3.org/2000/svg" xmlns:xlink="http://www.w3.org/1999/xlink" x="0px" y="0px"
	 viewBox="0 0 491.52 491.52" style="enable-background:new 0 0 491.52 491.52;" xml:space="preserve">
<g id="Layer_x5F_1">
	<g id="_419586280">
		<path id="_422653944" style="fill-rule:evenodd;clip-rule:evenodd;fill:#C0C0C0;" d="M384.73,332.67H360h-19.74H106.78
			c-42.47,0-77.03-34.63-77.03-77.2v-0.18c0-24.34,11.71-47.51,31.32-61.99c2.46-1.82,5.75-1.72,8.08,0.04
			C102.47,164.25,210.4,77.1,213.55,77.33c32.06,2.43,61.56,19.33,80.05,45.56c8.31-3.53,17.33-5.38,26.41-5.38
			c34.95,0,63.79,26.71,67.17,60.79c41.34,1.3,74.58,35.38,74.58,77.08C461.76,298.03,427.2,332.67,384.73,332.67z"/>
		<path id="_422653824" style="fill-rule:evenodd;clip-rule:evenodd;fill:#ADADAD;" d="M50.11,203.16
			c3.31-3.61,6.97-6.92,10.96-9.87c2.46-1.82,5.75-1.72,8.08,0.04c33.32-29.09,141.25-116.24,144.4-116.01
			c4.26,0.32,8.48,0.91,12.63,1.73c8.46,15.44,13.28,33.14,13.28,51.96c0,59.8-48.65,108.45-108.45,108.45
			C98.89,239.46,69.99,225.42,50.11,203.16z"/>
		<path id="_422654112" style="fill-rule:evenodd;clip-rule:evenodd;fill:#636363;" d="M323.38,461.76H168.13
			c-3.73,0-6.75-3.02-6.75-6.75c0-3.73,3.02-6.75,6.75-6.75h155.25c3.73,0,6.75,3.02,6.75,6.75
			C330.13,458.74,327.11,461.76,323.38,461.76z"/>
		<path id="_422654328" style="fill-rule:evenodd;clip-rule:evenodd;fill:#636363;" d="M245.76,461.76c-3.73,0-6.75-3.02-6.75-6.75
			v-40.5c0-3.73,3.02-6.75,6.75-6.75c3.73,0,6.75,3.02,6.75,6.75v40.5C252.51,458.74,249.49,461.76,245.76,461.76z"/>
		<g>
			<path id="_422653752" style="fill-rule:evenodd;clip-rule:evenodd;fill:#CFCFCF;" d="M131.01,232.26
				c-55.83,0-101.25-45.42-101.25-101.25S75.18,29.76,131.01,29.76s101.25,45.42,101.25,101.25S186.84,232.26,131.01,232.26z"/>
			<path id="_422654064" style="fill-rule:evenodd;clip-rule:evenodd;fill:#FFFFFF;" d="M131.01,205.26c-29.78,0-54-24.22-54-54
				v-40.5c0-29.78,24.22-54,54-54s54,24.22,54,54c0,3.73-3.02,6.75-6.75,6.75c-3.73,0-6.75-3.02-6.75-6.75
				c0-22.33-18.17-40.5-40.5-40.5s-40.5,18.17-40.5,40.5v40.5c0,22.33,18.17,40.5,40.5,40.5s40.5-18.17,40.5-40.5
				c0-3.73,3.02-6.75,6.75-6.75c3.73,0,6.75,3.02,6.75,6.75C185.01,181.04,160.79,205.26,131.01,205.26z"/>
			<path id="_422654400" style="fill-rule:evenodd;clip-rule:evenodd;fill:#FFFFFF;" d="M151.26,117.51c-3.73,0-6.75-3.02-6.75-6.75
				c0-7.44-6.06-13.5-13.5-13.5c-7.44,0-13.5,6.06-13.5,13.5c0,3.73-3.02,6.75-6.75,6.75c-3.73,0-6.75-3.02-6.75-6.75
				c0-14.89,12.11-27,27-27s27,12.11,27,27C158.01,114.49,154.99,117.51,151.26,117.51z"/>
			<path id="_422654160" style="fill-rule:evenodd;clip-rule:evenodd;fill:#FFFFFF;" d="M131.01,178.26c-14.89,0-27-12.11-27-27
				c0-3.73,3.02-6.75,6.75-6.75c3.73,0,6.75,3.02,6.75,6.75c0,7.44,6.06,13.5,13.5,13.5c7.44,0,13.5-6.06,13.5-13.5
				c0-3.73,3.02-6.75,6.75-6.75c3.73,0,6.75,3.02,6.75,6.75C158.01,166.15,145.9,178.26,131.01,178.26L131.01,178.26z"/>
			<path id="_422654256" style="fill-rule:evenodd;clip-rule:evenodd;fill:#FFFFFF;" d="M131.01,151.26c-3.73,0-6.75-3.02-6.75-6.75
				v-20.25c0-3.73,3.02-6.75,6.75-6.75c3.73,0,6.75,3.02,6.75,6.75v20.25C137.76,148.24,134.74,151.26,131.01,151.26L131.01,151.26z
				"/>
		</g>
		<path id="_422653416" style="fill-rule:evenodd;clip-rule:evenodd;fill:#7A7A7A;" d="M329.08,421.26H162.44
			c-9.89,0-17.93-8.04-17.93-17.93v-31.64c0-9.89,8.04-17.93,17.93-17.93h166.64c9.89,0,17.93,8.04,17.93,17.93v31.64
			C347.01,413.22,338.97,421.26,329.08,421.26L329.08,421.26z"/>
		<path id="_422653104" style="fill-rule:evenodd;clip-rule:evenodd;fill:#FFFFFF;" d="M225.51,394.26h-47.25
			c-3.73,0-6.75-3.02-6.75-6.75c0-3.73,3.02-6.75,6.75-6.75h47.25c3.73,0,6.75,3.02,6.75,6.75
			C232.26,391.24,229.24,394.26,225.51,394.26z"/>
		<path id="_422653224" style="fill-rule:evenodd;clip-rule:evenodd;fill:#BCBCBC;" d="M279.51,394.26h-6.75
			c-3.73,0-6.75-3.02-6.75-6.75c0-3.73,3.02-6.75,6.75-6.75h6.75c3.73,0,6.75,3.02,6.75,6.75
			C286.26,391.24,283.24,394.26,279.51,394.26z"/>
		<path id="_422653320" style="fill-rule:evenodd;clip-rule:evenodd;fill:#BFBFBF;" d="M313.26,394.26h-6.75
			c-3.73,0-6.75-3.02-6.75-6.75c0-3.73,3.02-6.75,6.75-6.75h6.75c3.73,0,6.75,3.02,6.75,6.75
			C320.01,391.24,316.99,394.26,313.26,394.26z"/>
		<path id="_422653176" style="fill-rule:evenodd;clip-rule:evenodd;fill:#636363;" d="M329.08,367.26H162.44
			c-9.89,0-17.93-8.04-17.93-17.93v-31.64c0-9.89,8.04-17.93,17.93-17.93h166.64c9.89,0,17.93,8.04,17.93,17.93v31.64
			C347.01,359.22,338.97,367.26,329.08,367.26L329.08,367.26z"/>
		<path id="_422653512" style="fill-rule:evenodd;clip-rule:evenodd;fill:#FFFFFF;" d="M225.51,340.26h-47.25
			c-3.73,0-6.75-3.02-6.75-6.75c0-3.73,3.02-6.75,6.75-6.75h47.25c3.73,0,6.75,3.02,6.75,6.75
			C232.26,337.24,229.24,340.26,225.51,340.26z"/>
		<path id="_422652960" style="fill-rule:evenodd;clip-rule:evenodd;fill:#FFFFFF;" d="M279.51,340.26h-6.75
			c-3.73,0-6.75-3.02-6.75-6.75c0-3.73,3.02-6.75,6.75-6.75h6.75c3.73,0,6.75,3.02,6.75,6.75
			C286.26,337.24,283.24,340.26,279.51,340.26z"/>
		<path id="_422653464" style="fill-rule:evenodd;clip-rule:evenodd;fill:#FFFFFF;" d="M313.26,340.26h-6.75
			c-3.73,0-6.75-3.02-6.75-6.75c0-3.73,3.02-6.75,6.75-6.75h6.75c3.73,0,6.75,3.02,6.75,6.75
			C320.01,337.24,316.99,340.26,313.26,340.26z"/>
		<path id="_419584288" style="fill-rule:evenodd;clip-rule:evenodd;fill:#FFFFFF;" d="M225.51,340.26h-47.25
			c-3.73,0-6.75-3.02-6.75-6.75c0-3.73,3.02-6.75,6.75-6.75h47.25c3.73,0,6.75,3.02,6.75,6.75
			C232.26,337.24,229.24,340.26,225.51,340.26z"/>
		<path id="_419611984" style="fill-rule:evenodd;clip-rule:evenodd;fill:#BCBCBC;" d="M279.51,340.26h-6.75
			c-3.73,0-6.75-3.02-6.75-6.75c0-3.73,3.02-6.75,6.75-6.75h6.75c3.73,0,6.75,3.02,6.75,6.75
			C286.26,337.24,283.24,340.26,279.51,340.26z"/>
		<path id="_419588056" style="fill-rule:evenodd;clip-rule:evenodd;fill:#BFBFBF;" d="M313.26,340.26h-6.75
			c-3.73,0-6.75-3.02-6.75-6.75c0-3.73,3.02-6.75,6.75-6.75h6.75c3.73,0,6.75,3.02,6.75,6.75
			C320.01,337.24,316.99,340.26,313.26,340.26z"/>
		<path id="_419586520" style="fill-rule:evenodd;clip-rule:evenodd;fill:#7A7A7A;" d="M329.08,313.26H162.44
			c-9.89,0-17.93-8.04-17.93-17.93v-31.64c0-9.89,8.04-17.93,17.93-17.93h166.64c9.89,0,17.93,8.04,17.93,17.93v31.64
			C347.01,305.22,338.97,313.26,329.08,313.26z"/>
		<path id="_419586208" style="fill-rule:evenodd;clip-rule:evenodd;fill:#FFFFFF;" d="M225.51,286.26h-47.25
			c-3.73,0-6.75-3.02-6.75-6.75c0-3.73,3.02-6.75,6.75-6.75h47.25c3.73,0,6.75,3.02,6.75,6.75
			C232.26,283.24,229.24,286.26,225.51,286.26z"/>
		<path id="_419586472" style="fill-rule:evenodd;clip-rule:evenodd;fill:#BCBCBC;" d="M279.51,286.26h-6.75
			c-3.73,0-6.75-3.02-6.75-6.75c0-3.73,3.02-6.75,6.75-6.75h6.75c3.73,0,6.75,3.02,6.75,6.75
			C286.26,283.24,283.24,286.26,279.51,286.26z"/>
		<path id="_419586184" style="fill-rule:evenodd;clip-rule:evenodd;fill:#BFBFBF;" d="M313.26,286.26h-6.75
			c-3.73,0-6.75-3.02-6.75-6.75c0-3.73,3.02-6.75,6.75-6.75h6.75c3.73,0,6.75,3.02,6.75,6.75
			C320.01,283.24,316.99,286.26,313.26,286.26z"/>
	</g>
</g>
</svg>
