<svg width="315" height="327" viewBox="0 0 315 327" fill="none" xmlns="http://www.w3.org/2000/svg">
<path fill-rule="evenodd" clip-rule="evenodd" d="M282.72 327H69.28C64.1519 327 60 322.75 60 317.5C60 312.25 64.1519 308 69.28 308H282.72C287.848 308 292 312.25 292 317.5C292 322.75 287.848 327 282.72 327Z" fill="#636363"/>
<path fill-rule="evenodd" clip-rule="evenodd" d="M176 327C171.027 327 167 322.75 167 317.5V260.5C167 255.25 171.027 251 176 251C180.973 251 185 255.25 185 260.5V317.5C185 322.75 180.973 327 176 327Z" fill="#636363"/>
<path fill-rule="evenodd" clip-rule="evenodd" d="M290.385 270H61.615C48.0376 270 37 258.684 37 244.765V200.235C37 186.316 48.0376 175 61.615 175H290.385C303.962 175 315 186.316 315 200.235V244.765C315 258.684 303.962 270 290.385 270Z" fill="#7A7A7A"/>
<path fill-rule="evenodd" clip-rule="evenodd" d="M147.778 232H83.2222C78.1261 232 74 227.75 74 222.5C74 217.25 78.1261 213 83.2222 213H147.778C152.874 213 157 217.25 157 222.5C157 227.75 152.874 232 147.778 232Z" fill="white"/>
<path fill-rule="evenodd" clip-rule="evenodd" d="M222.667 232H213.333C208.176 232 204 227.75 204 222.5C204 217.25 208.176 213 213.333 213H222.667C227.824 213 232 217.25 232 222.5C232 227.75 227.824 232 222.667 232Z" fill="#BCBCBC"/>
<path fill-rule="evenodd" clip-rule="evenodd" d="M268.667 232H259.333C254.176 232 250 227.75 250 222.5C250 217.25 254.176 213 259.333 213H268.667C273.824 213 278 217.25 278 222.5C278 227.75 273.824 232 268.667 232Z" fill="#BFBFBF"/>
<path fill-rule="evenodd" clip-rule="evenodd" d="M290.385 194H61.615C48.0376 194 37 182.804 37 169.031V124.969C37 111.196 48.0376 100 61.615 100H290.385C303.962 100 315 111.196 315 124.969V169.031C315 182.804 303.962 194 290.385 194Z" fill="#636363"/>
<path fill-rule="evenodd" clip-rule="evenodd" d="M222.667 166H213.333C208.176 166 204 161.75 204 156.5C204 151.25 208.176 147 213.333 147H222.667C227.824 147 232 151.25 232 156.5C232 161.75 227.824 166 222.667 166Z" fill="#BCBCBC"/>
<path fill-rule="evenodd" clip-rule="evenodd" d="M268.667 166H259.333C254.176 166 250 161.75 250 156.5C250 151.25 254.176 147 259.333 147H268.667C273.824 147 278 151.25 278 156.5C278 161.75 273.824 166 268.667 166Z" fill="#BFBFBF"/>
<path fill-rule="evenodd" clip-rule="evenodd" d="M290.385 119H61.615C48.0376 119 37 107.684 37 93.7652V49.2348C37 35.3156 48.0376 24 61.615 24H290.385C303.962 24 315 35.3156 315 49.2348V93.7652C315 107.684 303.962 119 290.385 119Z" fill="#7A7A7A"/>
<path fill-rule="evenodd" clip-rule="evenodd" d="M222.667 81H213.333C208.176 81 204 76.7496 204 71.5C204 66.2504 208.176 62 213.333 62H222.667C227.824 62 232 66.2504 232 71.5C232 76.7496 227.824 81 222.667 81Z" fill="#BCBCBC"/>
<path fill-rule="evenodd" clip-rule="evenodd" d="M268.667 81H259.333C254.176 81 250 76.7496 250 71.5C250 66.2504 254.176 62 259.333 62H268.667C273.824 62 278 66.2504 278 71.5C278 76.7496 273.824 81 268.667 81Z" fill="#BFBFBF"/>
<path fill-rule="evenodd" clip-rule="evenodd" d="M147.778 166H83.2222C78.1261 166 74 161.75 74 156.5C74 151.25 78.1261 147 83.2222 147H147.778C152.874 147 157 151.25 157 156.5C157 161.75 152.874 166 147.778 166Z" fill="white"/>
<path d="M9.97917 0H166.021C168.75 0 171.234 1.05222 173.067 2.7057C174.86 4.35919 176 6.65152 176 9.20691V109.393C176 111.911 174.86 114.203 173.067 115.894C171.275 117.548 168.791 118.6 166.021 118.6H9.97917C7.25017 118.6 4.76556 117.548 2.93265 115.894C1.14048 114.241 0 111.948 0 109.393V9.16933C0 6.65152 1.14048 4.35919 2.93265 2.66812C4.76556 1.01464 7.25017 0 9.97917 0Z" fill="#4F4F4F"/>
<path fill-rule="evenodd" clip-rule="evenodd" d="M9.97883 4.39697C8.59396 4.39697 7.29056 4.8855 6.35374 5.7874C5.37619 6.68931 4.84668 7.89184 4.84668 9.13195V109.318C4.84668 110.596 5.37619 111.798 6.35374 112.663C7.33129 113.565 8.63469 114.053 9.97883 114.053H166.02C167.405 114.053 168.709 113.565 169.646 112.663C170.623 111.761 171.153 110.558 171.153 109.318V9.16953C171.153 7.89184 170.623 6.68931 169.646 5.82498C168.668 4.92308 167.365 4.43455 166.02 4.43455C166.02 4.39697 9.97883 4.39697 9.97883 4.39697Z" fill="white"/>
<path d="M9.97897 0H166.021C168.75 0 171.234 1.05222 173.067 2.7057C174.859 4.35919 176 6.65152 176 9.20691V22.773H0.0405273V9.16933C0.0405273 6.65152 1.181 4.35919 2.97318 2.66812C4.76536 1.01464 7.24997 0 9.97897 0Z" fill="#4F4F4F"/>
<path d="M23.0538 8.41808C23.0538 7.44102 22.1985 6.65186 21.1395 6.65186C20.0805 6.65186 19.2251 7.44102 19.2251 8.41808V14.318C19.2251 15.2951 20.0805 16.0842 21.1395 16.0842C22.1985 16.0842 23.0538 15.2951 23.0538 14.318C23.0538 14.3556 23.0538 8.41808 23.0538 8.41808Z" fill="#D3D3D3"/>
<path d="M34.5807 8.41808C34.5807 7.44102 33.7253 6.65186 32.6663 6.65186C31.6073 6.65186 30.752 7.44102 30.752 8.41808V14.318C30.752 15.2951 31.6073 16.0842 32.6663 16.0842C33.7253 16.0842 34.5807 15.2951 34.5807 14.318C34.5807 14.3556 34.5807 8.41808 34.5807 8.41808Z" fill="#E5E5E5"/>
<path d="M46.067 8.41808C46.067 7.44102 45.2117 6.65186 44.1527 6.65186C43.0936 6.65186 42.2383 7.44102 42.2383 8.41808V14.318C42.2383 15.2951 43.0936 16.0842 44.1527 16.0842C45.2117 16.0842 46.067 15.2951 46.067 14.318C46.067 14.3556 46.067 8.41808 46.067 8.41808Z" fill="#838383"/>
<path d="M13.6854 29.9131H162.314C163.373 29.9131 164.228 30.7022 164.228 31.6793V42.3142C164.228 43.2913 163.373 44.0804 162.314 44.0804H13.6854C12.6264 44.0804 11.771 43.2913 11.771 42.3142V31.6793C11.771 30.7022 12.6264 29.9131 13.6854 29.9131Z" fill="#ACACAC"/>
<path d="M13.6854 51.1831C12.6264 51.1831 11.771 51.9723 11.771 52.9493C11.771 53.9264 12.6264 54.7155 13.6854 54.7155H162.314C163.373 54.7155 164.228 53.9264 164.228 52.9493C164.228 51.9723 163.373 51.1831 162.314 51.1831H13.6854Z" fill="#4D4D4D"/>
<path d="M13.6854 61.8179C12.6264 61.8179 11.771 62.607 11.771 63.5841C11.771 64.5612 12.6264 65.3503 13.6854 65.3503H162.314C163.373 65.3503 164.228 64.5612 164.228 63.5841C164.228 62.607 163.373 61.8179 162.314 61.8179H13.6854Z" fill="#4D4D4D"/>
<path d="M13.7264 72.5278C12.6674 72.5278 11.812 73.317 11.812 74.2941C11.812 75.2711 12.6674 76.0603 13.7264 76.0603H162.355C163.414 76.0603 164.269 75.2711 164.269 74.2941C164.269 73.317 163.414 72.5278 162.355 72.5278H13.7264Z" fill="#4D4D4D"/>
<path d="M13.7264 83.1626C12.6674 83.1626 11.812 83.9518 11.812 84.9288C11.812 85.9059 12.6674 86.695 13.7264 86.695H162.355C163.414 86.695 164.269 85.9059 164.269 84.9288C164.269 83.9518 163.414 83.1626 162.355 83.1626H13.7264Z" fill="#4D4D4D"/>
<path d="M13.7264 93.9482C12.6674 93.9482 11.812 94.7374 11.812 95.7145C11.812 96.6915 12.6674 97.4807 13.7264 97.4807H162.355C163.414 97.4807 164.269 96.6915 164.269 95.7145C164.269 94.7374 163.414 93.9482 162.355 93.9482H13.7264Z" fill="#4D4D4D"/>
<path d="M13.7264 104.583C12.6674 104.583 11.812 105.372 11.812 106.349C11.812 107.326 12.6674 108.115 13.7264 108.115H162.355C163.414 108.115 164.269 107.326 164.269 106.349C164.269 105.372 163.414 104.583 162.355 104.583H13.7264Z" fill="#4D4D4D"/>
</svg>
