<svg width="5637" height="1150" viewBox="0 0 5637 1150" fill="none" xmlns="http://www.w3.org/2000/svg">
<path d="M3088.71 1043.96C3077.53 1043.96 3066.81 1042.13 3056.56 1038.48C3046.31 1034.82 3038.39 1030.13 3032.8 1024.4L3039.04 1012.14C3044.34 1017.3 3051.48 1021.64 3060.44 1025.15C3069.4 1028.66 3078.83 1030.42 3088.72 1030.42C3098.18 1030.42 3105.89 1029.24 3111.84 1026.87C3117.79 1024.5 3122.16 1021.32 3124.96 1017.3C3127.76 1013.29 3129.15 1008.84 3129.15 1003.97C3129.15 998.09 3127.46 993.36 3124.1 989.78C3120.73 986.2 3116.32 983.37 3110.88 981.29C3105.43 979.21 3099.41 977.38 3092.82 975.81C3086.22 974.23 3079.63 972.55 3073.04 970.76C3066.44 968.97 3060.39 966.57 3054.87 963.55C3049.35 960.54 3044.9 956.56 3041.54 951.62C3038.17 946.67 3036.49 940.19 3036.49 932.16C3036.49 924.71 3038.46 917.86 3042.4 911.62C3046.34 905.38 3052.4 900.37 3060.57 896.57C3068.74 892.77 3079.2 890.87 3091.96 890.87C3100.42 890.87 3108.8 892.05 3117.12 894.42C3125.43 896.79 3132.6 900.05 3138.62 904.2L3133.24 916.89C3126.79 912.59 3119.94 909.44 3112.7 907.43C3105.46 905.42 3098.47 904.42 3091.73 904.42C3082.7 904.42 3075.24 905.64 3069.37 908.08C3063.49 910.52 3059.16 913.78 3056.36 917.86C3053.56 921.95 3052.17 926.57 3052.17 931.73C3052.17 937.61 3053.85 942.34 3057.22 945.92C3060.59 949.51 3065.03 952.3 3070.55 954.31C3076.07 956.32 3082.12 958.11 3088.72 959.69C3095.31 961.27 3101.87 962.99 3108.4 964.85C3114.92 966.72 3120.94 969.12 3126.46 972.06C3131.98 975 3136.42 978.91 3139.79 983.78C3143.16 988.65 3144.84 995.03 3144.84 1002.92C3144.84 1010.23 3142.83 1017 3138.82 1023.24C3134.8 1029.48 3128.68 1034.5 3120.43 1038.29C3112.18 1042.06 3101.61 1043.96 3088.71 1043.96Z" fill="white"/>
<path d="M3195.36 1028.9H3285.89V1042.66H3179.45V892.14H3282.67V905.9H3195.37V1028.9H3195.36ZM3193.64 959.45H3273.2V973H3193.64V959.45Z" fill="white"/>
<path d="M3388.24 1043.96C3376.91 1043.96 3366.45 1042.06 3356.85 1038.26C3347.24 1034.46 3338.93 1029.12 3331.91 1022.24C3324.89 1015.36 3319.4 1007.26 3315.46 997.94C3311.52 988.62 3309.55 978.45 3309.55 967.4C3309.55 956.36 3311.52 946.19 3315.46 936.87C3319.4 927.55 3324.92 919.45 3332.02 912.57C3339.12 905.69 3347.47 900.35 3357.07 896.55C3366.67 892.75 3377.14 890.85 3388.46 890.85C3399.35 890.85 3409.6 892.68 3419.21 896.33C3428.81 899.99 3436.91 905.47 3443.51 912.78L3433.4 922.89C3427.23 916.58 3420.42 912.03 3412.97 909.24C3405.51 906.44 3397.49 905.05 3388.89 905.05C3379.86 905.05 3371.47 906.59 3363.73 909.67C3355.99 912.76 3349.25 917.13 3343.52 922.79C3337.78 928.46 3333.3 935.05 3330.08 942.57C3326.85 950.1 3325.24 958.37 3325.24 967.41C3325.24 976.44 3326.85 984.72 3330.08 992.25C3333.31 999.78 3337.78 1006.37 3343.52 1012.03C3349.25 1017.69 3355.99 1022.07 3363.73 1025.15C3371.47 1028.23 3379.86 1029.77 3388.89 1029.77C3397.49 1029.77 3405.52 1028.34 3412.97 1025.47C3420.42 1022.6 3427.23 1018.02 3433.4 1011.71L3443.51 1021.82C3436.91 1029.13 3428.81 1034.65 3419.21 1038.38C3409.59 1042.1 3399.27 1043.96 3388.24 1043.96Z" fill="white"/>
<path d="M3538.12 1043.96C3518.91 1043.96 3503.79 1038.44 3492.75 1027.4C3481.71 1016.36 3476.19 1000.02 3476.19 978.37V892.14H3492.1V977.72C3492.1 995.5 3496.11 1008.61 3504.14 1017.07C3512.17 1025.53 3523.49 1029.76 3538.11 1029.76C3552.87 1029.76 3564.27 1025.53 3572.3 1017.07C3580.33 1008.61 3584.34 995.5 3584.34 977.72V892.14H3599.82V978.37C3599.82 1000.02 3594.34 1016.36 3583.37 1027.4C3572.42 1038.44 3557.33 1043.96 3538.12 1043.96Z" fill="white"/>
<path d="M3647.79 1042.67V892.15H3704.13C3716.89 892.15 3727.85 894.19 3737.03 898.28C3746.2 902.37 3753.26 908.25 3758.21 915.91C3763.16 923.58 3765.63 932.86 3765.63 943.76C3765.63 954.37 3763.16 963.51 3758.21 971.18C3753.26 978.85 3746.2 984.73 3737.03 988.81C3727.85 992.9 3716.89 994.94 3704.13 994.94H3656.61L3663.71 987.63V1042.68H3647.79V1042.67ZM3663.7 988.91L3656.6 981.38H3703.69C3718.74 981.38 3730.17 978.08 3737.99 971.49C3745.8 964.9 3749.71 955.65 3749.71 943.75C3749.71 931.71 3745.8 922.39 3737.99 915.8C3730.17 909.21 3718.74 905.91 3703.69 905.91H3656.6L3663.7 898.38V988.91ZM3750.58 1042.67L3711.87 988.05H3729.07L3767.99 1042.67H3750.58Z" fill="white"/>
<path d="M3803.26 1042.67V892.15H3819.17V1042.67H3803.26Z" fill="white"/>
<path d="M3897.44 1042.67V905.9H3844.54V892.14H3966.25V905.9H3913.35V1042.66H3897.44V1042.67Z" fill="white"/>
<path d="M4026.46 1042.67V986.76L4030.12 996.65L3966.25 892.14H3983.24L4039.36 983.96H4030.33L4086.45 892.14H4102.36L4038.49 996.65L4042.15 986.76V1042.67H4026.46Z" fill="white"/>
<path d="M4159.34 1042.67L4228.15 892.15H4243.85L4312.66 1042.67H4295.89L4232.67 901.39H4239.12L4175.9 1042.67H4159.34ZM4186.43 1002.46L4191.16 989.56H4278.68L4283.41 1002.46H4186.43Z" fill="white"/>
<path d="M4364.05 1042.67L4313.3 892.15H4329.64L4377.16 1033.86H4368.99L4418.02 892.15H4432.64L4481.02 1033.86H4473.28L4521.23 892.15H4536.5L4485.75 1042.67H4468.98L4422.75 908.27H4427.05L4380.6 1042.67H4364.05Z" fill="white"/>
<path d="M4536.95 1042.67L4605.76 892.15H4621.46L4690.27 1042.67H4673.5L4610.28 901.39H4616.73L4553.51 1042.67H4536.95ZM4564.04 1002.46L4568.77 989.56H4656.29L4661.02 1002.46H4564.04Z" fill="white"/>
<path d="M4715.2 1042.67V892.15H4771.54C4784.3 892.15 4795.26 894.19 4804.44 898.28C4813.61 902.37 4820.67 908.25 4825.62 915.91C4830.57 923.58 4833.04 932.86 4833.04 943.76C4833.04 954.37 4830.57 963.51 4825.62 971.18C4820.67 978.85 4813.61 984.73 4804.44 988.81C4795.26 992.9 4784.3 994.94 4771.54 994.94H4724.02L4731.12 987.63V1042.68H4715.2V1042.67ZM4731.11 988.91L4724.01 981.38H4771.1C4786.15 981.38 4797.58 978.08 4805.4 971.49C4813.21 964.9 4817.12 955.65 4817.12 943.75C4817.12 931.71 4813.21 922.39 4805.4 915.8C4797.58 909.21 4786.15 905.91 4771.1 905.91H4724.01L4731.11 898.38V988.91ZM4817.99 1042.67L4779.28 988.05H4796.48L4835.4 1042.67H4817.99Z" fill="white"/>
<path d="M4886.59 1028.9H4977.12V1042.66H4870.68V892.14H4973.9V905.9H4886.6V1028.9H4886.59ZM4884.87 959.45H4964.43V973H4884.87V959.45Z" fill="white"/>
<path d="M5014.54 1042.67V892.15H5027.66L5131.52 1022.89H5124.64V892.15H5140.34V1042.67H5127.22L5023.57 911.93H5030.45V1042.67H5014.54Z" fill="white"/>
<path d="M5205.27 1028.9H5295.8V1042.66H5189.36V892.14H5292.58V905.9H5205.28V1028.9H5205.27ZM5203.55 959.45H5283.11V973H5203.55V959.45Z" fill="white"/>
<path d="M5374.71 1043.96C5363.53 1043.96 5352.81 1042.13 5342.56 1038.48C5332.31 1034.82 5324.39 1030.13 5318.8 1024.4L5325.04 1012.14C5330.34 1017.3 5337.48 1021.64 5346.44 1025.15C5355.4 1028.66 5364.83 1030.42 5374.72 1030.42C5384.18 1030.42 5391.89 1029.24 5397.84 1026.87C5403.79 1024.5 5408.16 1021.32 5410.96 1017.3C5413.76 1013.29 5415.15 1008.84 5415.15 1003.97C5415.15 998.09 5413.46 993.36 5410.1 989.78C5406.73 986.2 5402.32 983.37 5396.88 981.29C5391.43 979.21 5385.41 977.38 5378.82 975.81C5372.22 974.23 5365.63 972.55 5359.04 970.76C5352.44 968.97 5346.39 966.57 5340.87 963.55C5335.35 960.54 5330.9 956.56 5327.54 951.62C5324.17 946.67 5322.49 940.19 5322.49 932.16C5322.49 924.71 5324.46 917.86 5328.4 911.62C5332.34 905.38 5338.4 900.37 5346.57 896.57C5354.74 892.77 5365.2 890.87 5377.96 890.87C5386.42 890.87 5394.8 892.05 5403.12 894.42C5411.43 896.79 5418.6 900.05 5424.62 904.2L5419.24 916.89C5412.79 912.59 5405.94 909.44 5398.7 907.43C5391.46 905.42 5384.47 904.42 5377.73 904.42C5368.7 904.42 5361.24 905.64 5355.37 908.08C5349.49 910.52 5345.16 913.78 5342.36 917.86C5339.56 921.95 5338.17 926.57 5338.17 931.73C5338.17 937.61 5339.85 942.34 5343.22 945.92C5346.59 949.51 5351.03 952.3 5356.55 954.31C5362.07 956.32 5368.12 958.11 5374.72 959.69C5381.31 961.27 5387.87 962.99 5394.4 964.85C5400.92 966.72 5406.94 969.12 5412.46 972.06C5417.98 975 5422.42 978.91 5425.79 983.78C5429.16 988.65 5430.84 995.03 5430.84 1002.92C5430.84 1010.23 5428.83 1017 5424.82 1023.24C5420.8 1029.48 5414.68 1034.5 5406.43 1038.29C5398.18 1042.06 5387.61 1043.96 5374.71 1043.96Z" fill="white"/>
<path d="M5506.96 1043.96C5495.78 1043.96 5485.06 1042.13 5474.81 1038.48C5464.56 1034.82 5456.64 1030.13 5451.05 1024.4L5457.29 1012.14C5462.59 1017.3 5469.73 1021.64 5478.69 1025.15C5487.65 1028.66 5497.08 1030.42 5506.97 1030.42C5516.43 1030.42 5524.14 1029.24 5530.09 1026.87C5536.04 1024.5 5540.41 1021.32 5543.21 1017.3C5546.01 1013.29 5547.4 1008.84 5547.4 1003.97C5547.4 998.09 5545.71 993.36 5542.35 989.78C5538.98 986.2 5534.57 983.37 5529.13 981.29C5523.68 979.21 5517.66 977.38 5511.07 975.81C5504.47 974.23 5497.88 972.55 5491.29 970.76C5484.69 968.97 5478.64 966.57 5473.12 963.55C5467.6 960.54 5463.15 956.56 5459.79 951.62C5456.42 946.67 5454.74 940.19 5454.74 932.16C5454.74 924.71 5456.71 917.86 5460.65 911.62C5464.59 905.38 5470.65 900.37 5478.82 896.57C5486.99 892.77 5497.45 890.87 5510.21 890.87C5518.67 890.87 5527.05 892.05 5535.37 894.42C5543.68 896.79 5550.85 900.05 5556.87 904.2L5551.49 916.89C5545.04 912.59 5538.19 909.44 5530.95 907.43C5523.71 905.42 5516.72 904.42 5509.98 904.42C5500.95 904.42 5493.49 905.64 5487.62 908.08C5481.74 910.52 5477.4 913.78 5474.61 917.86C5471.81 921.95 5470.42 926.57 5470.42 931.73C5470.42 937.61 5472.1 942.34 5475.47 945.92C5478.84 949.51 5483.28 952.3 5488.8 954.31C5494.32 956.32 5500.37 958.11 5506.97 959.69C5513.56 961.27 5520.12 962.99 5526.65 964.85C5533.17 966.72 5539.19 969.12 5544.71 972.06C5550.23 975 5554.67 978.91 5558.04 983.78C5561.41 988.65 5563.09 995.03 5563.09 1002.92C5563.09 1010.23 5561.08 1017 5557.07 1023.24C5553.05 1029.48 5546.93 1034.5 5538.68 1038.29C5530.43 1042.06 5519.86 1043.96 5506.96 1043.96Z" fill="white"/>
<path d="M1362.36 1042.67H2973.07C2977.94 1042.67 2981.88 1038.72 2981.88 1033.86V899.67C2981.88 894.8 2977.93 890.86 2973.07 890.86H1362.36C1357.49 890.86 1353.55 894.81 1353.55 899.67V1033.86C1353.55 1038.72 1357.5 1042.67 1362.36 1042.67Z" fill="white"/>
<path d="M1158.2 157.23C1157.84 158.03 1157.54 158.83 1157.56 159.73C1157.57 160.05 1157.51 160.38 1157.52 160.71C1157.55 166.25 1157.06 171.77 1156.73 177.29C1156.46 181.73 1156.07 186.16 1155.73 190.6C1155.69 191.14 1155.64 191.68 1155.59 192.22C1155.17 197.41 1154.75 202.6 1154.34 207.79C1154.05 211.36 1153.79 214.93 1153.47 218.5C1153.17 221.85 1152.81 225.19 1152.47 228.54C1152.21 231.13 1151.94 233.72 1151.69 236.31C1151.39 239.33 1151.13 242.36 1150.81 245.38C1150.51 248.18 1150.14 250.98 1149.81 253.78C1149.57 255.83 1149.35 257.88 1149.1 259.92C1148.25 266.81 1147.41 273.7 1146.51 280.59C1145.6 287.58 1144.68 294.57 1143.64 301.55C1142.51 309.17 1141.22 316.76 1140.02 324.37C1138.39 334.77 1136.51 345.12 1134.53 355.45C1127.35 392.86 1118.49 429.87 1107.69 466.4C1090.6 524.25 1068.9 580.34 1043.12 634.87C1041.36 638.6 1039.48 642.26 1037.48 645.87C1016.42 683.95 995.37 722.02 974.33 760.11C972.65 763.15 970.88 766.14 969.01 769.06C944.22 807.76 917.46 845.03 888.4 880.65C865.46 908.76 841.22 935.7 815.68 961.48C777.27 1000.25 736.22 1036.04 693.08 1069.44C663.8 1092.1 633.68 1113.6 602.92 1134.2C596.25 1138.67 589.56 1143.12 582.88 1147.57C582.07 1148.11 581.25 1148.64 580.41 1149.14C580.02 1149.37 579.57 1149.34 579.17 1149.12C578.7 1148.86 578.23 1148.57 577.78 1148.27C555.72 1133.61 533.74 1118.85 512.21 1103.43C481.22 1081.24 451.03 1058.02 421.91 1033.41C398.35 1013.5 375.57 992.75 353.62 971.07C314.08 932.02 277.69 890.23 244.26 845.84C233.62 831.71 223.29 817.35 213.25 802.77C212.27 801.34 211.33 799.87 210.44 798.39C186.96 759.46 163.48 720.52 140.01 681.58C139.06 680 138.16 678.39 137.3 676.76C119.01 641.73 102.43 605.91 87.68 569.24C72.9 532.48 60.07 495.04 49.25 456.93C43.03 435.02 37.46 412.94 32.55 390.69C30.12 379.68 27.8 368.64 25.68 357.56C23.96 348.61 22.41 339.64 20.85 330.66C19.57 323.29 18.34 315.9 17.2 308.51C16.16 301.76 15.24 294.98 14.31 288.21C13.4 281.55 12.53 274.88 11.69 268.2C11 262.71 10.36 257.22 9.74001 251.72C9.06001 245.68 8.43 239.64 7.8 233.6C7.23 228.1 6.65 222.59 6.13 217.08C5.79 213.52 5.55 209.94 5.25 206.37C4.92 202.48 4.58 198.59 4.25 194.69C4.21 194.26 4.16 193.83 4.14 193.39C3.84 188.95 3.56 184.51 3.25 180.07C2.93 175.52 2.58 170.98 2.25 166.43C2.21 165.89 2.17999 165.35 2.14999 164.8C1.86999 160.14 1.59999 155.48 1.31999 150.83C1.28999 150.4 1.24999 149.96 1.17999 149.54C1.05999 148.85 0.64 148.37 0 148.1C0 147.88 0 147.67 0 147.45C1.66 146.91 3.19999 146.12 4.75999 145.35C21.67 136.96 38.59 128.59 55.68 120.57C87.11 105.81 118.95 91.99 151.33 79.44C189.28 64.73 227.83 51.82 267.1 41.07C283.21 36.66 299.4 32.55 315.7 28.94C324.28 27.04 332.86 25.17 341.46 23.39C347.62 22.12 353.81 20.99 360 19.85C365.55 18.82 371.1 17.82 376.65 16.87C381.35 16.07 386.07 15.36 390.79 14.62C394.11 14.1 397.44 13.6 400.76 13.1C404.52 12.54 408.27 11.98 412.03 11.47C416.01 10.93 419.99 10.44 423.97 9.95001C429.03 9.32001 434.09 8.70999 439.15 8.10999C441.63 7.81999 444.11 7.56 446.59 7.28C449.83 6.93 453.06 6.55999 456.3 6.23999C459.43 5.92999 462.57 5.67001 465.7 5.39001C468.29 5.16001 470.89 4.91999 473.48 4.67999C477.05 4.35999 480.61 3.93999 484.18 3.73999C490.14 3.40999 496.11 3.22999 502.07 2.98999C504.46 2.89999 506.85 2.86 509.23 2.75C512.59 2.6 515.95 2.40001 519.31 2.23001C520.18 2.19001 521.05 2.15999 521.91 2.10999C527.44 1.79999 532.96 1.37 538.49 1.19C546.41 0.940002 554.33 0.800012 562.25 0.450012C565.94 0.280012 569.63 0.259994 573.32 0.149994C574.4 0.119994 578.76 0.0599976 578.76 0.0599976L599.89 0C599.89 0 604.43 0.0400085 605.41 0.0400085C611.6 0.0800085 617.78 0.229994 623.97 0.149994C633.86 0.0099939 643.71 0.800004 653.57 1.16C653.79 1.17 654 1.19001 654.22 1.20001C658.98 1.54001 663.74 1.89 668.5 2.22C672.83 2.52 677.16 2.81001 681.49 3.10001C681.71 3.11001 681.92 3.14 682.14 3.16C685.7 3.5 689.27 3.85001 692.83 4.17001C696.18 4.47001 699.53 4.73001 702.88 5.04001C705.26 5.26001 707.63 5.50999 710 5.76999C712.91 6.09999 715.82 6.46001 718.72 6.79001C723.25 7.31001 727.78 7.78 732.3 8.34C736.39 8.85 740.47 9.45001 744.55 10.01C749.81 10.74 755.09 11.39 760.34 12.21C767.73 13.36 775.11 14.58 782.49 15.85C790.29 17.19 798.09 18.54 805.86 20.05C816.82 22.18 827.75 24.48 838.64 26.93C855.78 30.79 872.81 35.05 889.75 39.72C927.93 50.25 965.45 62.78 1002.42 76.99C1037.26 90.39 1071.48 105.22 1105.25 121.1C1122.33 129.13 1139.23 137.52 1156.15 145.88C1156.82 146.21 1157.53 146.49 1158.22 146.79C1158.2 150.28 1158.2 153.76 1158.2 157.23ZM1084.77 194.08C1084.75 194.08 1084.73 194.08 1084.72 194.08C1084.78 193 1084.85 191.91 1084.91 190.83C1084.95 190.12 1084.69 189.55 1084.05 189.21C1083.18 188.76 1082.3 188.34 1081.42 187.92C1067.79 181.46 1054.11 175.14 1040.31 169.04C1005.07 153.47 969.31 139.23 932.83 126.83C908.9 118.69 884.73 111.34 860.29 104.9C840.78 99.76 821.15 95.15 801.37 91.14C791.59 89.16 781.79 87.3 771.96 85.59C764.59 84.31 757.19 83.19 749.79 82.07C743.79 81.16 737.77 80.35 731.75 79.5C729.39 79.17 727.03 78.82 724.66 78.51C722.4 78.21 720.14 77.94 717.88 77.69C715.18 77.39 712.49 77.11 709.79 76.82C707.63 76.59 705.48 76.34 703.32 76.1C700.3 75.77 697.29 75.4 694.26 75.11C690.8 74.78 687.34 74.56 683.88 74.22C678.7 73.71 673.51 73.23 668.31 72.96C667.88 72.94 667.44 72.9 667.01 72.87C662.03 72.51 657.06 72.1 652.07 71.81C646.22 71.47 640.36 71.23 634.51 70.95C634.08 70.93 633.65 70.87 633.21 70.85C631.69 70.78 630.18 70.66 628.66 70.66C614.33 70.6 600 70.53 585.67 70.51C581.33 70.5 576.99 70.61 572.65 70.7C570.81 70.74 568.97 70.92 567.12 70.98C560.72 71.17 554.32 71.23 547.92 71.57C542.29 71.87 536.64 71.83 531 72.26C527 72.57 522.98 72.63 518.97 72.88C512.15 73.29 505.31 73.46 498.48 73.76C493.71 73.97 488.94 74.24 484.17 74.49C483.74 74.51 483.31 74.57 482.87 74.61C479.09 74.96 475.31 75.31 471.53 75.66C468.4 75.95 465.26 76.22 462.13 76.52C459.97 76.73 457.81 76.96 455.66 77.2C452.86 77.52 450.06 77.87 447.26 78.19C442.73 78.71 438.2 79.18 433.68 79.75C429.59 80.26 425.51 80.87 421.43 81.44C416.17 82.17 410.89 82.85 405.64 83.66C399.53 84.6 393.43 85.62 387.34 86.67C379.54 88.02 371.73 89.34 363.96 90.85C353 92.98 342.07 95.28 331.17 97.74C315.09 101.38 299.1 105.38 283.22 109.79C245.98 120.12 209.42 132.46 173.44 146.54C147.27 156.79 121.46 167.86 95.95 179.65C89.45 182.65 82.99 185.75 76.5 188.76C75.27 189.33 74.58 190.07 74.77 191.51C74.91 192.58 74.92 193.67 75.01 194.76C75.15 196.49 75.31 198.22 75.46 199.95C75.74 203.19 76 206.44 76.28 209.68C76.5 212.17 76.74 214.65 76.99 217.13C77.31 220.37 77.66 223.6 77.99 226.84C78.29 229.86 78.55 232.89 78.88 235.91C79.41 240.65 79.99 245.39 80.55 250.13C81.07 254.55 81.52 258.97 82.1 263.38C83.05 270.59 84.05 277.78 85.09 284.98C86.22 292.82 87.33 300.66 88.62 308.47C90.17 317.89 91.88 327.28 93.57 336.67C95.7 348.52 98.15 360.31 100.7 372.07C105.29 393.17 110.52 414.1 116.35 434.88C125.59 467.8 136.44 500.18 148.84 532.04C163.57 569.89 180.45 606.77 199.17 642.8C199.87 644.15 200.62 645.47 201.41 646.77C224.15 684.5 246.9 722.23 269.66 759.96C270.72 761.72 271.86 763.45 273.03 765.15C280.82 776.39 288.79 787.5 296.96 798.47C328.2 840.42 362.23 879.96 399.25 916.91C425.93 943.55 453.97 968.68 483.17 992.52C513.46 1017.25 544.85 1040.49 577.05 1062.67C577.68 1063.1 578.3 1063.53 578.95 1063.93C579.56 1064.31 580.19 1064.27 580.79 1063.88C581.43 1063.47 582.05 1063.03 582.68 1062.6C612.09 1042.32 640.83 1021.14 668.68 998.76C701.88 972.08 733.65 943.81 763.71 913.62C788.7 888.52 812.38 862.24 834.73 834.77C861.82 801.47 886.76 766.64 909.88 730.48C910.76 729.11 911.58 727.7 912.37 726.28C933.06 688.87 953.73 651.45 974.43 614.04C976.74 609.86 978.9 605.61 980.93 601.28C1004.49 551 1024.42 499.34 1040.11 446.06C1045.78 426.81 1050.91 407.42 1055.49 387.88C1057.92 377.53 1060.2 367.15 1062.34 356.74C1063.82 349.52 1065.17 342.26 1066.53 335.02C1067.55 329.58 1068.53 324.14 1069.47 318.69C1070.26 314.09 1070.99 309.49 1071.72 304.88C1072.46 300.17 1073.17 295.45 1073.87 290.72C1074.47 286.64 1075.06 282.56 1075.63 278.48C1076.15 274.72 1076.63 270.95 1077.12 267.19C1077.68 262.89 1078.27 258.59 1078.78 254.28C1079.33 249.65 1079.81 245.01 1080.31 240.37C1080.56 238.11 1080.81 235.84 1081.06 233.58C1081.39 230.56 1081.74 227.54 1082.03 224.52C1082.35 221.28 1082.61 218.04 1082.9 214.79C1083.14 212.09 1083.4 209.39 1083.64 206.69C1084.02 202.51 1084.39 198.3 1084.77 194.08Z" fill="#0022E9"/>
<path d="M698.797 677.98C661.867 725.22 623.437 761.81 579.047 801.11C525.857 753.99 481.807 710.62 439.847 652.12C371.097 650.65 320.787 642.2 256.007 626.76C189.837 500.11 161.647 379.9 152.477 238.35C269.207 180.64 376.867 146.13 507.617 135.89C486.917 161.06 467.707 187.34 449.957 214.68C373.797 226.47 298.867 248.8 227.397 281.64C236.667 380.93 263.407 476.65 305.337 564.86C356.647 575.7 406.547 580.62 458.377 580.58L477.937 580.51C506.737 625.47 540.637 667.11 579.047 704.5C611.007 673.5 639.767 639.57 665.037 603.34C677.817 627.5 689.097 652.43 698.797 677.98ZM686.657 284.27C746.027 292.62 796.937 307.61 853.147 326.39C838.937 396.02 823.427 455.86 793.737 521.44C826.857 581.74 844.637 629.51 863.697 693.33C787.087 813.93 697.057 898.49 579.057 977.19C470.727 904.94 387.017 828.97 312.767 720.86C326.727 723.17 340.737 725.16 354.777 726.79C373.087 728.92 391.427 730.45 409.817 731.41C458.127 791.48 514.927 845.19 579.107 890.67C660.457 832.99 729.937 761.99 785.407 681.56C764.857 618.58 744.067 578.17 712.637 524.26C737.177 476.83 756.297 426.66 769.457 374.68C726.627 362.52 682.887 354.57 638.877 350.8C653.417 327.65 669.337 305.43 686.657 284.27ZM351.797 491.65C329.337 436.06 316.867 384.48 305.017 326.39C372.447 303.88 432.007 287.41 503.647 280.32C536.927 225.44 573.647 180.21 617.527 133.8C760.317 139.81 878.497 175.5 1005.68 238.35C997.287 368.3 973.317 478.79 916.837 597.14C911.847 583.89 906.547 570.76 900.977 557.78C893.657 540.88 885.817 524.23 877.457 507.82C905.287 435.96 923.417 359.91 930.727 281.6C840.097 239.99 743.847 215.27 646.497 207.49C602.187 256.77 577.637 294.98 546.637 349.14C493.297 351.61 440.277 360.14 388.687 374.72C399.557 417.89 414.557 459.77 433.297 499.76C405.987 498.74 378.777 496.04 351.797 491.65Z" fill="#0022E9"/>
<path d="M701.627 413.61C698.717 425.11 695.347 436.47 691.547 447.68C691.197 448.7 690.857 449.71 690.497 450.73C690.317 451.24 690.147 451.75 689.967 452.25C689.607 453.26 689.247 454.28 688.887 455.29C688.527 456.3 688.157 457.31 687.787 458.32C681.297 475.97 673.697 493.2 665.057 509.89L635.267 559.69L634.437 560.79C618.167 584.11 599.657 605.95 579.087 625.9C554.357 601.83 532.547 575.03 514.007 546.09L485.257 494.12C473.197 468.38 463.537 441.43 456.547 413.64C489.757 404.25 523.887 398.76 558.217 397.17L617.577 398.24C645.907 400.67 674.057 405.79 701.627 413.61Z" fill="#0022E9"/>
<path d="M1378.77 748.52C1362.17 748.53 1351.12 735.3 1354.01 719.04L1439.31 247.02C1442.26 230.76 1458.1 217.52 1474.64 217.52H1921.18C1931.1 217.52 1937.72 225.48 1935.96 235.18L1917.86 335.18C1916.11 344.97 1906.6 352.92 1896.68 352.92H1586.31C1583.01 352.92 1579.84 355.59 1579.27 358.84L1569.42 413.52C1568.85 416.76 1571.05 419.44 1574.35 419.44H1823.98C1833.9 419.44 1840.52 427.32 1838.76 437.1L1822.14 528.93C1820.39 538.64 1810.88 546.6 1800.96 546.6H1551.33C1548.02 546.6 1544.85 549.27 1544.29 552.52L1535.07 603.54C1534.5 606.78 1536.68 609.46 1540 609.46H1850.36C1860.28 609.46 1866.9 617.34 1865.14 627.12L1846.49 730.86C1844.73 740.56 1835.23 748.52 1825.3 748.52H1378.77Z" fill="white"/>
<path d="M2531.26 217.01C2547.79 217.01 2558.84 230.17 2555.96 246.35L2490.16 610.41C2476.37 686.85 2402.04 748.78 2324.35 748.56L2309.22 748.48C2309.07 748.48 2308.94 748.56 2308.79 748.56L2048.89 747.92C1971.47 747.72 1919.89 685.91 1933.68 609.78L1999.34 246.42C2002.29 230.16 2018.07 217.01 2034.61 217.01H2129.61C2146.15 217.01 2157.14 230.17 2154.17 246.42L2091.88 591.13C2090.12 600.91 2096.73 608.79 2106.66 608.79H2315.69C2325.61 608.79 2335.12 600.9 2336.87 591.13L2399.16 246.42C2402.11 230.16 2417.88 217.01 2434.43 217.01H2531.26Z" fill="white"/>
<path d="M2576.16 748.53C2559.62 748.53 2548.57 735.37 2551.53 719.11L2636.76 247.45C2639.71 231.2 2655.49 218.04 2672.02 218.04H3049.95C3127.64 218.04 3179.44 279.97 3165.58 356.4L3143.83 476.96C3134.33 529.38 3096.26 574.71 3048.19 598.07C3044.74 599.77 3042.97 603.64 3044.6 606.52L3106.89 714.94C3115.12 729.58 3104.85 747.1 3088.1 747.1C3036.03 747.1 3003.72 748.73 2982.46 748.44C2946.15 749.01 2934.11 747.45 2927.5 734.29L2870.49 623.05C2868.02 618.2 2863.02 615.24 2857.04 615.24L2736.07 615.38C2732.77 615.38 2729.6 618.06 2729.03 621.3L2711.37 719.12C2708.42 735.38 2692.65 748.53 2676.1 748.53H2576.17H2576.16ZM2755.27 476.52C2754.71 479.82 2756.89 482.44 2760.19 482.44H2955.76C2970.48 482.44 2984.48 470.68 2987.16 456.25L3001.51 376.94C3004.12 362.44 2994.34 350.69 2979.56 350.69H2783.98C2780.68 350.69 2777.51 353.37 2776.94 356.6L2755.27 476.52Z" fill="white"/>
<path d="M3823.52 355.12L3777.42 610.24C3763.63 686.61 3689.44 748.53 3611.75 748.53H3305.96C3228.25 748.53 3176.46 686.59 3190.25 610.24L3236.35 355.12C3250.14 278.76 3324.33 216.83 3402.02 216.83H3707.81C3785.51 216.83 3837.32 278.76 3823.52 355.12ZM3659.96 371.38C3661.72 361.6 3655.1 353.71 3645.17 353.71H3414.96C3405.04 353.71 3395.54 361.6 3393.78 371.38L3353.88 592.09C3352.12 601.88 3358.74 609.75 3368.66 609.75H3598.94C3608.85 609.75 3618.36 601.87 3620.13 592.09L3659.96 371.38Z" fill="white"/>
<path d="M3861.54 748.46C3845 748.46 3833.95 735.3 3836.91 719.05L3851.34 639.1C3854.29 622.84 3870.06 609.69 3886.61 609.69H4219.21C4229.13 609.69 4238.63 601.81 4240.4 592.02L4244.89 566.97C4246.65 557.18 4240.04 549.31 4230.11 549.31H3990.9C3913.19 549.31 3861.4 487.44 3875.19 411.02L3884.98 356.97C3898.77 280.6 3972.96 218.68 4050.65 218.68H4404.36C4420.9 218.68 4431.96 231.84 4429 248.18L4415.21 324.33C4412.26 340.59 4396.49 353.75 4379.94 353.75H4056.35C4046.43 353.75 4036.93 361.63 4035.17 371.41L4029.12 404.77C4027.36 414.55 4033.98 422.43 4043.91 422.43H4283.12C4360.81 422.43 4412.62 484.36 4398.83 560.72L4389.89 610.26C4376.1 686.63 4301.91 748.55 4224.22 748.55H4208.74V748.47H3861.54V748.46Z" fill="white"/>
<path d="M5083.13 355.12L5037.03 610.24C5023.24 686.61 4949.05 748.53 4871.36 748.53H4565.57C4487.86 748.53 4436.07 686.59 4449.86 610.24L4495.96 355.12C4509.75 278.76 4583.94 216.83 4661.63 216.83H4967.42C5045.12 216.83 5096.93 278.76 5083.13 355.12ZM4919.57 371.38C4921.33 361.6 4914.71 353.71 4904.78 353.71H4674.57C4664.65 353.71 4655.15 361.6 4653.39 371.38L4613.49 592.09C4611.73 601.88 4618.35 609.75 4628.27 609.75H4858.55C4868.47 609.75 4877.97 601.87 4879.74 592.09L4919.57 371.38Z" fill="white"/>
<path d="M5105.84 610.03L5152.72 355.34C5166.65 279.18 5240.68 217.54 5318.17 217.54H5611.22C5627.76 217.54 5638.81 230.7 5635.86 246.95L5621.71 325.14C5618.75 341.39 5602.99 354.56 5586.45 354.56H5331.4C5321.54 354.56 5312.05 362.51 5310.28 372.22L5270.38 592.01C5268.62 601.8 5275.23 609.67 5285.15 609.67H5540.2C5556.74 609.67 5567.79 622.83 5564.84 639.1L5550.41 719.11C5547.46 735.37 5531.69 748.53 5515.16 748.53H5221.4C5143.64 748.53 5091.91 686.47 5105.84 610.03Z" fill="white"/>
</svg>
