<?xml version="1.0" encoding="utf-8"?>
<!-- Generator: Adobe Illustrator 27.5.0, SVG Export Plug-In . SVG Version: 6.00 Build 0)  -->
<svg version="1.1" id="Layer_1" xmlns="http://www.w3.org/2000/svg" xmlns:xlink="http://www.w3.org/1999/xlink" x="0px" y="0px"
	 viewBox="0 0 492 492" style="enable-background:new 0 0 492 492;" xml:space="preserve">
<g>
	<g>
		<rect x="224.4" y="359.1" style="fill-rule:evenodd;clip-rule:evenodd;fill:#B7B7B7;" width="43.6" height="81.7"/>
		<rect x="258.9" y="359.1" style="fill-rule:evenodd;clip-rule:evenodd;fill:#A5A5A5;" width="9.1" height="81.7"/>
		<path style="fill-rule:evenodd;clip-rule:evenodd;fill:#B7B7B7;" d="M43.6,38.6h405.3c7.3,0,13.4,6,13.4,13.4v308.2
			c0,7.3-6,13.4-13.4,13.4H43.6c-7.3,0-13.4-6-13.4-13.4V52C30.3,44.6,36.3,38.6,43.6,38.6z"/>
		<path style="fill-rule:evenodd;clip-rule:evenodd;fill:#CCCCCC;" d="M43.6,38.6h393.3c7.3,0,13.4,6,13.4,13.4v308.2
			c0,7.3-6,13.4-13.4,13.4H43.6c-7.3,0-13.4-6-13.4-13.4V52C30.3,44.6,36.3,38.6,43.6,38.6z"/>
		<rect x="62.7" y="71" style="fill-rule:evenodd;clip-rule:evenodd;fill:#CDCDCD;" width="367.2" height="270.1"/>
		<rect x="184" y="431.2" style="fill-rule:evenodd;clip-rule:evenodd;fill:#CCCCCC;" width="124.4" height="23.7"/>
		<rect x="412.6" y="71" style="fill-rule:evenodd;clip-rule:evenodd;fill:#B7B7B7;" width="17.2" height="270.1"/>
		<rect x="296.6" y="431.2" style="fill-rule:evenodd;clip-rule:evenodd;fill:#B7B7B7;" width="11.9" height="23.7"/>
	</g>
	<g>
		<g>
			<path style="fill-rule:evenodd;clip-rule:evenodd;fill:#515151;" d="M150.3,266.8c1.2-1.8,3.7-2.3,5.5-1c1.8,1.3,2.3,3.7,1,5.5
				l-15.2,22.2c-1.2,1.8-3.7,2.3-5.5,1c-1.8-1.3-2.3-3.7-1-5.5L150.3,266.8z"/>
			<path style="fill-rule:evenodd;clip-rule:evenodd;fill:#515151;" d="M178.8,281.6c0.9-2,3.2-2.9,5.2-1.9c2,0.9,2.9,3.2,1.9,5.2
				l-9.4,20.4c-0.9,2-3.2,2.9-5.2,1.9c-2-0.9-2.9-3.2-1.9-5.2L178.8,281.6z"/>
			<path style="fill-rule:evenodd;clip-rule:evenodd;fill:#515151;" d="M209.8,291.1c0.5-2.1,2.6-3.5,4.7-3s3.4,2.6,3,4.7l-4.4,19.3
				c-0.5,2.1-2.6,3.5-4.7,3c-2.1-0.5-3.4-2.6-3-4.7L209.8,291.1z"/>
			<path style="fill-rule:evenodd;clip-rule:evenodd;fill:#515151;" d="M275.1,292.9c-0.5-2.1,0.8-4.2,3-4.7c2.1-0.5,4.2,0.8,4.7,3
				l4.4,19.3c0.5,2.1-0.8,4.2-3,4.7c-2.1,0.5-4.2-0.8-4.7-3L275.1,292.9z"/>
			<path style="fill-rule:evenodd;clip-rule:evenodd;fill:#515151;" d="M306.6,284.8c-0.9-2,0-4.3,1.9-5.2c2-0.9,4.3,0,5.2,1.9
				l9.4,20.4c0.9,2,0,4.3-1.9,5.2c-1.9,0.9-4.3,0-5.2-1.9L306.6,284.8z"/>
			<path style="fill-rule:evenodd;clip-rule:evenodd;fill:#515151;" d="M335.7,271.3c-1.2-1.8-0.8-4.3,1-5.5c1.8-1.2,4.3-0.8,5.5,1
				l15.2,22.2c1.2,1.8,0.8,4.3-1,5.5c-1.8,1.2-4.3,0.8-5.5-1L335.7,271.3z"/>
		</g>
		<g>
			<path style="fill-rule:evenodd;clip-rule:evenodd;fill:#515151;" d="M156.8,141.2c1.2,1.8,0.8,4.3-1,5.5s-4.3,0.8-5.5-1
				L135,123.5c-1.2-1.8-0.8-4.3,1-5.5s4.3-0.8,5.5,1L156.8,141.2z"/>
			<path style="fill-rule:evenodd;clip-rule:evenodd;fill:#515151;" d="M185.9,127.7c0.9,2,0,4.3-1.9,5.2c-2,0.9-4.3,0-5.2-1.9
				l-9.4-20.4c-0.9-2,0-4.3,1.9-5.2c2-0.9,4.3,0,5.2,1.9L185.9,127.7z"/>
			<path style="fill-rule:evenodd;clip-rule:evenodd;fill:#515151;" d="M217.5,119.6c0.5,2.1-0.8,4.2-3,4.7c-2.1,0.5-4.2-0.8-4.7-3
				l-4.4-19.3c-0.5-2.1,0.8-4.2,3-4.7c2.1-0.5,4.2,0.8,4.7,3L217.5,119.6z"/>
			<path style="fill-rule:evenodd;clip-rule:evenodd;fill:#515151;" d="M282.7,121.4c-0.5,2.1-2.6,3.4-4.7,3s-3.5-2.6-3-4.7
				l4.4-19.3c0.5-2.1,2.6-3.4,4.7-3s3.5,2.6,3,4.7L282.7,121.4z"/>
			<path style="fill-rule:evenodd;clip-rule:evenodd;fill:#515151;" d="M313.8,130.9c-0.9,2-3.2,2.9-5.2,1.9c-2-0.9-2.9-3.2-1.9-5.2
				l9.4-20.4c0.9-2,3.2-2.8,5.2-1.9c2,0.9,2.9,3.2,1.9,5.2L313.8,130.9z"/>
			<path style="fill-rule:evenodd;clip-rule:evenodd;fill:#515151;" d="M342.2,145.7c-1.2,1.8-3.7,2.3-5.5,1c-1.8-1.2-2.3-3.7-1-5.5
				L351,119c1.2-1.8,3.7-2.3,5.5-1c1.8,1.2,2.3,3.7,1,5.5L342.2,145.7z"/>
		</g>
		<path style="fill-rule:evenodd;clip-rule:evenodd;fill:#CCCCCC;" d="M400.8,206.3c-71.2-118.4-238-118.4-309.1,0
			C162.9,324.6,329.7,324.6,400.8,206.3z"/>
		<path style="fill-rule:evenodd;clip-rule:evenodd;fill:#EAEAEA;" d="M400.8,206.3c-71.2-99.3-238-99.3-309.1,0
			C162.9,305.5,329.7,305.5,400.8,206.3z"/>
		<path style="fill-rule:evenodd;clip-rule:evenodd;fill:#2E2E2E;" d="M246.3,146.5c16.5,0,31.4,6.7,42.2,17.5s17.5,25.8,17.5,42.2
			c0,16.5-6.7,31.4-17.5,42.2c-10.8,10.8-25.8,17.5-42.2,17.5s-31.4-6.7-42.2-17.5c-10.8-10.8-17.5-25.8-17.5-42.2
			c0-16.5,6.7-31.4,17.5-42.2C214.8,153.2,229.8,146.5,246.3,146.5z"/>
		<path style="fill-rule:evenodd;clip-rule:evenodd;fill:#CCCCCC;" d="M153.4,173.9c0-2.2,1.8-3.9,3.9-3.9c2.1,0,3.9,1.8,3.9,3.9
			c0,2.4,0,4.9,0,7.4c0,8.2,0.1,16.6,0,24.4c0,2.2-1.8,3.9-4,3.9s-3.9-1.8-3.9-4c0.1-7.8,0.1-16.1,0-24.3
			C153.4,178.9,153.4,176.4,153.4,173.9z"/>
		<path style="fill-rule:evenodd;clip-rule:evenodd;fill:#CCCCCC;" d="M332.2,173.9c0-2.2,1.8-3.9,3.9-3.9c2.2,0,3.9,1.8,3.9,3.9
			c0,2.4,0,4.9,0,7.4c0,8.2,0.1,16.6,0,24.4c0,2.2-1.8,3.9-4,3.9s-3.9-1.8-3.9-4c0.1-7.8,0.1-16.1,0-24.3
			C332.2,178.9,332.2,176.4,332.2,173.9z"/>
		<path style="fill-rule:evenodd;clip-rule:evenodd;fill:#A9A9A9;" d="M282.9,169.6c-9.4-9.4-22.3-15.2-36.7-15.2
			c-14.4,0-27.3,5.8-36.7,15.2c-9.4,9.4-15.2,22.3-15.2,36.7c0,14.4,5.8,27.3,15.2,36.7s22.3,15.2,36.7,15.2
			c14.4,0,27.3-5.8,36.7-15.2s15.2-22.3,15.2-36.7C298.1,191.9,292.3,179,282.9,169.6z"/>
		<g>
			<path style="fill-rule:evenodd;clip-rule:evenodd;fill:#505050;" d="M233.3,183.6c0,1.2-0.9,2.1-2.1,2.1s-2.1-0.9-2.1-2.1v-10.8
				c0-1.2,0.9-2.1,2.1-2.1s2.1,0.9,2.1,2.1V183.6z"/>
			<path style="fill-rule:evenodd;clip-rule:evenodd;fill:#505050;" d="M243.3,183.6c0,1.2-0.9,2.1-2.1,2.1s-2.1-0.9-2.1-2.1v-10.8
				c0-1.2,0.9-2.1,2.1-2.1s2.1,0.9,2.1,2.1V183.6z"/>
			<path style="fill-rule:evenodd;clip-rule:evenodd;fill:#505050;" d="M223.6,219.2c1.2,0,2.1,0.9,2.1,2.1s-0.9,2.1-2.1,2.1h-10.8
				c-1.2,0-2.1-0.9-2.1-2.1s0.9-2.1,2.1-2.1H223.6z"/>
			<path style="fill-rule:evenodd;clip-rule:evenodd;fill:#505050;" d="M223.6,209.2c1.2,0,2.1,0.9,2.1,2.1s-0.9,2.1-2.1,2.1h-10.8
				c-1.2,0-2.1-0.9-2.1-2.1s0.9-2.1,2.1-2.1H223.6z"/>
			<path style="fill-rule:evenodd;clip-rule:evenodd;fill:#505050;" d="M223.6,199.1c1.2,0,2.1,0.9,2.1,2.1s-0.9,2.1-2.1,2.1h-10.8
				c-1.2,0-2.1-0.9-2.1-2.1s0.9-2.1,2.1-2.1H223.6z"/>
			<path style="fill-rule:evenodd;clip-rule:evenodd;fill:#505050;" d="M223.6,189.1c1.2,0,2.1,0.9,2.1,2.1s-0.9,2.1-2.1,2.1h-10.8
				c-1.2,0-2.1-0.9-2.1-2.1s0.9-2.1,2.1-2.1H223.6z"/>
			<path style="fill-rule:evenodd;clip-rule:evenodd;fill:#505050;" d="M239.1,228.9c0-1.2,0.9-2.1,2.1-2.1s2.1,0.9,2.1,2.1v10.8
				c0,1.2-0.9,2.1-2.1,2.1s-2.1-0.9-2.1-2.1V228.9z"/>
			<path style="fill-rule:evenodd;clip-rule:evenodd;fill:#505050;" d="M229.1,228.9c0-1.2,0.9-2.1,2.1-2.1s2.1,0.9,2.1,2.1v10.8
				c0,1.2-0.9,2.1-2.1,2.1s-2.1-0.9-2.1-2.1V228.9z"/>
			<path style="fill-rule:evenodd;clip-rule:evenodd;fill:#505050;" d="M253.4,183.6c0,1.2-0.9,2.1-2.1,2.1s-2.1-0.9-2.1-2.1v-10.8
				c0-1.2,0.9-2.1,2.1-2.1s2.1,0.9,2.1,2.1V183.6z"/>
			<path style="fill-rule:evenodd;clip-rule:evenodd;fill:#505050;" d="M263.5,183.6c0,1.2-0.9,2.1-2.1,2.1c-1.2,0-2.1-0.9-2.1-2.1
				v-10.8c0-1.2,0.9-2.1,2.1-2.1c1.2,0,2.1,0.9,2.1,2.1V183.6z"/>
			<path style="fill-rule:evenodd;clip-rule:evenodd;fill:#505050;" d="M259.3,228.9c0-1.2,0.9-2.1,2.1-2.1c1.2,0,2.1,0.9,2.1,2.1
				v10.8c0,1.2-0.9,2.1-2.1,2.1c-1.2,0-2.1-0.9-2.1-2.1V228.9z"/>
			<path style="fill-rule:evenodd;clip-rule:evenodd;fill:#505050;" d="M249.2,228.9c0-1.2,0.9-2.1,2.1-2.1s2.1,0.9,2.1,2.1v10.8
				c0,1.2-0.9,2.1-2.1,2.1s-2.1-0.9-2.1-2.1V228.9z"/>
			<path style="fill-rule:evenodd;clip-rule:evenodd;fill:#505050;" d="M268.9,193.3c-1.2,0-2.1-0.9-2.1-2.1s0.9-2.1,2.1-2.1h10.8
				c1.2,0,2.1,0.9,2.1,2.1s-0.9,2.1-2.1,2.1H268.9z"/>
			<path style="fill-rule:evenodd;clip-rule:evenodd;fill:#505050;" d="M268.9,203.3c-1.2,0-2.1-0.9-2.1-2.1s0.9-2.1,2.1-2.1h10.8
				c1.2,0,2.1,0.9,2.1,2.1s-0.9,2.1-2.1,2.1H268.9z"/>
			<path style="fill-rule:evenodd;clip-rule:evenodd;fill:#505050;" d="M268.9,213.4c-1.2,0-2.1-0.9-2.1-2.1s0.9-2.1,2.1-2.1h10.8
				c1.2,0,2.1,0.9,2.1,2.1s-0.9,2.1-2.1,2.1H268.9z"/>
			<path style="fill-rule:evenodd;clip-rule:evenodd;fill:#505050;" d="M268.9,223.4c-1.2,0-2.1-0.9-2.1-2.1s0.9-2.1,2.1-2.1h10.8
				c1.2,0,2.1,0.9,2.1,2.1s-0.9,2.1-2.1,2.1H268.9z"/>
			<path style="fill-rule:evenodd;clip-rule:evenodd;fill:#919191;" d="M226.9,183.6h38.8c1.8,0,3.3,1.5,3.3,3.3v38.8
				c0,1.8-1.5,3.3-3.3,3.3h-38.8c-1.8,0-3.3-1.5-3.3-3.3v-38.8C223.6,185.1,225.1,183.6,226.9,183.6z"/>
			<path style="fill-rule:evenodd;clip-rule:evenodd;fill:#9C9C9C;" d="M226.9,183.6h26.6c1,3,1.6,6.2,1.6,9.5c0,16-13,29-29,29
				c-0.8,0-1.7,0-2.5-0.1v-35.1C223.6,185.1,225.1,183.6,226.9,183.6z"/>
			<path style="fill-rule:evenodd;clip-rule:evenodd;fill:#BFBFBF;" d="M231.5,191.8H261c1.4,0,2.5,1.1,2.5,2.5v23.8
				c0,1.4-1.1,2.5-2.5,2.5h-29.5c-1.4,0-2.5-1.1-2.5-2.5v-23.8C229,193,230.1,191.8,231.5,191.8z"/>
			<path style="fill-rule:evenodd;clip-rule:evenodd;fill:#D1D1D1;" d="M231.5,191.8h23.3c0.2,1.2,0.3,2.4,0.3,3.6
				c0,13.5-10.9,24.4-24.4,24.4c-0.4,0-0.7,0-1.1,0c-0.4-0.4-0.6-1-0.6-1.6v-23.8C229,193,230.1,191.8,231.5,191.8z"/>
			<path style="fill-rule:evenodd;clip-rule:evenodd;fill:#919191;" d="M246.3,213.8c4.2,0,7.6-3.4,7.6-7.6s-3.4-7.6-7.6-7.6
				s-7.6,3.4-7.6,7.6S242.1,213.8,246.3,213.8z"/>
		</g>
		<ellipse style="fill-rule:evenodd;clip-rule:evenodd;fill:#A5A5A5;" cx="156.9" cy="218.8" rx="13.1" ry="13.1"/>
		<circle style="fill-rule:evenodd;clip-rule:evenodd;fill:#A5A5A5;" cx="335.6" cy="218.8" r="13.1"/>
	</g>
</g>
</svg>
