<svg width="492" height="492" viewBox="0 0 492 492" fill="none" xmlns="http://www.w3.org/2000/svg">
<g clip-path="url(#clip0_6_873)">
<path d="M54.5 52H437.6C444.3 52 450.4 54.8 454.9 59.2C459.3 63.6 462.1 69.7 462.1 76.5V343.1C462.1 349.8 459.3 355.9 454.9 360.4C450.5 364.8 444.4 367.6 437.6 367.6H54.5C47.8 367.6 41.7 364.8 37.2 360.4C32.8 356 30 349.9 30 343.1V76.4C30 69.7 32.8 63.6 37.2 59.1C41.7 54.7 47.8 52 54.5 52Z" fill="#4F4F4F"/>
<path fill-rule="evenodd" clip-rule="evenodd" d="M54.5 63.7002C51.1 63.7002 47.9 65.0002 45.6 67.4002C43.2 69.8002 41.9 73.0002 41.9 76.3002V342.9C41.9 346.3 43.2 349.5 45.6 351.8C48 354.2 51.2 355.5 54.5 355.5H437.6C441 355.5 444.2 354.2 446.5 351.8C448.9 349.4 450.2 346.2 450.2 342.9V76.4002C450.2 73.0002 448.9 69.8002 446.5 67.5002C444.1 65.1002 440.9 63.8002 437.6 63.8002C437.6 63.7002 54.5 63.7002 54.5 63.7002Z" fill="white"/>
<path d="M54.5 52H437.6C444.3 52 450.4 54.8 454.9 59.2C459.3 63.6 462.1 69.7 462.1 76.5V112.6H30.1V76.4C30.1 69.7 32.9 63.6 37.3 59.1C41.7 54.7 47.8 52 54.5 52Z" fill="#4F4F4F"/>
<path d="M86.6 74.4002C86.6 71.8002 84.4999 69.7002 81.8999 69.7002C79.2999 69.7002 77.2 71.8002 77.2 74.4002V90.1002C77.2 92.7002 79.2999 94.8002 81.8999 94.8002C84.4999 94.8002 86.6 92.7002 86.6 90.1002C86.6 90.2002 86.6 74.4002 86.6 74.4002Z" fill="#D3D3D3"/>
<path d="M114.9 74.4002C114.9 71.8002 112.8 69.7002 110.2 69.7002C107.6 69.7002 105.5 71.8002 105.5 74.4002V90.1002C105.5 92.7002 107.6 94.8002 110.2 94.8002C112.8 94.8002 114.9 92.7002 114.9 90.1002C114.9 90.2002 114.9 74.4002 114.9 74.4002Z" fill="#E5E5E5"/>
<path d="M143.1 74.4002C143.1 71.8002 141 69.7002 138.4 69.7002C135.8 69.7002 133.7 71.8002 133.7 74.4002V90.1002C133.7 92.7002 135.8 94.8002 138.4 94.8002C141 94.8002 143.1 92.7002 143.1 90.1002C143.1 90.2002 143.1 74.4002 143.1 74.4002Z" fill="#838383"/>
<path d="M63.3 125H428.2C430.8 125 432.9 127.1 432.9 129.7V158C432.9 160.6 430.8 162.7 428.2 162.7H63.3C60.7 162.7 58.6 160.6 58.6 158V129.7C58.6 127.1 60.7 125 63.3 125Z" fill="#ACACAC"/>
<path d="M63.3 181.6C60.7 181.6 58.6 183.7 58.6 186.3C58.6 188.9 60.7 191 63.3 191H428.2C430.8 191 432.9 188.9 432.9 186.3C432.9 183.7 430.8 181.6 428.2 181.6H63.3Z" fill="#4D4D4D"/>
<path d="M63.3 209.9C60.7 209.9 58.6 212 58.6 214.6C58.6 217.2 60.7 219.3 63.3 219.3H428.2C430.8 219.3 432.9 217.2 432.9 214.6C432.9 212 430.8 209.9 428.2 209.9H63.3Z" fill="#4D4D4D"/>
<path d="M63.7 238C61.1 238 59 240.1 59 242.7C59 245.3 61.1 247.4 63.7 247.4H428.6C431.2 247.4 433.3 245.3 433.3 242.7C433.3 240.1 431.2 238 428.6 238H63.7Z" fill="#4D4D4D"/>
<path d="M62.1894 266C60.4251 266 59 268.011 59 270.5C59 272.989 60.4251 275 62.1894 275H309.811C311.575 275 313 272.989 313 270.5C313 268.011 311.575 266 309.811 266H62.1894Z" fill="#4D4D4D"/>
<path d="M62.1015 291C60.3858 291 59 293.011 59 295.5C59 297.989 60.3858 300 62.1015 300H302.898C304.614 300 306 297.989 306 295.5C306 293.011 304.614 291 302.898 291H62.1015Z" fill="#4D4D4D"/>
<path d="M62.1015 319C60.3858 319 59 321.011 59 323.5C59 325.989 60.3858 328 62.1015 328H302.898C304.614 328 306 325.989 306 323.5C306 321.011 304.614 319 302.898 319H62.1015Z" fill="#4D4D4D"/>
<path d="M468 385.767C452.8 407.567 431.2 424.167 406.1 432.267C405.1 432.667 404 432.767 402.9 432.367C377.7 424.267 356 407.667 340.7 385.767C325.8 364.367 317 337.967 317 309.367C317 298.767 318.2 288.467 320.5 278.567C322.8 268.467 326.3 258.867 330.7 249.967C330.7 249.967 330.7 249.867 330.8 249.867C331.9 247.467 334.6 246.467 337 247.467C360.7 258.067 382.6 263.367 404.4 263.367C426.2 263.367 448 258.067 471.5 247.567C471.6 247.567 471.6 247.467 471.7 247.467C474 246.367 476.8 247.267 478 249.567C482.5 258.667 486 268.367 488.3 278.467C490.6 288.367 491.8 298.667 491.8 309.267C491.7 337.967 482.9 364.367 468 385.767Z" fill="#BCBCBC"/>
<path d="M443.9 411.667C432.7 420.767 419.9 427.767 406.1 432.267C405.1 432.667 404 432.767 402.9 432.367C389 427.867 376.1 420.767 364.8 411.667V369.667C364.8 364.667 366.2 359.967 368.7 355.867C371.3 351.767 374.9 348.367 379.3 346.167C380.6 345.467 382.2 345.967 383 347.167C385.6 350.067 388.9 352.367 392.5 354.067C396.1 355.667 400.1 356.567 404.3 356.567C408.5 356.567 412.5 355.667 416.1 354.067C419.8 352.367 423.1 349.967 425.8 347.067C426.6 345.967 428.1 345.667 429.4 346.267C433.8 348.467 437.4 351.867 440 355.967C442.5 359.967 443.9 364.667 443.9 369.767V411.667Z" fill="#BFBFBF"/>
<path d="M379.3 346.167C379 346.267 378.8 346.467 378.6 346.667C377.5 347.767 377.4 349.567 378.5 350.667C381.7 354.267 385.7 357.267 390.2 359.267C394.5 361.167 399.3 362.267 404.4 362.267C409.4 362.267 414.2 361.167 418.6 359.267C423 357.267 427 354.367 430.2 350.867C430.4 350.667 430.6 350.367 430.8 350.067C431.5 348.667 430.9 346.867 429.5 346.167C427.7 345.267 425.8 344.567 423.8 344.067C422.1 343.667 420.4 343.467 418.7 343.367V340.867C418.7 339.267 417.4 337.967 415.8 337.967C409.3 337.967 400.9 337.967 393.3 337.967C391.7 337.967 390.4 339.267 390.4 340.867V343.367C388.7 343.467 386.9 343.667 385.3 344.067C383.1 344.467 381.2 345.167 379.3 346.167Z" fill="#D3D3D3"/>
<path d="M404.4 275.267C412.4 275.267 419.6 278.567 424.8 283.767C430 288.967 433.3 296.267 433.3 304.167V317.367C433.3 325.367 430 332.567 424.8 337.767C419.6 342.967 412.3 346.267 404.4 346.267C396.4 346.267 389.2 342.967 384 337.767C378.8 332.567 375.5 325.267 375.5 317.367V304.167C375.5 296.167 378.8 288.967 384 283.767C389.2 278.567 396.4 275.267 404.4 275.267Z" fill="#D3D3D3"/>
<path d="M404.4 275.267C412.4 275.267 419.6 278.567 424.8 283.767C430 288.967 433.3 296.267 433.3 304.167V308.367C428 309.467 421.6 310.467 415.6 310.367C408.8 310.267 402.2 308.967 397.7 305.167C395 302.967 391.7 302.267 388.2 302.467C384.4 302.667 380.3 303.867 376.8 305.267C376.4 305.467 376 305.467 375.6 305.567V304.167C375.6 296.167 378.9 288.967 384.1 283.767C389.2 278.567 396.4 275.267 404.4 275.267Z" fill="#545454"/>
<path d="M390.4 427.467C388.4 426.567 386.5 425.567 384.5 424.567V389.467C384.5 387.867 385.8 386.567 387.4 386.567C389 386.567 390.3 387.867 390.3 389.467V427.467H390.4Z" fill="#B4B4B4"/>
<path d="M424.2 424.667C422.3 425.667 420.3 426.667 418.3 427.567V389.567C418.3 387.967 419.6 386.667 421.2 386.667C422.8 386.667 424.1 387.967 424.1 389.567V424.667H424.2Z" fill="#B4B4B4"/>
</g>
<defs>
<clipPath id="clip0_6_873">
<rect width="491.5" height="491.5" fill="white"/>
</clipPath>
</defs>
</svg>
