<svg width="328" height="348" viewBox="0 0 328 348" fill="none" xmlns="http://www.w3.org/2000/svg">
<path fill-rule="evenodd" clip-rule="evenodd" d="M295.72 348H82.28C77.1519 348 73 343.75 73 338.5C73 333.25 77.1519 329 82.28 329H295.72C300.848 329 305 333.25 305 338.5C305 343.75 300.848 348 295.72 348Z" fill="#636363"/>
<path fill-rule="evenodd" clip-rule="evenodd" d="M189 348C184.027 348 180 343.75 180 338.5V281.5C180 276.25 184.027 272 189 272C193.973 272 198 276.25 198 281.5V338.5C198 343.75 193.973 348 189 348Z" fill="#636363"/>
<path fill-rule="evenodd" clip-rule="evenodd" d="M303.385 291H74.615C61.0376 291 50 279.684 50 265.765V221.235C50 207.316 61.0376 196 74.615 196H303.385C316.962 196 328 207.316 328 221.235V265.765C328 279.684 316.962 291 303.385 291Z" fill="#7A7A7A"/>
<path fill-rule="evenodd" clip-rule="evenodd" d="M160.778 253H96.2222C91.1261 253 87 248.75 87 243.5C87 238.25 91.1261 234 96.2222 234H160.778C165.874 234 170 238.25 170 243.5C170 248.75 165.874 253 160.778 253Z" fill="white"/>
<path fill-rule="evenodd" clip-rule="evenodd" d="M235.667 253H226.333C221.176 253 217 248.75 217 243.5C217 238.25 221.176 234 226.333 234H235.667C240.824 234 245 238.25 245 243.5C245 248.75 240.824 253 235.667 253Z" fill="#BCBCBC"/>
<path fill-rule="evenodd" clip-rule="evenodd" d="M281.667 253H272.333C267.176 253 263 248.75 263 243.5C263 238.25 267.176 234 272.333 234H281.667C286.824 234 291 238.25 291 243.5C291 248.75 286.824 253 281.667 253Z" fill="#BFBFBF"/>
<path fill-rule="evenodd" clip-rule="evenodd" d="M303.385 215H74.615C61.0376 215 50 203.804 50 190.031V145.969C50 132.196 61.0376 121 74.615 121H303.385C316.962 121 328 132.196 328 145.969V190.031C328 203.804 316.962 215 303.385 215Z" fill="#636363"/>
<path fill-rule="evenodd" clip-rule="evenodd" d="M166.444 178H141.556C139.591 178 138 173.75 138 168.5C138 163.25 139.591 159 141.556 159H166.444C168.409 159 170 163.25 170 168.5C170 173.75 168.409 178 166.444 178Z" fill="white"/>
<path fill-rule="evenodd" clip-rule="evenodd" d="M235.667 178H226.333C221.176 178 217 173.75 217 168.5C217 163.25 221.176 159 226.333 159H235.667C240.824 159 245 163.25 245 168.5C245 173.75 240.824 178 235.667 178Z" fill="#BCBCBC"/>
<path fill-rule="evenodd" clip-rule="evenodd" d="M281.667 178H272.333C267.176 178 263 173.75 263 168.5C263 163.25 267.176 159 272.333 159H281.667C286.824 159 291 163.25 291 168.5C291 173.75 286.824 178 281.667 178Z" fill="#BFBFBF"/>
<path fill-rule="evenodd" clip-rule="evenodd" d="M303.385 140H74.615C61.0376 140 50 128.684 50 114.765V70.2348C50 56.3156 61.0376 45 74.615 45H303.385C316.962 45 328 56.3156 328 70.2348V114.765C328 128.684 316.962 140 303.385 140Z" fill="#7A7A7A"/>
<path fill-rule="evenodd" clip-rule="evenodd" d="M160.778 102H96.2222C91.1261 102 87 97.7496 87 92.5C87 87.2504 91.1261 83 96.2222 83H160.778C165.874 83 170 87.2504 170 92.5C170 97.7496 165.874 102 160.778 102Z" fill="white"/>
<path fill-rule="evenodd" clip-rule="evenodd" d="M235.667 102H226.333C221.176 102 217 97.7496 217 92.5C217 87.2504 221.176 83 226.333 83H235.667C240.824 83 245 87.2504 245 92.5C245 97.7496 240.824 102 235.667 102Z" fill="#BCBCBC"/>
<path fill-rule="evenodd" clip-rule="evenodd" d="M281.667 102H272.333C267.176 102 263 97.7496 263 92.5C263 87.2504 267.176 83 272.333 83H281.667C286.824 83 291 87.2504 291 92.5C291 97.7496 286.824 102 281.667 102Z" fill="#BFBFBF"/>
<path d="M151 138.767C135.8 160.567 114.2 177.167 89.1 185.267C88.1 185.667 87 185.767 85.9 185.367C60.7 177.267 39 160.667 23.7 138.767C8.8 117.367 0 90.9671 0 62.3671C0 51.7671 1.2 41.4671 3.5 31.5671C5.8 21.4671 9.3 11.8671 13.7 2.96707C13.7 2.96707 13.7 2.86707 13.8 2.86707C14.9 0.467069 17.6 -0.532929 20 0.467071C43.7 11.0671 65.6 16.3671 87.4 16.3671C109.2 16.3671 131 11.0671 154.5 0.56707C154.6 0.56707 154.6 0.467071 154.7 0.467071C157 -0.632929 159.8 0.26707 161 2.56707C165.5 11.6671 169 21.3671 171.3 31.4671C173.6 41.3671 174.8 51.6671 174.8 62.2671C174.7 90.9671 165.9 117.367 151 138.767Z" fill="#BCBCBC"/>
<path d="M126.9 164.667C115.7 173.767 102.9 180.767 89.1001 185.267C88.1001 185.667 87.0001 185.767 85.9001 185.367C72.0001 180.867 59.1 173.767 47.8 164.667V122.667C47.8 117.667 49.2001 112.967 51.7001 108.867C54.3001 104.767 57.9 101.367 62.3 99.1671C63.6 98.4671 65.2 98.9671 66 100.167C68.6 103.067 71.9 105.367 75.5 107.067C79.1 108.667 83.1 109.567 87.3 109.567C91.5 109.567 95.5001 108.667 99.1001 107.067C102.8 105.367 106.1 102.967 108.8 100.067C109.6 98.9671 111.1 98.6671 112.4 99.2671C116.8 101.467 120.4 104.867 123 108.967C125.5 112.967 126.9 117.667 126.9 122.767V164.667Z" fill="#BFBFBF"/>
<path d="M62.2998 99.1673C61.9998 99.2673 61.7999 99.4673 61.5998 99.6673C60.4998 100.767 60.3998 102.567 61.4998 103.667C64.6998 107.267 68.6998 110.267 73.1998 112.267C77.4998 114.167 82.2999 115.267 87.3999 115.267C92.3999 115.267 97.1998 114.167 101.6 112.267C106 110.267 110 107.367 113.2 103.867C113.4 103.667 113.6 103.367 113.8 103.067C114.5 101.667 113.9 99.8673 112.5 99.1673C110.7 98.2673 108.8 97.5673 106.8 97.0673C105.1 96.6673 103.4 96.4673 101.7 96.3673V93.8673C101.7 92.2673 100.4 90.9673 98.7998 90.9673C92.2998 90.9673 83.8998 90.9673 76.2998 90.9673C74.6998 90.9673 73.3998 92.2673 73.3998 93.8673V96.3673C71.6998 96.4673 69.8998 96.6673 68.2998 97.0673C66.0998 97.4673 64.1998 98.1673 62.2998 99.1673Z" fill="#D3D3D3"/>
<path d="M87.4 28.2671C95.4 28.2671 102.6 31.5671 107.8 36.7671C113 41.9671 116.3 49.2671 116.3 57.1671V70.3671C116.3 78.3671 113 85.5671 107.8 90.7671C102.6 95.9671 95.3 99.2671 87.4 99.2671C79.4 99.2671 72.2 95.9671 67 90.7671C61.8 85.5671 58.5 78.2671 58.5 70.3671V57.1671C58.5 49.1671 61.8 41.9671 67 36.7671C72.2 31.5671 79.4 28.2671 87.4 28.2671Z" fill="#D3D3D3"/>
<path d="M87.4001 28.2671C95.4001 28.2671 102.6 31.5671 107.8 36.7671C113 41.9671 116.3 49.2671 116.3 57.1671V61.3671C111 62.4671 104.6 63.4671 98.6001 63.3671C91.8001 63.2671 85.2001 61.9671 80.7001 58.1671C78.0001 55.9671 74.7001 55.2671 71.2001 55.4671C67.4001 55.6671 63.3001 56.8671 59.8001 58.2671C59.4001 58.4671 59.0001 58.4671 58.6001 58.5671V57.1671C58.6001 49.1671 61.9001 41.9671 67.1001 36.7671C72.2001 31.5671 79.4001 28.2671 87.4001 28.2671Z" fill="#545454"/>
<path d="M73.4 180.467C71.4 179.567 69.5 178.567 67.5 177.567V142.467C67.5 140.867 68.8 139.567 70.4 139.567C72 139.567 73.3 140.867 73.3 142.467V180.467H73.4Z" fill="#B4B4B4"/>
<path d="M107.2 177.667C105.3 178.667 103.3 179.667 101.3 180.567V142.567C101.3 140.967 102.6 139.667 104.2 139.667C105.8 139.667 107.1 140.967 107.1 142.567V177.667H107.2Z" fill="#B4B4B4"/>
</svg>
