<svg width="62" height="56" viewBox="0 0 62 56" fill="none" xmlns="http://www.w3.org/2000/svg">
<g clip-path="url(#clip0_337_2)">
<path d="M48.4652 17.9917V33.6647C48.4652 43.0692 41.1763 50.3055 32.6455 50.3055C18.8253 50.3055 16.605 35 8.1875 22.5846C10.3313 21.2564 14.1937 21.5469 16.2427 25.0049L20.5613 31.5875C20.7217 31.8294 20.9654 32.0171 21.2553 32.1218C21.5451 32.2265 21.8649 32.2424 22.1657 32.1671C22.4665 32.0918 22.7317 31.9295 22.9205 31.705C23.1093 31.4804 23.2113 31.2062 23.2109 30.9242C23.2322 3.34248 23.2244 12.8555 23.2264 10.7992C23.2266 10.1976 23.4914 9.62059 23.9624 9.19515C24.4334 8.7697 25.0722 8.53058 25.7383 8.53035C26.4074 8.53334 27.0481 8.77473 27.5212 9.20204C27.9943 9.62935 28.2615 10.2081 28.2648 10.8124V24.4519C28.2778 25.0495 28.5497 25.6186 29.0222 26.0371C29.4947 26.4556 30.1301 26.69 30.7918 26.69C31.4536 26.69 32.0889 26.4556 32.5614 26.0371C33.0339 25.6186 33.3059 25.0495 33.3188 24.4519V7.97648C33.3188 7.37311 33.5842 6.79445 34.0565 6.36781C34.5289 5.94116 35.1695 5.70148 35.8376 5.70148C36.5056 5.70148 37.1462 5.94116 37.6186 6.36781C38.0909 6.79445 38.3563 7.37311 38.3563 7.97648V25.137C38.3693 25.7346 38.6412 26.3038 39.1137 26.7222C39.5862 27.1407 40.2215 27.3752 40.8833 27.3752C41.5451 27.3752 42.1804 27.1407 42.6529 26.7222C43.1254 26.3038 43.3973 25.7346 43.4103 25.137V17.9777C43.4093 17.6796 43.4735 17.3841 43.5994 17.1085C43.7253 16.8329 43.9103 16.5824 44.1438 16.3716C44.3773 16.1608 44.6546 15.9938 44.9598 15.8802C45.265 15.7666 45.5921 15.7087 45.9222 15.7097H45.9378C46.6078 15.7102 47.2502 15.9507 47.724 16.3786C48.1979 16.8064 48.4644 17.3866 48.4652 17.9917Z" fill="#DC2626"/>
<path d="M50.4051 33.6647V17.9917C50.3898 16.9325 49.9137 15.9211 49.0797 15.1763C48.2456 14.4315 47.1206 14.0131 45.9478 14.0113C44.7749 14.0096 43.6484 14.4248 42.8117 15.1671C41.9749 15.9095 41.4952 16.9194 41.4761 17.9786V25.137C41.4761 25.2781 41.4141 25.4134 41.3036 25.5132C41.1932 25.6129 41.0433 25.669 40.8871 25.669C40.7309 25.669 40.5811 25.6129 40.4706 25.5132C40.3602 25.4134 40.2981 25.2781 40.2981 25.137V7.97648C40.2981 6.90898 39.8286 5.88521 38.9929 5.13037C38.1572 4.37554 37.0237 3.95148 35.8419 3.95148C34.66 3.95148 33.5265 4.37554 32.6908 5.13037C31.8551 5.88521 31.3856 6.90898 31.3856 7.97648V24.4519C31.3856 24.5932 31.3235 24.7287 31.2128 24.8287C31.1022 24.9286 30.9521 24.9847 30.7957 24.9847C30.6392 24.9847 30.4891 24.9286 30.3785 24.8287C30.2678 24.7287 30.2057 24.5932 30.2057 24.4519V10.8124C30.2079 9.74486 29.7405 8.7203 28.9063 7.96407C28.0721 7.20784 26.9395 6.78189 25.7577 6.77991C24.5758 6.77794 23.4415 7.20011 22.6042 7.95355C21.767 8.70699 21.2954 9.72998 21.2932 10.7975L21.2777 29.2416L17.9549 24.178C17.4297 23.2283 16.6867 22.3904 15.7754 21.72C14.8641 21.0495 13.8053 20.5619 12.6694 20.2895C8.70525 19.4145 6.295 21.7691 5.57812 22.0806C6.58853 23.765 7.44975 24.1202 12.4979 34.1644C17.1314 43.365 21.5073 52.0555 32.6479 52.0555C42.4391 52.0555 50.4051 43.8051 50.4051 33.6647ZM32.6479 48.5555C23.9989 48.5555 20.4833 41.566 16.0309 32.718C14.5187 29.7124 12.9648 26.6219 11.0952 23.6066C11.3167 23.6169 11.5366 23.6462 11.752 23.6941C12.3725 23.8538 12.9469 24.134 13.4352 24.515C13.9234 24.896 14.3137 25.3686 14.5788 25.9L18.8975 32.4844C19.2744 33.056 19.8487 33.5 20.5321 33.7483C21.2155 33.9966 21.9703 34.0354 22.6804 33.8587C23.3906 33.682 24.0169 33.2996 24.4632 32.7703C24.9095 32.241 25.151 31.5939 25.1507 30.9286L25.1662 10.8036C25.1662 10.6661 25.2266 10.5343 25.3342 10.437C25.4417 10.3397 25.5876 10.285 25.7397 10.2847C25.8949 10.2881 26.0427 10.3451 26.1525 10.4442C26.2623 10.5432 26.3258 10.6766 26.3297 10.8167V24.4519C26.3297 25.5214 26.8001 26.5472 27.6375 27.3035C28.4748 28.0598 29.6105 28.4847 30.7947 28.4847C31.9789 28.4847 33.1146 28.0598 33.9519 27.3035C34.7892 26.5472 35.2597 25.5214 35.2597 24.4519V7.97648C35.2597 7.83724 35.3209 7.7037 35.4299 7.60525C35.5389 7.50679 35.6867 7.45148 35.8409 7.45148C35.9951 7.45148 36.1429 7.50679 36.2519 7.60525C36.3609 7.7037 36.4222 7.83724 36.4222 7.97648V25.137C36.4222 26.2063 36.8925 27.2319 37.7296 27.988C38.5668 28.7442 39.7022 29.169 40.8862 29.169C42.0701 29.169 43.2055 28.7442 44.0427 27.988C44.8798 27.2319 45.3502 26.2063 45.3502 25.137V17.9786C45.3499 17.9092 45.365 17.8405 45.3948 17.7765C45.4245 17.7125 45.4682 17.6545 45.5233 17.6061C45.5783 17.5577 45.6436 17.5198 45.7152 17.4946C45.7868 17.4695 45.8633 17.4576 45.9401 17.4597C46.0963 17.4597 46.2462 17.5158 46.3566 17.6155C46.4671 17.7153 46.5291 17.8506 46.5291 17.9917V33.6647C46.5301 41.8749 40.301 48.5555 32.6479 48.5555Z" fill="black"/>
<path d="M4.84375 39.2402H0.96875V55.125H18.5554V51.625H4.84375V39.2402Z" fill="black"/>
<path d="M57.156 51.625H43.4453V55.125H61.031V39.2402H57.156V51.625Z" fill="black"/>
<path d="M4.84375 4.375H18.5554V0.875H0.96875V16.7597H4.84375V4.375Z" fill="black"/>
<path d="M43.4453 0.875V4.375H57.156V16.7597H61.031V0.875H43.4453Z" fill="black"/>
</g>
<defs>
<clipPath id="clip0_337_2">
<rect width="62" height="56" fill="white"/>
</clipPath>
</defs>
</svg>
