<?xml version="1.0" encoding="utf-8"?>
<!-- Generator: Adobe Illustrator 27.5.0, SVG Export Plug-In . SVG Version: 6.00 Build 0)  -->
<svg version="1.1" id="Layer_1" xmlns="http://www.w3.org/2000/svg" xmlns:xlink="http://www.w3.org/1999/xlink" x="0px" y="0px"
	 viewBox="0 0 491.5 491.5" style="enable-background:new 0 0 491.5 491.5;" xml:space="preserve">
<g id="Layer_x5F_1">
	<g id="_389769424">
		<path id="_389770768" style="fill-rule:evenodd;clip-rule:evenodd;fill:#898989;" d="M149.6,375.7c-3.9,0-7.1-3.2-7.1-7.1v-43.3
			c0-3.9,3.2-7.1,7.1-7.1c64.1,0,128.2,0,192.3,0c3.9,0,7.1,3.2,7.1,7.1v43.3c0,3.9-3.2,7.1-7.1,7.1
			C284.3,375.7,212.4,375.7,149.6,375.7L149.6,375.7z"/>
		<path id="_389770696" style="fill-rule:evenodd;clip-rule:evenodd;fill:#B8B8B8;" d="M169.6,226.3h-0.2c-38.6-0.1-70-31.6-70-70.2
			c0-38.7,31.5-70.2,70.2-70.2c4.4,0,8.7,0.4,12.9,1.2c3.1-43.1,39.1-77.3,83-77.3c45.3,0,82.3,36.4,83.2,81.5
			c26,10.8,43.2,36.2,43.2,64.8c0,38.6-31.4,70.1-70,70.2h-0.2H169.6L169.6,226.3z"/>
		<path id="_389769784" style="fill-rule:evenodd;clip-rule:evenodd;fill:#C6C6C6;" d="M346.7,74.1c1.3,5.6,2.1,11.3,2.2,17.3
			c-0.8-0.3-1.6-0.6-2.4-0.8h-0.1c-5.6-1.9-11.5-2.8-17.5-2.8c-6.1,0-11.9,1-17.4,2.8C289.2,97.9,273,119,273,143.7
			c0,3.8,0.4,7.7,1.2,11.4c0.8,3.9-1.7,7.7-5.5,8.5c-3.9,0.8-7.7-1.7-8.5-5.5c-1-4.7-1.5-9.5-1.5-14.3c0-31.1,20.4-57.6,48.5-66.8
			c6.8-2.2,14.2-3.4,21.7-3.4C330.5,73.4,337.9,73.6,346.7,74.1L346.7,74.1z"/>
		<path id="_389770240" style="fill-rule:evenodd;clip-rule:evenodd;fill:#989898;" d="M419.9,332.4H71.6c-3.9,0-7.1-3.2-7.1-7.1
			v-106c0-3.9,3.2-7.1,7.1-7.1H420c3.9,0,7.1,3.2,7.1,7.1v106C427.1,329.2,423.9,332.4,419.9,332.4L419.9,332.4z"/>
		<path id="_389770480" style="fill-rule:evenodd;clip-rule:evenodd;fill:#BCBCBC;" d="M145.6,297h-35.3c-3.9,0-7.1-3.2-7.1-7.1
			v-35.3c0-3.9,3.2-7.1,7.1-7.1h35.3c3.9,0,7.1,3.2,7.1,7.1v35.3C152.8,293.8,149.6,297,145.6,297z"/>
		<path id="_389770504" style="fill-rule:evenodd;clip-rule:evenodd;fill:#FFFFFF;" d="M381.2,279.4h-199c-3.9,0-7.1-3.2-7.1-7.1
			c0-3.9,3.2-7.1,7.1-7.1h199c3.9,0,7.1,3.2,7.1,7.1C388.3,276.2,385.2,279.4,381.2,279.4z"/>
		<path id="_389770168" style="fill-rule:evenodd;clip-rule:evenodd;fill:#989898;" d="M419.9,481.7H71.6c-3.9,0-7.1-3.2-7.1-7.1
			v-106c0-3.9,3.2-7.1,7.1-7.1H420c3.9,0,7.1,3.2,7.1,7.1v106C427.1,478.5,423.9,481.7,419.9,481.7L419.9,481.7z"/>
		<path id="_389770456" style="fill-rule:evenodd;clip-rule:evenodd;fill:#BCBCBC;" d="M145.6,446.3h-35.3c-3.9,0-7.1-3.2-7.1-7.1
			v-35.3c0-3.9,3.2-7.1,7.1-7.1h35.3c3.9,0,7.1,3.2,7.1,7.1v35.3C152.8,443.1,149.6,446.3,145.6,446.3z"/>
		<path id="_389769472" style="fill-rule:evenodd;clip-rule:evenodd;fill:#FFFFFF;" d="M381.2,428.7h-199c-3.9,0-7.1-3.2-7.1-7.1
			s3.2-7.1,7.1-7.1h199c3.9,0,7.1,3.2,7.1,7.1C388.4,425.5,385.2,428.7,381.2,428.7z"/>
	</g>
</g>
</svg>
