<?xml version="1.0" encoding="utf-8"?>
<!-- Generator: Adobe Illustrator 27.5.0, SVG Export Plug-In . SVG Version: 6.00 Build 0)  -->
<svg version="1.1" id="Layer_1" xmlns="http://www.w3.org/2000/svg" xmlns:xlink="http://www.w3.org/1999/xlink" x="0px" y="0px"
	 viewBox="0 0 491.5 491.5" style="enable-background:new 0 0 491.5 491.5;" xml:space="preserve">
<g id="Layer_x5F_1">
	<g id="_389493072">
		<path id="_389495328" style="fill:#ECECEC;" d="M220.9,76L220.9,76C220.9,76,220.8,76,220.9,76c-2.6,0-4.7,2.1-4.7,4.7
			c0,0.6,0.1,1.1,0.3,1.6c-16.7,26.1-75.7,123.5-77.9,123.5c-2.6,0-4.7,2.1-4.7,4.7v220c0,8.6,3.5,16.3,9.1,22
			c5.6,5.6,13.4,9.1,22,9.1h244.2c8.6,0,16.3-3.5,22-9.1c5.6-5.6,9.1-13.4,9.1-22V107.2c0-8.6-3.5-16.3-9.1-22
			c-5.6-5.6-13.4-9.1-22-9.1L220.9,76L220.9,76z"/>
		<path id="_389494656" style="fill:#DCDCDC;" d="M220.9,76L220.9,76C220.9,76,220.8,76,220.9,76c-2.6,0-4.7,2.1-4.7,4.7
			c0,0.6,0.1,1.1,0.3,1.6c-16.7,26.1-75.7,123.5-77.9,123.5c-2.6,0-4.7,2.1-4.7,4.7v11l1.1,0.3c2.6,0.8,5.4,0.7,7.9-0.2
			c26.1-9.7,49.2-26.1,65.3-49.1c16.5-23.6,25-51.8,25-80.5c0-5.4-0.3-10.7-0.9-16H220.9L220.9,76z"/>
		<path id="_389494608" style="fill:#4D4D4D;" d="M248.3,105.6c-2.6,0-4.7,2.1-4.7,4.7c0,2.6,2.1,4.7,4.7,4.7h164
			c2.6,0,4.7-2.1,4.7-4.7c0-2.6-2.1-4.7-4.7-4.7H248.3L248.3,105.6z"/>
		<path id="_389494464" style="fill:#4D4D4D;" d="M243.1,145.3c-2.6,0-4.7,2.1-4.7,4.7s2.1,4.7,4.7,4.7h169.3c2.6,0,4.7-2.1,4.7-4.7
			s-2.1-4.7-4.7-4.7H243.1z"/>
		<path id="_389495040" style="fill:#4D4D4D;" d="M207.9,184.9c-2.6,0-4.7,2.1-4.7,4.7c0,2.6,2.1,4.7,4.7,4.7h204.5
			c2.6,0,4.7-2.1,4.7-4.7c0-2.6-2.1-4.7-4.7-4.7H207.9L207.9,184.9z"/>
		<path id="_389494536" style="fill:#4D4D4D;" d="M161.8,224.6c-2.6,0-4.7,2.1-4.7,4.7c0,2.6,2.1,4.7,4.7,4.7h250.5
			c2.6,0,4.7-2.1,4.7-4.7c0-2.6-2.1-4.7-4.7-4.7H161.8L161.8,224.6z"/>
		<path id="_389494872" style="fill:#4D4D4D;" d="M161.8,264.2c-2.6,0-4.7,2.1-4.7,4.7s2.1,4.7,4.7,4.7h250.5c2.6,0,4.7-2.1,4.7-4.7
			s-2.1-4.7-4.7-4.7H161.8L161.8,264.2z"/>
		<path id="_389494728" style="fill:#4D4D4D;" d="M161.8,303.8c-2.6,0-4.7,2.1-4.7,4.7s2.1,4.7,4.7,4.7h250.5c2.6,0,4.7-2.1,4.7-4.7
			s-2.1-4.7-4.7-4.7H161.8L161.8,303.8z"/>
		<path id="_389494944" style="fill:#4D4D4D;" d="M161.8,343.5c-2.6,0-4.7,2.1-4.7,4.7c0,2.6,2.1,4.7,4.7,4.7h250.5
			c2.6,0,4.7-2.1,4.7-4.7c0-2.6-2.1-4.7-4.7-4.7H161.8L161.8,343.5z"/>
		<path id="_389495112" style="fill:#4D4D4D;" d="M161.8,383.1c-2.6,0-4.7,2.1-4.7,4.7c0,2.6,2.1,4.7,4.7,4.7h250.5
			c2.6,0,4.7-2.1,4.7-4.7c0-2.6-2.1-4.7-4.7-4.7H161.8L161.8,383.1z"/>
		<path id="_389493792" style="fill:#4D4D4D;" d="M161.8,422.8c-2.6,0-4.7,2.1-4.7,4.7s2.1,4.7,4.7,4.7h250.5c2.6,0,4.7-2.1,4.7-4.7
			s-2.1-4.7-4.7-4.7H161.8L161.8,422.8z"/>
		<path id="_389493648" style="fill:#BCBCBC;" d="M202.2,168.5c-15.2,21.8-36.8,38.4-61.9,46.5c-1,0.4-2.1,0.5-3.2,0.1l0,0
			c-25.2-8.1-46.9-24.7-62.2-46.6C60,147.1,51.2,120.7,51.2,92.1c0-10.6,1.2-20.9,3.5-30.8c2.3-10.1,5.8-19.7,10.2-28.6
			c0,0,0-0.1,0.1-0.1c1.1-2.4,3.8-3.4,6.2-2.4l0,0c23.7,10.6,45.6,15.9,67.4,15.9s43.6-5.3,67.1-15.8c0.1,0,0.1-0.1,0.2-0.1
			c2.3-1.1,5.1-0.2,6.3,2.1l0,0c4.5,9.1,8,18.8,10.3,28.9c2.3,9.9,3.5,20.2,3.5,30.8C225.9,120.7,217.1,147.1,202.2,168.5z"/>
		<path id="_389494080" style="fill:#BFBFBF;" d="M178.1,194.4c-11.2,9.1-24,16.1-37.8,20.6c-1,0.4-2.1,0.5-3.2,0.1l0,0
			c-13.9-4.5-26.8-11.6-38.1-20.7v-42c0-5,1.4-9.7,3.9-13.8c2.6-4.1,6.2-7.5,10.6-9.7c1.3-0.7,2.9-0.2,3.7,1
			c2.6,2.9,5.9,5.2,9.5,6.9c3.6,1.6,7.6,2.5,11.8,2.5s8.2-0.9,11.8-2.5c3.7-1.7,7-4.1,9.7-7c0.8-1.1,2.3-1.4,3.6-0.8
			c4.4,2.2,8,5.6,10.6,9.7c2.5,4,3.9,8.7,3.9,13.8V194.4z"/>
		<path id="_389494200" style="fill:#D3D3D3;" d="M113.5,128.9c-0.3,0.1-0.5,0.3-0.7,0.5c-1.1,1.1-1.2,2.9-0.1,4
			c3.2,3.6,7.2,6.6,11.7,8.6c4.3,1.9,9.1,3,14.2,3c5,0,9.8-1.1,14.2-3c4.4-2,8.4-4.9,11.6-8.4c0.2-0.2,0.4-0.5,0.6-0.8
			c0.7-1.4,0.1-3.2-1.3-3.9c-1.8-0.9-3.7-1.6-5.7-2.1c-1.7-0.4-3.4-0.6-5.1-0.7v-2.5c0-1.6-1.3-2.9-2.9-2.9c-6.5,0-14.9,0-22.5,0
			c-1.6,0-2.9,1.3-2.9,2.9v2.5c-1.7,0.1-3.5,0.3-5.1,0.7C117.3,127.2,115.4,127.9,113.5,128.9L113.5,128.9z"/>
		<path id="_389493984" style="fill:#C6C6C6;" d="M158.4,126.9c-0.2,0-0.4-0.1-0.5-0.1c-1.7-0.4-3.4-0.6-5.1-0.7v-2.5
			c0-1.6-1.3-2.9-2.9-2.9c-6.5,0-14.9,0-22.5,0c-1.6,0-2.9,1.3-2.9,2.9v2.5c-1.7,0.1-3.5,0.3-5.1,0.7c-0.2,0-0.4,0.1-0.5,0.1
			c5.7,4.3,12.6,6.6,19.9,6.6C145.8,133.5,152.7,131.2,158.4,126.9L158.4,126.9z"/>
		<path id="_389493720" style="fill:#D3D3D3;" d="M138.6,58c8,0,15.2,3.3,20.4,8.5s8.5,12.5,8.5,20.4v13.2c0,8-3.3,15.2-8.5,20.4
			s-12.5,8.5-20.4,8.5c-8,0-15.2-3.3-20.4-8.5c-5.2-5.2-8.5-12.5-8.5-20.4V86.9c0-8,3.3-15.2,8.5-20.4C123.4,61.3,130.6,58,138.6,58
			L138.6,58z"/>
		<path id="_389493192" style="fill:#545454;" d="M138.6,58c8,0,15.2,3.3,20.4,8.5s8.5,12.5,8.5,20.4v4.2c-5.3,1.1-11.7,2.1-17.7,2
			c-6.8-0.1-13.4-1.4-17.9-5.2c-2.7-2.2-6-2.9-9.5-2.7c-3.8,0.2-7.9,1.4-11.4,2.8c-0.4,0.2-0.8,0.2-1.2,0.3v-1.4
			c0-8,3.3-15.2,8.5-20.4C123.4,61.3,130.6,58,138.6,58L138.6,58z"/>
		<g>
			<path id="_389493360" style="fill:#B4B4B4;" d="M124.6,210.2c-2-0.9-3.9-1.9-5.9-2.9v-35.1c0-1.6,1.3-2.9,2.9-2.9
				s2.9,1.3,2.9,2.9v38H124.6z"/>
			<path id="_389493240" style="fill:#B4B4B4;" d="M158.4,207.4c-1.9,1-3.9,2-5.9,2.9v-38c0-1.6,1.3-2.9,2.9-2.9
				c1.6,0,2.9,1.3,2.9,2.9v35.1H158.4z"/>
		</g>
	</g>
</g>
</svg>
