<?xml version="1.0" encoding="utf-8"?>
<!-- Generator: Adobe Illustrator 27.5.0, SVG Export Plug-In . SVG Version: 6.00 Build 0)  -->
<svg version="1.1" xmlns="http://www.w3.org/2000/svg" xmlns:xlink="http://www.w3.org/1999/xlink" x="0px" y="0px"
	 viewBox="0 0 2200 2200" style="enable-background:new 0 0 2200 2200;" xml:space="preserve">
<g id="background">
	<rect x="0" style="fill:#FFFFFF;" width="2200" height="2200"/>
</g>
<g id="Objects">
	<g>
		<path style="fill:#183347;" d="M1092.033,1230.765H492.864c-64.905,0-125.922-25.273-171.813-71.164
			c-45.891-45.891-71.164-106.909-71.164-171.813c0-57.268,20.303-112.874,57.169-156.576
			c36.436-43.193,86.94-72.493,142.207-82.501c6.104-1.106,10.481-6.511,10.292-12.712c-0.038-1.235-0.053-2.477-0.053-3.719
			c0-68.182,55.475-123.652,123.661-123.652c13.649,0,27.062,2.209,39.869,6.566c6.322,2.153,13.222-1.035,15.683-7.244
			c24.632-62.133,66.822-115.158,122.01-153.342c56.468-39.07,122.751-59.721,191.683-59.721
			c82.051,0,161.129,29.805,222.665,83.924c60.985,53.633,100.59,127.249,111.52,207.285c0.908,6.652,6.895,11.406,13.584,10.78
			c8.249-0.773,16.694-1.166,25.101-1.166c89.009,0,171.94,44.098,221.839,117.961c3.875,5.734,11.665,7.243,17.397,3.368
			c5.734-3.874,7.242-11.663,3.368-17.397c-54.566-80.771-145.259-128.992-242.604-128.992c-5.214,0-10.443,0.138-15.641,0.412
			c-13.861-81.485-55.472-156.067-118.015-211.07c-66.114-58.144-151.068-90.166-239.214-90.166
			c-74.05,0-145.264,22.19-205.942,64.173c-56.108,38.822-99.714,91.941-126.654,154.123c-11.93-3.026-24.212-4.554-36.648-4.554
			c-79.937,0-145.348,63.396-148.594,142.546c-56.972,12.663-108.74,43.979-146.668,88.939
			c-40.674,48.216-63.073,109.561-63.073,172.734c0,71.598,27.88,138.909,78.504,189.533
			c50.624,50.625,117.935,78.505,189.533,78.505h599.169c6.92,0,12.53-5.61,12.53-12.53
			C1104.563,1236.375,1098.953,1230.765,1092.033,1230.765z"/>
		<path style="fill:#183347;" d="M1938.993,945.821c-21.241-16.596-51.293-31.382-89.32-43.948
			c-76.62-25.319-178.247-39.262-286.162-39.262s-209.541,13.943-286.161,39.262c-38.027,12.566-68.079,27.353-89.32,43.948
			c-24.008,18.758-36.181,39.354-36.181,61.216v678.708c0,21.863,12.173,42.458,36.181,61.216
			c21.241,16.596,51.293,31.382,89.32,43.949c76.62,25.319,178.247,39.263,286.161,39.263c107.915,0,209.542-13.944,286.162-39.263
			c38.027-12.567,68.079-27.353,89.32-43.949c24.008-18.758,36.18-39.354,36.18-61.216v-678.708
			C1975.173,985.175,1963,964.579,1938.993,945.821z M1203.459,965.568c18.698-14.608,46.967-28.405,81.754-39.901
			c74.15-24.503,172.984-37.997,278.298-37.997c105.314,0,204.149,13.494,278.298,37.997c34.787,11.495,63.057,25.293,81.755,39.901
			c17.618,13.765,26.55,27.717,26.55,41.469c0,13.75-8.932,27.702-26.55,41.466c-18.698,14.608-46.967,28.406-81.755,39.902
			c-74.151,24.504-172.986,38-278.298,38c-105.311,0-204.146-13.496-278.297-38c-34.788-11.496-63.057-25.293-81.755-39.902
			c-17.618-13.764-26.55-27.716-26.55-41.466C1176.909,993.286,1185.841,979.333,1203.459,965.568z M1176.909,1284.847
			c3.373,3.263,7.074,6.479,11.121,9.64c21.241,16.595,51.293,31.382,89.32,43.948c76.62,25.319,178.246,39.263,286.161,39.263
			s209.542-13.944,286.162-39.263c38.027-12.566,68.079-27.353,89.32-43.948c4.047-3.162,7.749-6.377,11.121-9.64v174.665
			c0,13.751-8.932,27.702-26.55,41.466c-18.698,14.607-46.967,28.405-81.755,39.901c-74.151,24.505-172.987,38-278.298,38
			s-204.146-13.495-278.297-38c-34.788-11.496-63.057-25.294-81.755-39.901c-17.618-13.764-26.55-27.715-26.55-41.466V1284.847z
			 M1923.564,1274.741c-18.698,14.609-46.967,28.405-81.755,39.901c-74.149,24.503-172.984,37.997-278.298,37.997
			c-105.315,0-204.148-13.494-278.298-37.997c-34.786-11.496-63.056-25.293-81.754-39.901c-17.618-13.764-26.55-27.717-26.55-41.469
			v-174.66c3.373,3.263,7.074,6.478,11.121,9.64c21.242,16.596,51.293,31.382,89.32,43.949
			c76.622,25.321,178.249,39.266,286.161,39.266c107.913,0,209.54-13.945,286.162-39.266c38.027-12.567,68.078-27.353,89.32-43.949
			c4.047-3.162,7.749-6.377,11.121-9.64v174.66C1950.114,1247.023,1941.181,1260.976,1923.564,1274.741z M1923.564,1727.215
			c-18.698,14.608-46.967,28.406-81.755,39.901c-74.149,24.503-172.984,37.998-278.298,37.998
			c-105.313,0-204.148-13.495-278.297-37.998c-34.788-11.495-63.057-25.293-81.755-39.901c-17.618-13.764-26.55-27.717-26.55-41.469
			v-174.66c3.373,3.263,7.074,6.478,11.121,9.64c21.242,16.595,51.293,31.382,89.32,43.949
			c76.622,25.32,178.249,39.265,286.161,39.265c107.913,0,209.54-13.945,286.162-39.265c38.027-12.567,68.078-27.354,89.319-43.949
			c4.047-3.162,7.75-6.377,11.122-9.64v174.66C1950.114,1699.497,1941.181,1713.45,1923.564,1727.215z"/>
	</g>
</g>
</svg>
