<svg width="60" height="60" viewBox="0 0 60 60" fill="none" xmlns="http://www.w3.org/2000/svg">
<path d="M51.4548 19.8522V39.3977C51.4548 41.3977 53.0912 43.034 55.0912 43.034C57.0912 43.034 58.7275 41.3977 58.7275 39.3977V1.94312L55.4548 5.48857L52.273 1.94312L49.1821 5.39766L46.0912 2.03402L43.0003 5.39766L39.9094 2.03402L36.8184 5.39766L33.7275 2.03402V16.2158H47.5457C49.7275 16.2158 51.4548 17.8522 51.4548 19.8522Z" fill="#E3E3EE"/>
<path d="M55.0911 43.9432C52.5456 43.9432 50.5456 41.9432 50.5456 39.3977V19.8523C50.5456 18.3068 49.182 17.125 47.5456 17.125H33.7275C33.182 17.125 32.8184 16.7614 32.8184 16.2159V2.03409C32.8184 1.67045 33.0911 1.30682 33.3638 1.21591C33.7274 1.125 34.0911 1.21591 34.3638 1.48864L36.8184 4.125L39.2729 1.48864C39.6365 1.125 40.2729 1.125 40.6365 1.48864L43.0911 4.125L45.5456 1.48864C45.9093 1.125 46.5456 1.125 46.9093 1.48864L49.3638 4.125L51.8184 1.39773C51.7274 1.125 52.0002 1.03409 52.2729 1.03409C52.5456 1.03409 52.8184 1.125 52.9093 1.30682L55.4547 4.125L58.0911 1.30682C58.3638 1.03409 58.7274 0.943182 59.0911 1.03409C59.4547 1.125 59.6365 1.48864 59.6365 1.85227V39.3068C59.6365 41.9432 57.6365 43.9432 55.0911 43.9432ZM34.6365 15.3068H47.5456C50.182 15.3068 52.3638 17.3068 52.3638 19.8523V39.3977C52.3638 40.9432 53.5456 42.125 55.0911 42.125C56.6365 42.125 57.8184 40.9432 57.8184 39.3977V4.30682L56.0911 6.125C55.9093 6.30682 55.6365 6.48864 55.4547 6.39773C55.182 6.39773 55.0002 6.30682 54.8184 6.125L52.2729 3.30682L49.8184 6.03409C49.6365 6.21591 49.3638 6.30682 49.182 6.30682C48.9093 6.30682 48.7274 6.21591 48.5456 6.03409L46.0911 3.39773L43.6365 6.03409C43.2729 6.39773 42.6365 6.39773 42.2729 6.03409L39.9093 3.39773L37.4547 6.03409C37.2729 6.21591 37.0002 6.30682 36.8184 6.30682C36.5456 6.30682 36.3638 6.21591 36.182 6.03409L34.6365 4.39773V15.3068Z" fill="black"/>
<path d="M55.0002 44.1251H44.182C43.6366 44.1251 43.2729 43.7614 43.2729 43.216V19.7614C43.2729 17.3069 45.2729 15.3069 47.7275 15.3069C50.2729 15.3069 52.3639 17.3978 52.3639 19.9432V38.4887C52.3639 39.0342 52.0002 39.3978 51.4548 39.3978C50.9093 39.3978 50.5457 39.0342 50.5457 38.4887V19.9432C50.5457 18.3978 49.2729 17.1251 47.7275 17.1251C46.182 17.1251 45.0911 18.216 45.0911 19.7614V42.3069H55.0002C55.5457 42.3069 55.9093 42.6705 55.9093 43.216C55.9093 43.7614 55.5457 44.1251 55.0002 44.1251Z" fill="black"/>
<path d="M40.9092 59.2159C40.6365 59.2159 40.3638 59.125 40.2729 58.9432L37.7274 56.125L35.2729 58.8523C35.091 59.0341 34.8183 59.125 34.6365 59.125C34.3638 59.125 34.091 59.0341 34.0001 58.8523L31.5456 56.2159L29.091 58.8523C28.9092 59.0341 28.7274 59.125 28.4547 59.125C28.182 59.125 27.9092 59.0341 27.8183 58.8523L25.3638 56.125L22.9092 58.8523C22.7274 59.0341 22.4547 59.125 22.2729 59.125C22.0001 59.125 21.7274 59.0341 21.6365 58.8523L18.6365 55.4887C18.4547 55.3068 18.3638 55.125 18.3638 54.8523V50.6705C18.3638 50.125 18.7274 49.7614 19.2729 49.7614C19.8183 49.7614 20.182 50.125 20.182 50.6705V54.4887L22.2729 56.8523L24.7274 54.125C25.091 53.7614 25.7274 53.7614 26.091 54.125L28.5456 56.8523L31.0001 54.2159C31.3638 53.8523 32.0001 53.8523 32.3638 54.2159L34.8183 56.8523L37.2729 54.125C37.4547 53.9432 37.7274 53.8523 37.9092 53.8523C38.182 53.8523 38.4547 53.9432 38.5456 54.125L41.091 56.9432L43.3638 54.3978V20.7614C43.3638 20.2159 43.7274 19.8523 44.2729 19.8523C44.8183 19.8523 45.182 20.2159 45.182 20.7614V54.7614C45.182 54.9432 45.091 55.2159 44.9092 55.3977L41.7274 58.9432C41.4547 59.125 41.182 59.2159 40.9092 59.2159Z" fill="black"/>
<path d="M19.2729 47.1251C18.7274 47.1251 18.3638 46.7614 18.3638 46.216V18.7614C18.3638 16.8523 19.9092 15.3069 21.8183 15.3069H47.9092C48.4547 15.3069 48.8183 15.6705 48.8183 16.216C48.8183 16.7614 48.4547 17.1251 47.9092 17.1251H21.8183C20.9092 17.1251 20.182 17.8523 20.182 18.7614V46.216C20.182 46.7614 19.8183 47.1251 19.2729 47.1251Z" fill="black"/>
<path d="M31.7273 27.3977C29.6364 27.3977 28 25.7613 28 23.6704C28 21.5795 29.6364 19.9431 31.7273 19.9431C33.8182 19.9431 35.4545 21.5795 35.4545 23.6704C35.4545 24.2158 35.0909 24.5795 34.5455 24.5795C34 24.5795 33.6364 24.2158 33.6364 23.6704C33.6364 22.6704 32.7273 21.7613 31.7273 21.7613C30.7273 21.7613 29.8182 22.6704 29.8182 23.6704C29.8182 24.6704 30.7273 25.5795 31.7273 25.5795C32.2727 25.5795 32.6364 25.9431 32.6364 26.4886C32.6364 27.034 32.2727 27.3977 31.7273 27.3977Z" fill="black"/>
<path d="M31.7273 32.9431C29.6364 32.9431 28 31.3067 28 29.2158C28 28.6703 28.3636 28.3067 28.9091 28.3067C29.4545 28.3067 29.8182 28.6703 29.8182 29.2158C29.8182 30.2158 30.7273 31.1249 31.7273 31.1249C32.7273 31.1249 33.6364 30.2158 33.6364 29.2158C33.6364 28.2158 32.7273 27.3067 31.7273 27.3067C31.1818 27.3067 30.8182 26.9431 30.8182 26.3976C30.8182 25.8522 31.1818 25.4885 31.7273 25.4885C33.8182 25.4885 35.4545 27.1249 35.4545 29.2158C35.4545 31.3067 33.8182 32.9431 31.7273 32.9431Z" fill="black"/>
<path d="M31.7275 21.8522C31.182 21.8522 30.8184 21.4886 30.8184 20.9431V19.5795C30.8184 19.034 31.182 18.6704 31.7275 18.6704C32.2729 18.6704 32.6365 19.034 32.6365 19.5795V20.9431C32.6365 21.4886 32.2729 21.8522 31.7275 21.8522Z" fill="black"/>
<path d="M31.7275 34.3068C31.182 34.3068 30.8184 33.9432 30.8184 33.3977V32.0341C30.8184 31.4886 31.182 31.125 31.7275 31.125C32.2729 31.125 32.6365 31.4886 32.6365 32.0341V33.3977C32.6365 33.9432 32.2729 34.3068 31.7275 34.3068Z" fill="black"/>
<path d="M36.8182 52.034L13.3637 51.3977C12.8182 51.3977 12.4546 50.9431 12.4546 50.4886C12.4546 49.9431 12.9091 49.5795 13.3637 49.5795L36.8182 50.2158C37.9091 50.2158 38.7273 49.3977 38.7273 48.3977C38.7273 47.8522 38.5455 47.3977 38.1819 47.034C37.8182 46.6704 37.3637 46.5795 36.9091 46.5795L13.4546 47.2158C13 47.2158 12.5455 46.8522 12.5455 46.3067C12.5455 45.7613 12.9091 45.3977 13.4546 45.3977L36.9091 44.7613C37.8182 44.6704 38.8182 45.034 39.5455 45.7613C40.2728 46.4886 40.7273 47.3977 40.7273 48.3977C40.5455 50.3977 38.9091 52.034 36.8182 52.034Z" fill="black"/>
<path d="M13.3638 42.6707C13.0002 46.5797 13.0002 50.3979 13.3638 54.307H4.81836C5.2729 50.3979 5.2729 46.5797 4.81836 42.6707H13.3638Z" fill="#E3E3EE"/>
<path d="M13.3637 55.216H4.8182C4.54547 55.216 4.27275 55.1251 4.18184 54.9433C4.00002 54.7615 3.90911 54.4887 4.00002 54.216C4.45457 50.3978 4.45457 46.6706 4.00002 42.7615C4.00002 42.4887 4.09093 42.216 4.18184 42.0342C4.36366 41.8524 4.63638 41.7615 4.8182 41.7615H13.3637C13.6364 41.7615 13.8182 41.8524 14 42.0342C14.1818 42.216 14.2727 42.4887 14.2727 42.7615C13.9091 46.5797 13.9091 50.3978 14.2727 54.216C14.2727 54.4887 14.1818 54.7615 14 54.9433C13.8182 55.1251 13.6364 55.216 13.3637 55.216ZM5.8182 53.3978H12.3637C12.0909 50.1251 12.0909 46.8524 12.3637 43.5797H5.8182C6.18184 46.8524 6.18184 50.1251 5.8182 53.3978Z" fill="black"/>
<path d="M15.2728 56.216C15.2728 55.1251 14.3637 54.3069 13.3637 54.3069H4.81827C3.72736 54.3069 2.90918 55.216 2.90918 56.216C2.90918 57.3069 3.81827 58.1251 4.81827 58.1251H13.2728C14.3637 58.1251 15.2728 57.3069 15.2728 56.216Z" fill="#E90022"/>
<path d="M13.2727 59.0341H4.81818C3.27273 59.0341 2 57.7613 2 56.2159C2 54.6704 3.27273 53.3977 4.81818 53.3977H13.3636C14.9091 53.3977 16.1818 54.6704 16.1818 56.2159C16.1818 57.7613 14.9091 59.0341 13.2727 59.0341ZM4.81818 55.2159C4.18182 55.2159 3.81818 55.7613 3.81818 56.2159C3.81818 56.8523 4.36364 57.2159 4.81818 57.2159H13.2727C13.9091 57.2159 14.3636 56.7613 14.3636 56.2159C14.3636 55.5795 13.8182 55.2159 13.3636 55.2159H4.81818Z" fill="black"/>
<path d="M15.2728 40.6706C15.2728 39.5797 14.3637 38.7615 13.3637 38.7615H4.81827C3.72736 38.7615 2.90918 39.6706 2.90918 40.6706C2.90918 41.7615 3.81827 42.5797 4.81827 42.5797H13.2728C14.3637 42.6706 15.2728 41.7615 15.2728 40.6706Z" fill="#E90022"/>
<path d="M13.4545 43.4887C13.3636 43.4887 13.2727 43.4887 13.1818 43.4887H4.81818C3.27273 43.4887 2 42.2159 2 40.6705C2 39.125 3.27273 37.8523 4.81818 37.8523H13.3636C14.9091 37.8523 16.1818 39.125 16.1818 40.6705C16.1818 41.4887 15.8182 42.2159 15.2727 42.7614C14.7273 43.2159 14.0909 43.4887 13.4545 43.4887ZM4.81818 39.6705C4.18182 39.6705 3.81818 40.2159 3.81818 40.6705C3.81818 41.3068 4.36364 41.6705 4.81818 41.6705H13.2727C13.6364 41.6705 13.8182 41.5796 14 41.3978C14.1818 41.2159 14.3636 40.9432 14.3636 40.6705C14.3636 40.0341 13.8182 39.6705 13.3636 39.6705H4.81818Z" fill="black"/>
<path d="M38.6361 37.9432H24.6361C24.0907 37.9432 23.7271 37.5795 23.7271 37.0341C23.7271 36.4886 24.0907 36.125 24.6361 36.125H38.6361C39.1816 36.125 39.5452 36.4886 39.5452 37.0341C39.5452 37.5795 39.1816 37.9432 38.6361 37.9432Z" fill="black"/>
<path d="M31.727 41.6705H24.6361C24.0907 41.6705 23.7271 41.3068 23.7271 40.7614C23.7271 40.2159 24.0907 39.8523 24.6361 39.8523H31.727C32.2725 39.8523 32.6361 40.2159 32.6361 40.7614C32.6361 41.3068 32.2725 41.6705 31.727 41.6705Z" fill="black"/>
<path d="M12.6367 26.7614C17.8583 26.7614 22.0912 22.5284 22.0912 17.3068C22.0912 12.0852 17.8583 7.85229 12.6367 7.85229C7.41507 7.85229 3.18213 12.0852 3.18213 17.3068C3.18213 22.5284 7.41507 26.7614 12.6367 26.7614Z" fill="#E90022"/>
<path d="M12.6366 27.6704C6.90931 27.6704 2.27295 23.034 2.27295 17.3068C2.27295 11.5795 6.90931 6.94312 12.6366 6.94312C18.3639 6.94312 23.0002 11.5795 23.0002 17.3068C23.0002 23.034 18.3639 27.6704 12.6366 27.6704ZM12.6366 8.7613C7.90931 8.7613 4.09113 12.5795 4.09113 17.3068C4.09113 22.034 7.90931 25.8522 12.6366 25.8522C17.3639 25.8522 21.182 22.034 21.182 17.3068C21.182 12.5795 17.3639 8.7613 12.6366 8.7613Z" fill="black"/>
<path d="M12.6366 18.2158C10.8184 18.2158 9.27295 16.6703 9.27295 14.8522C9.27295 13.034 10.8184 11.4885 12.6366 11.4885C14.4548 11.4885 16.0002 13.034 16.0002 14.8522C16.0002 15.3976 15.6366 15.7613 15.0911 15.7613C14.5457 15.7613 14.182 15.3976 14.182 14.8522C14.182 13.9431 13.5457 13.3067 12.6366 13.3067C11.7275 13.3067 11.0911 13.9431 11.0911 14.8522C11.0911 15.7613 11.7275 16.3976 12.6366 16.3976C13.182 16.3976 13.5457 16.7613 13.5457 17.3067C13.5457 17.8522 13.182 18.2158 12.6366 18.2158Z" fill="white"/>
<path d="M12.6366 23.125C10.8184 23.125 9.27295 21.5795 9.27295 19.7613C9.27295 19.2159 9.63659 18.8523 10.182 18.8523C10.7275 18.8523 11.0911 19.2159 11.0911 19.7613C11.0911 20.6704 11.7275 21.3068 12.6366 21.3068C13.5457 21.3068 14.182 20.6704 14.182 19.7613C14.182 18.8523 13.5457 18.2159 12.6366 18.2159C12.0911 18.2159 11.7275 17.8523 11.7275 17.3068C11.7275 16.7613 12.0911 16.3977 12.6366 16.3977C14.4548 16.3977 16.0002 17.9432 16.0002 19.7613C16.0002 21.5795 14.4548 23.125 12.6366 23.125Z" fill="white"/>
<path d="M12.6366 13.3068C12.0912 13.3068 11.7275 12.9432 11.7275 12.3977V11.3068C11.7275 10.7613 12.0912 10.3977 12.6366 10.3977C13.1821 10.3977 13.5457 10.7613 13.5457 11.3068V12.3977C13.5457 12.9432 13.1821 13.3068 12.6366 13.3068Z" fill="white"/>
<path d="M12.6366 24.216C12.0912 24.216 11.7275 23.8523 11.7275 23.3069V22.216C11.7275 21.6705 12.0912 21.3069 12.6366 21.3069C13.1821 21.3069 13.5457 21.6705 13.5457 22.216V23.3069C13.5457 23.8523 13.1821 24.216 12.6366 24.216Z" fill="white"/>
<path d="M5.81827 7.57957C5.27282 7.57957 4.90918 7.21593 4.90918 6.67048V3.76139C4.90918 3.21593 5.27282 2.85229 5.81827 2.85229C6.36373 2.85229 6.72736 3.21593 6.72736 3.76139V6.67048C6.72736 7.21593 6.36373 7.57957 5.81827 7.57957Z" fill="black"/>
<path d="M12.6361 5.76145C12.0907 5.76145 11.7271 5.39782 11.7271 4.85236V1.94327C11.7271 1.39782 12.0907 1.03418 12.6361 1.03418C13.1816 1.03418 13.5452 1.39782 13.5452 1.94327V4.85236C13.5452 5.39782 13.1816 5.76145 12.6361 5.76145Z" fill="black"/>
<path d="M19.5453 7.57957C18.9999 7.57957 18.6362 7.21593 18.6362 6.67048V3.76139C18.6362 3.21593 18.9999 2.85229 19.5453 2.85229C20.0908 2.85229 20.4544 3.21593 20.4544 3.76139V6.67048C20.4544 7.21593 20.0908 7.57957 19.5453 7.57957Z" fill="black"/>
</svg>
