<svg width="60" height="60" viewBox="0 0 60 60" fill="none" xmlns="http://www.w3.org/2000/svg">
<path d="M3.44434 55.5583C3.50504 55.5721 3.59246 55.5839 3.70953 55.5839H30.307C30.4241 55.5839 30.5115 55.5721 30.5723 55.5583C30.5538 55.4991 30.5202 55.4175 30.4618 55.3164L17.1628 32.2821C17.1043 32.1807 17.0503 32.1109 17.0082 32.0652C16.966 32.1109 16.9119 32.1807 16.8533 32.2822L3.55496 55.3161C3.49637 55.4175 3.46273 55.4991 3.44434 55.5583ZM15.2748 38.6115C15.2748 37.6557 16.0524 36.8781 17.0082 36.8781C17.964 36.8781 18.7416 37.6557 18.7416 38.6115V47.227C18.7416 48.1828 17.964 48.9605 17.0082 48.9605C16.0524 48.9605 15.2748 48.1829 15.2748 47.227V38.6115ZM15.2748 51.7982C15.2748 50.8424 16.0524 50.0647 17.0082 50.0647C17.964 50.0647 18.7416 50.8423 18.7416 51.7982V52.5491C18.7416 53.5049 17.964 54.2825 17.0082 54.2825C16.0524 54.2825 15.2748 53.505 15.2748 52.5491V51.7982Z" fill="#E90022"/>
<path d="M3.70956 57.3924H30.307C31.1714 57.3924 31.8569 57.0638 32.1878 56.491C32.5182 55.9182 32.46 55.1603 32.0278 54.4118L18.7294 31.378C18.2972 30.6295 17.6699 30.2002 17.0082 30.2002C16.3466 30.2002 15.7194 30.6296 15.2871 31.378L1.98866 54.4118C1.55671 55.1605 1.49858 55.9183 1.8294 56.4909C2.1601 57.0638 2.8453 57.3924 3.70956 57.3924ZM17.0083 31.0711C17.3504 31.0711 17.7027 31.3417 17.9749 31.8135L31.2735 54.8474C31.5459 55.3186 31.6043 55.759 31.4333 56.0554C31.2621 56.3516 30.8517 56.5214 30.307 56.5214H3.70956C3.16464 56.5214 2.75425 56.3514 2.58339 56.0552C2.41253 55.76 2.47042 55.3195 2.74311 54.8474L16.0414 31.8135C16.314 31.3417 16.6664 31.0711 17.0083 31.0711Z" fill="#E3E3EE"/>
<path d="M17.0079 48.0228C17.4466 48.0228 17.8038 47.6657 17.8038 47.2269V38.6114C17.8038 38.1725 17.4466 37.8154 17.0079 37.8154C16.569 37.8154 16.2119 38.1725 16.2119 38.6114V47.2269C16.2119 47.6657 16.569 48.0228 17.0079 48.0228Z" fill="#E3E3EE"/>
<path d="M17.0079 53.345C17.4466 53.345 17.8038 52.9879 17.8038 52.5491V51.7981C17.8038 51.3593 17.4466 51.0022 17.0079 51.0022C16.569 51.0022 16.2119 51.3593 16.2119 51.7981V52.5491C16.2119 52.9881 16.569 53.345 17.0079 53.345Z" fill="#E3E3EE"/>
<path d="M57.9492 12.4023H44.8535C44.9339 12.7608 44.9776 13.1329 44.9776 13.5153C44.9776 13.8975 44.9339 14.2697 44.8535 14.6281H57.9492C58.5628 14.6281 59.062 14.1289 59.062 13.5153C59.062 12.9017 58.5628 12.4023 57.9492 12.4023Z" fill="#E3E3EE"/>
<path d="M34.9198 14.6281C34.8394 14.2696 34.7957 13.8975 34.7957 13.5153C34.7957 13.1329 34.8394 12.7608 34.9198 12.4023H2.05031C1.43672 12.4023 0.9375 12.9016 0.9375 13.5153C0.9375 14.129 1.43672 14.6281 2.05031 14.6281H34.9198Z" fill="#E3E3EE"/>
<path d="M17.3174 5.64868C17.3978 6.00716 17.4414 6.37923 17.4414 6.76149C17.4414 7.14376 17.3978 7.51595 17.3174 7.87431H57.9498C58.5634 7.87431 59.0626 7.37509 59.0626 6.76149C59.0626 6.1479 58.5634 5.64868 57.9498 5.64868H17.3174Z" fill="#E3E3EE"/>
<path d="M7.38281 7.87431C7.30242 7.51583 7.25883 7.14376 7.25883 6.76149C7.25883 6.37923 7.30242 6.00716 7.38281 5.64868H2.05031C1.43672 5.64868 0.9375 6.1479 0.9375 6.76149C0.9375 7.37509 1.43672 7.87431 2.05031 7.87431H7.38281Z" fill="#E3E3EE"/>
<path d="M44.0406 13.5152C44.0406 11.2249 42.1773 9.36157 39.8871 9.36157C37.5967 9.36157 35.7334 11.2249 35.7334 13.5152C35.7334 14.6233 36.1704 15.6306 36.8801 16.3762V14.3798C36.8801 12.5515 38.2453 11.0642 39.9238 11.0642C41.6024 11.0642 42.9681 12.5515 42.9681 14.3798V16.2978C43.6341 15.5607 44.0406 14.5846 44.0406 13.5152Z" fill="#E90022"/>
<path d="M12.3499 10.9151C14.6402 10.9151 16.5035 9.05182 16.5035 6.7615C16.5035 4.47119 14.6402 2.60791 12.3499 2.60791C10.0596 2.60791 8.19629 4.47119 8.19629 6.7615C8.19629 9.05182 10.0596 10.9151 12.3499 10.9151Z" fill="#E90022"/>
<path d="M42.0306 14.3798C42.0306 13.0685 41.0854 12.0017 39.9238 12.0017C38.7624 12.0017 37.8176 13.0686 37.8176 14.3798V31.1816V35.2276C37.8176 35.4864 37.6077 35.6963 37.3488 35.6963C37.0899 35.6963 36.8801 35.4864 36.8801 35.2276V31.7567C36.1133 31.9606 34.6964 32.5105 33.9929 33.8858C33.0338 35.7598 33.4056 38.4161 33.4296 38.5784C34.1345 42.1166 37.7247 42.2958 38.4378 42.2958C38.4709 42.2958 38.4902 42.2954 38.494 42.2953C38.6208 42.2914 38.7444 42.3387 38.8356 42.427C38.9267 42.5152 38.9788 42.6367 38.9788 42.7638V48.5588H52.6215V42.7638C52.6215 42.5469 52.7703 42.3583 52.9812 42.3079C52.9898 42.3057 54.1113 42.0127 55.216 40.7492C56.6978 39.0549 57.4808 36.3909 57.4808 33.0451V27.8234C57.4808 26.5092 56.5359 25.44 55.3745 25.44C54.213 25.44 53.2681 26.5092 53.2681 27.8234C53.2681 28.0823 53.0583 28.2922 52.7994 28.2922C52.5405 28.2922 52.3306 28.0823 52.3306 27.8234V25.915C52.3306 24.6008 51.3856 23.5317 50.224 23.5317C49.0623 23.5317 48.1176 24.6009 48.1176 25.915C48.1176 26.1739 47.9076 26.3838 47.6489 26.3838C47.39 26.3838 47.1801 26.1739 47.1801 25.915V24.3835C47.1801 23.0692 46.2354 22 45.0742 22C43.9125 22 42.9675 23.0692 42.9675 24.3835C42.9675 24.6424 42.7575 24.8523 42.4987 24.8523C42.2399 24.8523 42.03 24.6424 42.03 24.3835V14.3798H42.0306Z" fill="#E3E3EE"/>
<path d="M36.692 49.4963C36.0783 49.4963 35.5791 49.9956 35.5791 50.6093V56.2795C35.5791 56.8931 36.0783 57.3923 36.692 57.3923H54.9086C55.5222 57.3923 56.0214 56.8931 56.0214 56.2795V50.6093C56.0214 49.9957 55.5222 49.4963 54.9086 49.4963H36.692ZM39.8871 55.9163C38.524 55.9163 37.415 54.8074 37.415 53.4443C37.415 52.0811 38.524 50.9722 39.8871 50.9722C41.2504 50.9722 42.3592 52.0811 42.3592 53.4443C42.3592 54.8074 41.2504 55.9163 39.8871 55.9163Z" fill="#E90022"/>
<path d="M39.8872 51.9097C39.041 51.9097 38.3525 52.5981 38.3525 53.4442C38.3525 54.2904 39.041 54.9788 39.8872 54.9788C40.7334 54.9788 41.4218 54.2903 41.4218 53.4442C41.4218 52.5981 40.7334 51.9097 39.8872 51.9097Z" fill="#E3E3EE"/>
<mask id="path-14-inside-1_28_99" fill="white">
<path d="M3.70915 58.3296H30.3066C31.5151 58.3296 32.4964 57.8302 32.9992 56.9595C33.5017 56.0887 33.4435 54.9892 32.8393 53.943L19.541 30.9091C18.9367 29.8626 18.0134 29.2625 17.0079 29.2625C16.0025 29.2625 15.0792 29.8626 14.4751 30.9091L1.17638 53.943C0.572395 54.9897 0.514388 56.0891 1.01712 56.9595C1.51974 57.8302 2.50095 58.3296 3.70915 58.3296ZM1.98825 54.4116L15.2868 31.3777C15.719 30.6292 16.3463 30.1998 17.0079 30.1998C17.6696 30.1998 18.2968 30.6292 18.7291 31.3777L32.0274 54.4116C32.4596 55.1601 32.5179 55.9179 32.1874 56.4907C31.8565 57.0635 31.171 57.3921 30.3066 57.3921H3.70915C2.8449 57.3921 2.15958 57.0635 1.82888 56.4906C1.49818 55.918 1.5563 55.1603 1.98825 54.4116Z"/>
</mask>
<path d="M3.70915 58.3296H30.3066C31.5151 58.3296 32.4964 57.8302 32.9992 56.9595C33.5017 56.0887 33.4435 54.9892 32.8393 53.943L19.541 30.9091C18.9367 29.8626 18.0134 29.2625 17.0079 29.2625C16.0025 29.2625 15.0792 29.8626 14.4751 30.9091L1.17638 53.943C0.572395 54.9897 0.514388 56.0891 1.01712 56.9595C1.51974 57.8302 2.50095 58.3296 3.70915 58.3296ZM1.98825 54.4116L15.2868 31.3777C15.719 30.6292 16.3463 30.1998 17.0079 30.1998C17.6696 30.1998 18.2968 30.6292 18.7291 31.3777L32.0274 54.4116C32.4596 55.1601 32.5179 55.9179 32.1874 56.4907C31.8565 57.0635 31.171 57.3921 30.3066 57.3921H3.70915C2.8449 57.3921 2.15958 57.0635 1.82888 56.4906C1.49818 55.918 1.5563 55.1603 1.98825 54.4116Z" fill="#E90022"/>
<path d="M32.9992 56.9595L33.8652 57.4596L33.8654 57.4593L32.9992 56.9595ZM32.8393 53.943L31.9732 54.4429L31.9733 54.4431L32.8393 53.943ZM19.541 30.9091L20.407 30.4091L20.407 30.409L19.541 30.9091ZM14.4751 30.9091L15.3411 31.4091L15.3411 31.409L14.4751 30.9091ZM1.17638 53.943L0.310355 53.443L0.310233 53.4432L1.17638 53.943ZM1.01712 56.9595L1.88318 56.4595L1.88305 56.4593L1.01712 56.9595ZM1.98825 54.4116L1.12223 53.9116L1.12207 53.9119L1.98825 54.4116ZM15.2868 31.3777L14.4208 30.8776L14.4208 30.8777L15.2868 31.3777ZM18.7291 31.3777L19.5951 30.8777L19.595 30.8775L18.7291 31.3777ZM32.0274 54.4116L31.1614 54.9116L31.1614 54.9116L32.0274 54.4116ZM32.1874 56.4907L33.0533 56.9909L33.0535 56.9906L32.1874 56.4907ZM1.82888 56.4906L2.69496 55.9907L2.69482 55.9905L1.82888 56.4906ZM3.70915 59.3296H30.3066V57.3296H3.70915V59.3296ZM30.3066 59.3296C31.7873 59.3296 33.1449 58.7068 33.8652 57.4596L32.1333 56.4594C31.8478 56.9536 31.2428 57.3296 30.3066 57.3296V59.3296ZM33.8654 57.4593C34.5852 56.2119 34.4456 54.7249 33.7052 53.4429L31.9733 54.4431C32.4414 55.2535 32.4183 55.9654 32.1331 56.4597L33.8654 57.4593ZM33.7053 53.443L20.407 30.4091L18.6749 31.409L31.9732 54.4429L33.7053 53.443ZM20.407 30.409C19.6666 29.1268 18.4482 28.2625 17.0079 28.2625V30.2625C17.5786 30.2625 18.2069 30.5984 18.6749 31.4091L20.407 30.409ZM17.0079 28.2625C15.5677 28.2625 14.3493 29.1268 13.609 30.4091L15.3411 31.409C15.8091 30.5984 16.4373 30.2625 17.0079 30.2625V28.2625ZM13.609 30.4091L0.310355 53.443L2.0424 54.443L15.3411 31.4091L13.609 30.4091ZM0.310233 53.4432C-0.429701 54.7255 -0.569118 56.2126 0.151198 57.4597L1.88305 56.4593C1.59789 55.9656 1.57449 55.2539 2.04253 54.4427L0.310233 53.4432ZM0.151061 57.4594C0.871085 58.7067 2.22868 59.3296 3.70915 59.3296V57.3296C2.77322 57.3296 2.16839 56.9536 1.88318 56.4595L0.151061 57.4594ZM2.85428 54.9116L16.1528 31.8777L14.4208 30.8777L1.12223 53.9116L2.85428 54.9116ZM16.1528 31.8777C16.4692 31.3298 16.8135 31.1998 17.0079 31.1998V29.1998C15.8791 29.1998 14.9688 29.9286 14.4208 30.8776L16.1528 31.8777ZM17.0079 31.1998C17.2023 31.1998 17.5466 31.3298 17.8631 31.8778L19.595 30.8775C19.047 29.9286 18.1369 29.1998 17.0079 29.1998V31.1998ZM17.863 31.8777L31.1614 54.9116L32.8934 53.9116L19.5951 30.8777L17.863 31.8777ZM31.1614 54.9116C31.4779 55.4597 31.4182 55.8228 31.3212 55.9909L33.0535 56.9906C33.6177 56.013 33.4413 54.8604 32.8934 53.9115L31.1614 54.9116ZM31.3214 55.9906C31.2242 56.1589 30.9394 56.3921 30.3066 56.3921V58.3921C31.4026 58.3921 32.4888 57.9682 33.0533 56.9909L31.3214 55.9906ZM30.3066 56.3921H3.70915V58.3921H30.3066V56.3921ZM3.70915 56.3921C3.07663 56.3921 2.79207 56.159 2.69496 55.9907L0.962803 56.9905C1.52709 57.9681 2.61316 58.3921 3.70915 58.3921V56.3921ZM2.69482 55.9905C2.5979 55.8227 2.53807 55.4597 2.85444 54.9113L1.12207 53.9119C0.574534 54.8609 0.398457 56.0134 0.962936 56.9908L2.69482 55.9905Z" fill="black" mask="url(#path-14-inside-1_28_99)"/>
<mask id="path-16-inside-2_28_99" fill="white">
<path d="M2.74348 54.847C2.47079 55.319 2.4129 55.7596 2.58376 56.0547C2.75462 56.3511 3.16501 56.521 3.70993 56.521H30.3074C30.8521 56.521 31.2625 56.3512 31.4337 56.0549C31.6047 55.7586 31.5463 55.3182 31.2738 54.847L17.9753 31.8132C17.7031 31.3414 17.3508 31.0708 17.0087 31.0708C16.6668 31.0708 16.3144 31.3414 16.0419 31.8131L2.74348 54.847ZM17.0087 32.0649C17.0508 32.1106 17.1048 32.1804 17.1633 32.2818L30.4621 55.3161C30.5204 55.4172 30.5541 55.4988 30.5726 55.5581C30.5118 55.5718 30.4243 55.5836 30.3073 55.5836H3.70993C3.59286 55.5836 3.50544 55.5718 3.44473 55.5581C3.46313 55.4988 3.49677 55.4171 3.55536 55.3158L16.8537 32.2819C16.9123 32.1804 16.9664 32.1106 17.0087 32.0649Z"/>
</mask>
<path d="M2.74348 54.847C2.47079 55.319 2.4129 55.7596 2.58376 56.0547C2.75462 56.3511 3.16501 56.521 3.70993 56.521H30.3074C30.8521 56.521 31.2625 56.3512 31.4337 56.0549C31.6047 55.7586 31.5463 55.3182 31.2738 54.847L17.9753 31.8132C17.7031 31.3414 17.3508 31.0708 17.0087 31.0708C16.6668 31.0708 16.3144 31.3414 16.0419 31.8131L2.74348 54.847ZM17.0087 32.0649C17.0508 32.1106 17.1048 32.1804 17.1633 32.2818L30.4621 55.3161C30.5204 55.4172 30.5541 55.4988 30.5726 55.5581C30.5118 55.5718 30.4243 55.5836 30.3073 55.5836H3.70993C3.59286 55.5836 3.50544 55.5718 3.44473 55.5581C3.46313 55.4988 3.49677 55.4171 3.55536 55.3158L16.8537 32.2819C16.9123 32.1804 16.9664 32.1106 17.0087 32.0649Z" fill="#E90022"/>
<path d="M2.74348 54.847L3.60938 55.3472L3.60951 55.347L2.74348 54.847ZM2.58376 56.0547L3.4501 55.5552L3.44915 55.5536L2.58376 56.0547ZM31.4337 56.0549L32.2995 56.5553L32.2999 56.5547L31.4337 56.0549ZM31.2738 54.847L30.4078 55.347L30.4081 55.3475L31.2738 54.847ZM17.9753 31.8132L17.1091 32.313L17.1093 32.3132L17.9753 31.8132ZM16.0419 31.8131L15.176 31.3129L15.1759 31.3131L16.0419 31.8131ZM17.0087 32.0649L17.7445 31.3876L17.0108 30.5906L16.2749 31.3856L17.0087 32.0649ZM17.1633 32.2818L16.2971 32.7815L16.2973 32.7818L17.1633 32.2818ZM30.4621 55.3161L31.3282 54.8163L31.3281 54.8161L30.4621 55.3161ZM30.5726 55.5581L30.7925 56.5336L31.8503 56.2951L31.5271 55.26L30.5726 55.5581ZM3.44473 55.5581L2.48965 55.2617L2.16902 56.2951L3.22442 56.5335L3.44473 55.5581ZM3.55536 55.3158L4.42088 55.8167L4.42139 55.8158L3.55536 55.3158ZM16.8537 32.2819L15.9877 31.7819L15.9876 31.7819L16.8537 32.2819ZM1.87759 54.3467C1.53868 54.9334 1.27838 55.7959 1.71836 56.5558L3.44915 55.5536C3.50032 55.642 3.48275 55.6931 3.48869 55.6481C3.4948 55.6018 3.52191 55.4986 3.60938 55.3472L1.87759 54.3467ZM1.71742 56.5542C2.1561 57.3151 3.03217 57.521 3.70993 57.521V55.521C3.535 55.521 3.4322 55.4929 3.38912 55.4751C3.34753 55.4578 3.39981 55.468 3.4501 55.5552L1.71742 56.5542ZM3.70993 57.521H30.3074V55.521H3.70993V57.521ZM30.3074 57.521C30.9852 57.521 31.8604 57.3151 32.2995 56.5553L30.5679 55.5546C30.618 55.4678 30.67 55.4578 30.6282 55.475C30.585 55.4929 30.4822 55.521 30.3074 55.521V57.521ZM32.2999 56.5547C32.7386 55.7942 32.4787 54.9329 32.1395 54.3464L30.4081 55.3475C30.4955 55.4986 30.5226 55.6015 30.5287 55.6478C30.5346 55.6925 30.5173 55.6423 30.5675 55.5552L32.2999 56.5547ZM32.1399 54.347L18.8413 31.3132L17.1093 32.3132L30.4078 55.347L32.1399 54.347ZM18.8414 31.3134C18.5028 30.7265 17.8867 30.0708 17.0087 30.0708V32.0708C16.9081 32.0708 16.8733 32.0307 16.9091 32.0581C16.9461 32.0866 17.0218 32.1616 17.1091 32.313L18.8414 31.3134ZM17.0087 30.0708C16.131 30.0708 15.5148 30.7263 15.176 31.3129L16.9078 32.3133C16.9953 32.1618 17.0711 32.0868 17.1083 32.0582C17.1442 32.0306 17.1094 32.0708 17.0087 32.0708V30.0708ZM15.1759 31.3131L1.87746 54.347L3.60951 55.347L16.9079 32.3131L15.1759 31.3131ZM16.273 32.7422C16.2609 32.7291 16.2722 32.7383 16.2971 32.7815L18.0295 31.7821C17.9374 31.6226 17.8406 31.4921 17.7445 31.3876L16.273 32.7422ZM16.2973 32.7818L29.5961 55.8161L31.3281 54.8161L18.0293 31.7818L16.2973 32.7818ZM29.5959 55.8159C29.6217 55.8605 29.6238 55.8747 29.618 55.8561L31.5271 55.26C31.4843 55.1228 31.4192 54.9739 31.3282 54.8163L29.5959 55.8159ZM30.3527 54.5825C30.3708 54.5785 30.3576 54.5836 30.3073 54.5836V56.5836C30.4911 56.5836 30.6528 56.5651 30.7925 56.5336L30.3527 54.5825ZM30.3073 54.5836H3.70993V56.5836H30.3073V54.5836ZM3.70993 54.5836C3.65951 54.5836 3.64651 54.5784 3.66505 54.5826L3.22442 56.5335C3.36436 56.5651 3.52621 56.5836 3.70993 56.5836V54.5836ZM4.39982 55.8544C4.39367 55.8742 4.39535 55.8608 4.42088 55.8167L2.68984 54.815C2.59818 54.9734 2.5326 55.1233 2.48965 55.2617L4.39982 55.8544ZM4.42139 55.8158L17.7197 32.7819L15.9876 31.7819L2.68933 54.8158L4.42139 55.8158ZM17.7197 32.7819C17.7446 32.7388 17.7555 32.7303 17.7426 32.7442L16.2749 31.3856C16.1774 31.4909 16.0799 31.6221 15.9877 31.7819L17.7197 32.7819Z" fill="black" mask="url(#path-16-inside-2_28_99)"/>
<mask id="path-18-inside-3_28_99" fill="white">
<path d="M17.0079 48.9601C17.9636 48.9601 18.7413 48.1825 18.7413 47.2266V38.6111C18.7413 37.6553 17.9636 36.8777 17.0079 36.8777C16.0521 36.8777 15.2744 37.6553 15.2744 38.6111V47.2266C15.2744 48.1825 16.052 48.9601 17.0079 48.9601ZM16.2119 38.6112C16.2119 38.1724 16.569 37.8153 17.0079 37.8153C17.4466 37.8153 17.8038 38.1724 17.8038 38.6112V47.2267C17.8038 47.6656 17.4466 48.0227 17.0079 48.0227C16.569 48.0227 16.2119 47.6656 16.2119 47.2267V38.6112Z"/>
</mask>
<path d="M17.0079 48.9601C17.9636 48.9601 18.7413 48.1825 18.7413 47.2266V38.6111C18.7413 37.6553 17.9636 36.8777 17.0079 36.8777C16.0521 36.8777 15.2744 37.6553 15.2744 38.6111V47.2266C15.2744 48.1825 16.052 48.9601 17.0079 48.9601ZM16.2119 38.6112C16.2119 38.1724 16.569 37.8153 17.0079 37.8153C17.4466 37.8153 17.8038 38.1724 17.8038 38.6112V47.2267C17.8038 47.6656 17.4466 48.0227 17.0079 48.0227C16.569 48.0227 16.2119 47.6656 16.2119 47.2267V38.6112Z" fill="#E90022"/>
<path d="M17.0079 49.9601C18.5159 49.9601 19.7413 48.7349 19.7413 47.2266H17.7413C17.7413 47.6302 17.4114 47.9601 17.0079 47.9601V49.9601ZM19.7413 47.2266V38.6111H17.7413V47.2266H19.7413ZM19.7413 38.6111C19.7413 37.1031 18.5159 35.8777 17.0079 35.8777V37.8777C17.4113 37.8777 17.7413 38.2076 17.7413 38.6111H19.7413ZM17.0079 35.8777C15.4998 35.8777 14.2744 37.1031 14.2744 38.6111H16.2744C16.2744 38.2076 16.6044 37.8777 17.0079 37.8777V35.8777ZM14.2744 38.6111V47.2266H16.2744V38.6111H14.2744ZM14.2744 47.2266C14.2744 48.7348 15.4997 49.9601 17.0079 49.9601V47.9601C16.6042 47.9601 16.2744 47.6302 16.2744 47.2266H14.2744ZM17.2119 38.6112C17.2119 38.7247 17.1213 38.8153 17.0079 38.8153V36.8153C16.0167 36.8153 15.2119 37.6201 15.2119 38.6112H17.2119ZM17.0079 38.8153C16.8944 38.8153 16.8038 38.7248 16.8038 38.6112H18.8038C18.8038 37.62 17.9988 36.8153 17.0079 36.8153V38.8153ZM16.8038 38.6112V47.2267H18.8038V38.6112H16.8038ZM16.8038 47.2267C16.8038 47.1132 16.8944 47.0227 17.0079 47.0227V49.0227C17.9988 49.0227 18.8038 48.218 18.8038 47.2267H16.8038ZM17.0079 47.0227C17.1213 47.0227 17.2119 47.1133 17.2119 47.2267H15.2119C15.2119 48.2179 16.0167 49.0227 17.0079 49.0227V47.0227ZM17.2119 47.2267V38.6112H15.2119V47.2267H17.2119Z" fill="black" mask="url(#path-18-inside-3_28_99)"/>
<mask id="path-20-inside-4_28_99" fill="white">
<path d="M17.0079 54.2823C17.9636 54.2823 18.7413 53.5047 18.7413 52.5488V51.7979C18.7413 50.8421 17.9636 50.0645 17.0079 50.0645C16.0521 50.0645 15.2744 50.842 15.2744 51.7979V52.5488C15.2744 53.5047 16.052 54.2823 17.0079 54.2823ZM16.2119 51.798C16.2119 51.3591 16.569 51.0021 17.0079 51.0021C17.4466 51.0021 17.8038 51.3591 17.8038 51.798V52.5489C17.8038 52.9878 17.4466 53.3449 17.0079 53.3449C16.569 53.3449 16.2119 52.9878 16.2119 52.5489V51.798Z"/>
</mask>
<path d="M17.0079 54.2823C17.9636 54.2823 18.7413 53.5047 18.7413 52.5488V51.7979C18.7413 50.8421 17.9636 50.0645 17.0079 50.0645C16.0521 50.0645 15.2744 50.842 15.2744 51.7979V52.5488C15.2744 53.5047 16.052 54.2823 17.0079 54.2823ZM16.2119 51.798C16.2119 51.3591 16.569 51.0021 17.0079 51.0021C17.4466 51.0021 17.8038 51.3591 17.8038 51.798V52.5489C17.8038 52.9878 17.4466 53.3449 17.0079 53.3449C16.569 53.3449 16.2119 52.9878 16.2119 52.5489V51.798Z" fill="#E90022"/>
<path d="M17.0079 55.2823C18.5159 55.2823 19.7413 54.0571 19.7413 52.5488H17.7413C17.7413 52.9524 17.4114 53.2823 17.0079 53.2823V55.2823ZM19.7413 52.5488V51.7979H17.7413V52.5488H19.7413ZM19.7413 51.7979C19.7413 50.2898 18.5159 49.0645 17.0079 49.0645V51.0645C17.4113 51.0645 17.7413 51.3944 17.7413 51.7979H19.7413ZM17.0079 49.0645C15.4998 49.0645 14.2744 50.2897 14.2744 51.7979H16.2744C16.2744 51.3943 16.6043 51.0645 17.0079 51.0645V49.0645ZM14.2744 51.7979V52.5488H16.2744V51.7979H14.2744ZM14.2744 52.5488C14.2744 54.057 15.4997 55.2823 17.0079 55.2823V53.2823C16.6042 53.2823 16.2744 52.9524 16.2744 52.5488H14.2744ZM17.2119 51.798C17.2119 51.9114 17.1213 52.0021 17.0079 52.0021V50.0021C16.0167 50.0021 15.2119 50.8069 15.2119 51.798H17.2119ZM17.0079 52.0021C16.8944 52.0021 16.8038 51.9115 16.8038 51.798H18.8038C18.8038 50.8068 17.9988 50.0021 17.0079 50.0021V52.0021ZM16.8038 51.798V52.5489H18.8038V51.798H16.8038ZM16.8038 52.5489C16.8038 52.4354 16.8944 52.3449 17.0079 52.3449V54.3449C17.9988 54.3449 18.8038 53.5402 18.8038 52.5489H16.8038ZM17.0079 52.3449C17.1213 52.3449 17.2119 52.4355 17.2119 52.5489H15.2119C15.2119 53.5401 16.0167 54.3449 17.0079 54.3449V52.3449ZM17.2119 52.5489V51.798H15.2119V52.5489H17.2119Z" fill="black" mask="url(#path-20-inside-4_28_99)"/>
<mask id="path-22-inside-5_28_99" fill="white">
<path d="M57.9497 11.4647H44.5454C44.0171 10.2693 43.0426 9.31384 41.8336 8.81157H57.9496C59.08 8.81157 59.9999 7.89177 59.9999 6.76126C59.9999 5.63075 59.08 4.71095 57.9496 4.71095H17.0085C16.2182 2.9222 14.428 1.67017 12.35 1.67017C10.2721 1.67017 8.48191 2.9222 7.6916 4.71095H2.05031C0.919805 4.71095 0 5.63075 0 6.76126C0 7.89177 0.919805 8.81157 2.05031 8.81157H7.6916C8.21988 10.007 9.19418 10.9624 10.4033 11.4647H2.05031C0.919805 11.4647 0 12.3846 0 13.5151C0 14.6456 0.919805 15.5654 2.05031 15.5654H35.2283C35.5912 16.3866 36.1642 17.0944 36.88 17.62V30.7891C36.0315 30.9759 34.1127 31.5927 33.1582 33.4586C32.0326 35.6583 32.485 38.6084 32.5049 38.7328C32.5056 38.7386 32.5068 38.7443 32.5076 38.7499C33.2545 42.5334 36.786 43.1267 38.0413 43.2172V48.5586H36.6919C35.5614 48.5586 34.6416 49.4784 34.6416 50.6091V56.2793C34.6416 57.4098 35.5614 58.3296 36.6919 58.3296H54.9084C56.0388 58.3296 56.9588 57.4098 56.9588 56.2793V50.6091C56.9588 49.4786 56.0388 48.5586 54.9084 48.5586H53.5589V43.0992C54.0479 42.9058 54.9634 42.4397 55.8695 41.4253C57.0322 40.1236 58.4183 37.6129 58.4183 33.0449V27.8233C58.4183 25.9921 57.053 24.5023 55.3745 24.5023C54.5435 24.5023 53.7894 24.8674 53.2396 25.4584C53.035 23.8424 51.7608 22.594 50.2241 22.594C49.3654 22.594 48.5885 22.9841 48.0346 23.6102C47.7144 22.1507 46.5087 21.0624 45.0743 21.0624C44.2575 21.0624 43.5148 21.4151 42.9676 21.9881V17.5645C43.6488 17.045 44.1949 16.358 44.5452 15.5653H57.9495C59.0798 15.5653 59.9998 14.6455 59.9998 13.515C59.9998 12.3845 59.0801 11.4647 57.9497 11.4647ZM57.9497 14.6279H44.854C44.9344 14.2695 44.9781 13.8974 44.9781 13.5151C44.9781 13.1327 44.9344 12.7607 44.854 12.4022H57.9497C58.5633 12.4022 59.0625 12.9014 59.0625 13.5151C59.0625 14.1288 58.5633 14.6279 57.9497 14.6279ZM42.4991 24.8521C42.7579 24.8521 42.9679 24.6422 42.9679 24.3833C42.9679 23.0691 43.9127 21.9999 45.0745 21.9999C46.2357 21.9999 47.1805 23.0691 47.1805 24.3833V25.9149C47.1805 26.1737 47.3904 26.3836 47.6493 26.3836C47.908 26.3836 48.118 26.1737 48.118 25.9149C48.118 24.6006 49.0628 23.5315 50.2243 23.5315C51.3859 23.5315 52.331 24.6007 52.331 25.9149V27.8233C52.331 28.0821 52.5409 28.292 52.7998 28.292C53.0586 28.292 53.2685 28.0821 53.2685 27.8233C53.2685 26.509 54.2134 25.4398 55.3748 25.4398C56.5363 25.4398 57.4812 26.509 57.4812 27.8233V33.0449C57.4812 36.3906 56.698 39.0546 55.2164 40.749C54.1116 42.0126 52.9902 42.3055 52.9815 42.3077C52.7706 42.3581 52.6219 42.5468 52.6219 42.7636V48.5586H38.9788V42.7636C38.9788 42.6367 38.9269 42.5152 38.8356 42.4268C38.7443 42.3384 38.6208 42.2912 38.494 42.2951C38.4902 42.2952 38.4709 42.2957 38.4379 42.2957C37.7248 42.2957 34.1344 42.1164 33.4296 38.5783C33.4056 38.4159 33.0339 35.7597 33.9929 33.8856C34.6964 32.5103 36.1133 31.9604 36.8801 31.7565V35.2274C36.8801 35.4863 37.09 35.6961 37.3488 35.6961C37.6077 35.6961 37.8176 35.4863 37.8176 35.2274V31.1814V14.3797C37.8176 13.0684 38.7625 12.0017 39.9238 12.0017C41.0854 12.0017 42.0306 13.0685 42.0306 14.3797V24.3834C42.0304 24.6422 42.2402 24.8521 42.4991 24.8521ZM56.0214 50.6091V56.2793C56.0214 56.8929 55.5221 57.3921 54.9086 57.3921H36.6919C36.0782 57.3921 35.5789 56.8929 35.5789 56.2793V50.6091C35.5789 49.9955 36.0782 49.4961 36.6919 49.4961H54.9084C55.5221 49.4963 56.0214 49.9955 56.0214 50.6091ZM42.9679 14.3797C42.9679 12.5515 41.6023 11.0642 39.9236 11.0642C38.2452 11.0642 36.8798 12.5515 36.8798 14.3797V16.3761C36.1702 15.6306 35.7332 14.6233 35.7332 13.5151C35.7332 11.2248 37.5964 9.36153 39.8869 9.36153C42.1771 9.36153 44.0404 11.2248 44.0404 13.5151C44.0404 14.5845 43.6338 15.5606 42.9677 16.2977V14.3797H42.9679ZM0.9375 13.5151C0.9375 12.9015 1.43672 12.4022 2.05031 12.4022H34.9198C34.8394 12.7607 34.7957 13.1327 34.7957 13.5151C34.7957 13.8974 34.8394 14.2696 34.9198 14.6279H2.05031C1.43672 14.6279 0.9375 14.1287 0.9375 13.5151ZM0.9375 6.76126C0.9375 6.14767 1.43672 5.64845 2.05031 5.64845H7.38281C7.30242 6.00692 7.25883 6.37899 7.25883 6.76126C7.25883 7.14353 7.30242 7.51571 7.38281 7.87407H2.05031C1.43672 7.87407 0.9375 7.37497 0.9375 6.76126ZM8.19633 6.76126C8.19633 4.47095 10.0596 2.60767 12.3499 2.60767C14.6402 2.60767 16.5035 4.47095 16.5035 6.76126C16.5035 9.05157 14.6402 10.9149 12.3499 10.9149C10.0596 10.9149 8.19633 9.05157 8.19633 6.76126ZM59.0625 6.76126C59.0625 7.37485 58.5633 7.87407 57.9497 7.87407H17.3173C17.3977 7.5156 17.4413 7.14353 17.4413 6.76126C17.4413 6.37899 17.3977 6.00681 17.3173 5.64845H57.9497C58.5633 5.64845 59.0625 6.14767 59.0625 6.76126ZM17.0085 8.81157H37.9404C36.7312 9.31384 35.7568 10.2693 35.2283 11.4647H14.2969C15.5058 10.9624 16.4802 10.0071 17.0085 8.81157Z"/>
</mask>
<path d="M57.9497 11.4647H44.5454C44.0171 10.2693 43.0426 9.31384 41.8336 8.81157H57.9496C59.08 8.81157 59.9999 7.89177 59.9999 6.76126C59.9999 5.63075 59.08 4.71095 57.9496 4.71095H17.0085C16.2182 2.9222 14.428 1.67017 12.35 1.67017C10.2721 1.67017 8.48191 2.9222 7.6916 4.71095H2.05031C0.919805 4.71095 0 5.63075 0 6.76126C0 7.89177 0.919805 8.81157 2.05031 8.81157H7.6916C8.21988 10.007 9.19418 10.9624 10.4033 11.4647H2.05031C0.919805 11.4647 0 12.3846 0 13.5151C0 14.6456 0.919805 15.5654 2.05031 15.5654H35.2283C35.5912 16.3866 36.1642 17.0944 36.88 17.62V30.7891C36.0315 30.9759 34.1127 31.5927 33.1582 33.4586C32.0326 35.6583 32.485 38.6084 32.5049 38.7328C32.5056 38.7386 32.5068 38.7443 32.5076 38.7499C33.2545 42.5334 36.786 43.1267 38.0413 43.2172V48.5586H36.6919C35.5614 48.5586 34.6416 49.4784 34.6416 50.6091V56.2793C34.6416 57.4098 35.5614 58.3296 36.6919 58.3296H54.9084C56.0388 58.3296 56.9588 57.4098 56.9588 56.2793V50.6091C56.9588 49.4786 56.0388 48.5586 54.9084 48.5586H53.5589V43.0992C54.0479 42.9058 54.9634 42.4397 55.8695 41.4253C57.0322 40.1236 58.4183 37.6129 58.4183 33.0449V27.8233C58.4183 25.9921 57.053 24.5023 55.3745 24.5023C54.5435 24.5023 53.7894 24.8674 53.2396 25.4584C53.035 23.8424 51.7608 22.594 50.2241 22.594C49.3654 22.594 48.5885 22.9841 48.0346 23.6102C47.7144 22.1507 46.5087 21.0624 45.0743 21.0624C44.2575 21.0624 43.5148 21.4151 42.9676 21.9881V17.5645C43.6488 17.045 44.1949 16.358 44.5452 15.5653H57.9495C59.0798 15.5653 59.9998 14.6455 59.9998 13.515C59.9998 12.3845 59.0801 11.4647 57.9497 11.4647ZM57.9497 14.6279H44.854C44.9344 14.2695 44.9781 13.8974 44.9781 13.5151C44.9781 13.1327 44.9344 12.7607 44.854 12.4022H57.9497C58.5633 12.4022 59.0625 12.9014 59.0625 13.5151C59.0625 14.1288 58.5633 14.6279 57.9497 14.6279ZM42.4991 24.8521C42.7579 24.8521 42.9679 24.6422 42.9679 24.3833C42.9679 23.0691 43.9127 21.9999 45.0745 21.9999C46.2357 21.9999 47.1805 23.0691 47.1805 24.3833V25.9149C47.1805 26.1737 47.3904 26.3836 47.6493 26.3836C47.908 26.3836 48.118 26.1737 48.118 25.9149C48.118 24.6006 49.0628 23.5315 50.2243 23.5315C51.3859 23.5315 52.331 24.6007 52.331 25.9149V27.8233C52.331 28.0821 52.5409 28.292 52.7998 28.292C53.0586 28.292 53.2685 28.0821 53.2685 27.8233C53.2685 26.509 54.2134 25.4398 55.3748 25.4398C56.5363 25.4398 57.4812 26.509 57.4812 27.8233V33.0449C57.4812 36.3906 56.698 39.0546 55.2164 40.749C54.1116 42.0126 52.9902 42.3055 52.9815 42.3077C52.7706 42.3581 52.6219 42.5468 52.6219 42.7636V48.5586H38.9788V42.7636C38.9788 42.6367 38.9269 42.5152 38.8356 42.4268C38.7443 42.3384 38.6208 42.2912 38.494 42.2951C38.4902 42.2952 38.4709 42.2957 38.4379 42.2957C37.7248 42.2957 34.1344 42.1164 33.4296 38.5783C33.4056 38.4159 33.0339 35.7597 33.9929 33.8856C34.6964 32.5103 36.1133 31.9604 36.8801 31.7565V35.2274C36.8801 35.4863 37.09 35.6961 37.3488 35.6961C37.6077 35.6961 37.8176 35.4863 37.8176 35.2274V31.1814V14.3797C37.8176 13.0684 38.7625 12.0017 39.9238 12.0017C41.0854 12.0017 42.0306 13.0685 42.0306 14.3797V24.3834C42.0304 24.6422 42.2402 24.8521 42.4991 24.8521ZM56.0214 50.6091V56.2793C56.0214 56.8929 55.5221 57.3921 54.9086 57.3921H36.6919C36.0782 57.3921 35.5789 56.8929 35.5789 56.2793V50.6091C35.5789 49.9955 36.0782 49.4961 36.6919 49.4961H54.9084C55.5221 49.4963 56.0214 49.9955 56.0214 50.6091ZM42.9679 14.3797C42.9679 12.5515 41.6023 11.0642 39.9236 11.0642C38.2452 11.0642 36.8798 12.5515 36.8798 14.3797V16.3761C36.1702 15.6306 35.7332 14.6233 35.7332 13.5151C35.7332 11.2248 37.5964 9.36153 39.8869 9.36153C42.1771 9.36153 44.0404 11.2248 44.0404 13.5151C44.0404 14.5845 43.6338 15.5606 42.9677 16.2977V14.3797H42.9679ZM0.9375 13.5151C0.9375 12.9015 1.43672 12.4022 2.05031 12.4022H34.9198C34.8394 12.7607 34.7957 13.1327 34.7957 13.5151C34.7957 13.8974 34.8394 14.2696 34.9198 14.6279H2.05031C1.43672 14.6279 0.9375 14.1287 0.9375 13.5151ZM0.9375 6.76126C0.9375 6.14767 1.43672 5.64845 2.05031 5.64845H7.38281C7.30242 6.00692 7.25883 6.37899 7.25883 6.76126C7.25883 7.14353 7.30242 7.51571 7.38281 7.87407H2.05031C1.43672 7.87407 0.9375 7.37497 0.9375 6.76126ZM8.19633 6.76126C8.19633 4.47095 10.0596 2.60767 12.3499 2.60767C14.6402 2.60767 16.5035 4.47095 16.5035 6.76126C16.5035 9.05157 14.6402 10.9149 12.3499 10.9149C10.0596 10.9149 8.19633 9.05157 8.19633 6.76126ZM59.0625 6.76126C59.0625 7.37485 58.5633 7.87407 57.9497 7.87407H17.3173C17.3977 7.5156 17.4413 7.14353 17.4413 6.76126C17.4413 6.37899 17.3977 6.00681 17.3173 5.64845H57.9497C58.5633 5.64845 59.0625 6.14767 59.0625 6.76126ZM17.0085 8.81157H37.9404C36.7312 9.31384 35.7568 10.2693 35.2283 11.4647H14.2969C15.5058 10.9624 16.4802 10.0071 17.0085 8.81157Z" fill="#E90022" stroke="black" stroke-width="2" mask="url(#path-22-inside-5_28_99)"/>
<mask id="path-23-inside-6_28_99" fill="white">
<path d="M39.8872 50.9722C38.5241 50.9722 37.415 52.0811 37.415 53.4442C37.415 54.8074 38.5241 55.9163 39.8872 55.9163C41.2505 55.9163 42.3593 54.8074 42.3593 53.4442C42.3593 52.0811 41.2505 50.9722 39.8872 50.9722ZM39.8872 54.9788C39.041 54.9788 38.3525 54.2903 38.3525 53.4442C38.3525 52.5981 39.041 51.9097 39.8872 51.9097C40.7334 51.9097 41.4218 52.5981 41.4218 53.4442C41.4218 54.2904 40.7334 54.9788 39.8872 54.9788Z"/>
</mask>
<path d="M39.8872 50.9722C38.5241 50.9722 37.415 52.0811 37.415 53.4442C37.415 54.8074 38.5241 55.9163 39.8872 55.9163C41.2505 55.9163 42.3593 54.8074 42.3593 53.4442C42.3593 52.0811 41.2505 50.9722 39.8872 50.9722ZM39.8872 54.9788C39.041 54.9788 38.3525 54.2903 38.3525 53.4442C38.3525 52.5981 39.041 51.9097 39.8872 51.9097C40.7334 51.9097 41.4218 52.5981 41.4218 53.4442C41.4218 54.2904 40.7334 54.9788 39.8872 54.9788Z" fill="#E90022"/>
<path d="M39.8872 49.9722C37.9719 49.9722 36.415 51.5288 36.415 53.4442H38.415C38.415 52.6335 39.0763 51.9722 39.8872 51.9722V49.9722ZM36.415 53.4442C36.415 55.3597 37.9719 56.9163 39.8872 56.9163V54.9163C39.0763 54.9163 38.415 54.255 38.415 53.4442H36.415ZM39.8872 56.9163C41.8028 56.9163 43.3593 55.3596 43.3593 53.4442H41.3593C41.3593 54.2551 40.6982 54.9163 39.8872 54.9163V56.9163ZM43.3593 53.4442C43.3593 51.5289 41.8028 49.9722 39.8872 49.9722V51.9722C40.6982 51.9722 41.3593 52.6334 41.3593 53.4442H43.3593ZM39.8872 53.9788C39.5933 53.9788 39.3525 53.738 39.3525 53.4442H37.3525C37.3525 54.8427 38.4888 55.9788 39.8872 55.9788V53.9788ZM39.3525 53.4442C39.3525 53.1505 39.5933 52.9097 39.8872 52.9097V50.9097C38.4888 50.9097 37.3525 52.0458 37.3525 53.4442H39.3525ZM39.8872 52.9097C40.1811 52.9097 40.4218 53.1504 40.4218 53.4442H42.4218C42.4218 52.0459 41.2858 50.9097 39.8872 50.9097V52.9097ZM40.4218 53.4442C40.4218 53.7382 40.1812 53.9788 39.8872 53.9788V55.9788C41.2857 55.9788 42.4218 54.8427 42.4218 53.4442H40.4218Z" fill="black" mask="url(#path-23-inside-6_28_99)"/>
</svg>
