<svg width="60" height="60" viewBox="0 0 60 60" fill="none" xmlns="http://www.w3.org/2000/svg">
<path d="M21.5625 16.875V14.0625C21.5625 11.8247 22.4514 9.67862 24.0338 8.09629C25.6161 6.51395 27.7622 5.625 30 5.625C32.2378 5.625 34.3839 6.51395 35.9662 8.09629C37.5486 9.67862 38.4375 11.8247 38.4375 14.0625V16.875H21.5625Z" fill="#E90022"/>
<path d="M30 54.375C26.7688 54.3714 23.671 53.0861 21.3862 50.8013C19.1014 48.5165 17.8161 45.4187 17.8125 42.1875V20.625C17.8135 19.6308 18.209 18.6775 18.912 17.9745C19.615 17.2715 20.5683 16.876 21.5625 16.875H38.4375C39.4318 16.876 40.385 17.2714 41.0881 17.9744C41.7911 18.6775 42.1865 19.6307 42.1875 20.625V42.1875C42.1838 45.4187 40.8985 48.5165 38.6138 50.8013C36.329 53.086 33.2312 54.3713 30 54.375Z" fill="#E90022"/>
<path d="M58.8878 39.7677L54.2003 33.2052C54.1213 33.0946 54.0192 33.0024 53.901 32.9353C53.7828 32.8681 53.6514 32.8274 53.5159 32.8162L43.1251 31.95V24.8899L53.0037 18.6036C53.1245 18.5265 53.2261 18.4229 53.3007 18.3005C53.3753 18.1781 53.4209 18.0403 53.434 17.8976L54.3715 7.58513C54.3941 7.33745 54.3173 7.09096 54.1582 6.89987C53.999 6.70877 53.7704 6.58873 53.5228 6.56616C53.2751 6.54358 53.0286 6.62031 52.8375 6.77948C52.6464 6.93865 52.5264 7.1672 52.5038 7.41488L51.6084 17.2688L43.1251 22.667V20.625C43.1237 19.545 42.7499 18.4984 42.0668 17.6618C41.3837 16.8252 40.4331 16.2497 39.3751 16.0323V14.0625C39.3753 11.9526 38.6597 9.90504 37.3453 8.25459L39.9253 6.38437C40.0453 6.29741 40.143 6.18325 40.2103 6.05125C40.2776 5.91925 40.3127 5.77317 40.3126 5.625V1.875C40.3126 1.62636 40.2139 1.3879 40.038 1.21209C39.8622 1.03627 39.6238 0.9375 39.3751 0.9375C39.1265 0.9375 38.888 1.03627 38.7122 1.21209C38.5364 1.3879 38.4376 1.62636 38.4376 1.875V5.14687L36.0283 6.89353C34.3425 5.46912 32.2068 4.68764 29.9998 4.68764C27.7928 4.68764 25.6571 5.46912 23.9714 6.89353L21.5626 5.14687V1.875C21.5626 1.62636 21.4639 1.3879 21.288 1.21209C21.1122 1.03627 20.8738 0.9375 20.6251 0.9375C20.3765 0.9375 20.138 1.03627 19.9622 1.21209C19.7864 1.3879 19.6876 1.62636 19.6876 1.875V5.625C19.6877 5.77316 19.7228 5.9192 19.7901 6.05119C19.8574 6.18317 19.955 6.29735 20.0749 6.38437L22.655 8.25478C21.3406 9.90519 20.625 11.9527 20.6251 14.0625V16.0323C19.5672 16.2497 18.6166 16.8252 17.9335 17.6618C17.2504 18.4984 16.8766 19.545 16.8751 20.625V22.667L8.39188 17.2688L7.49648 7.41488C7.4853 7.29224 7.45007 7.17301 7.39281 7.06399C7.33556 6.95497 7.25739 6.85829 7.16277 6.77948C7.06815 6.70067 6.95893 6.64127 6.84135 6.60466C6.72378 6.56806 6.60014 6.55498 6.47751 6.56616C6.22984 6.58873 6.00128 6.70877 5.84211 6.89987C5.7633 6.99449 5.7039 7.1037 5.6673 7.22128C5.63069 7.33886 5.61761 7.46249 5.62879 7.58513L6.56629 17.8976C6.57932 18.0403 6.62489 18.1782 6.69948 18.3006C6.77407 18.4229 6.87571 18.5266 6.9966 18.6036L16.8751 24.8899V31.95L6.48482 32.8159C6.3492 32.8271 6.21764 32.8677 6.0993 32.9349C5.98095 33.0021 5.87865 33.0942 5.79951 33.2049L1.11201 39.7674C0.967522 39.9698 0.909355 40.2213 0.950303 40.4666C0.99125 40.7119 1.12796 40.9309 1.33035 41.0753C1.53274 41.2198 1.78424 41.278 2.02952 41.237C2.2748 41.1961 2.49377 41.0594 2.63826 40.857L7.07263 34.6478L16.8751 33.831V39.7976L6.9966 46.084C6.8757 46.161 6.77404 46.2646 6.69944 46.387C6.62485 46.5093 6.5793 46.6472 6.56629 46.7899L5.62879 57.1024C5.61758 57.2251 5.63068 57.3488 5.66731 57.4664C5.70395 57.584 5.76342 57.6933 5.84231 57.7879C5.9212 57.8826 6.01798 57.9607 6.1271 58.0179C6.23622 58.0751 6.35555 58.1103 6.47826 58.1213C6.50704 58.1241 6.53544 58.125 6.56385 58.125C6.79759 58.1247 7.0228 58.0371 7.19536 57.8795C7.36792 57.7218 7.47541 57.5054 7.49676 57.2726L8.39188 47.4188L16.8751 42.0205V42.1875C16.8751 45.6685 18.2579 49.0069 20.7194 51.4683C23.1808 53.9297 26.5192 55.3125 30.0001 55.3125C33.4811 55.3125 36.8195 53.9297 39.2809 51.4683C41.7423 49.0069 43.1251 45.6685 43.1251 42.1875V42.0205L51.6084 47.4188L52.5038 57.2725C52.5252 57.5053 52.6327 57.7217 52.8052 57.8793C52.9778 58.037 53.203 58.1246 53.4367 58.125C53.4648 58.125 53.4935 58.1241 53.5228 58.1213C53.6454 58.1102 53.7646 58.075 53.8737 58.0177C53.9827 57.9605 54.0794 57.8823 54.1582 57.7877C54.237 57.6931 54.2964 57.5838 54.333 57.4662C54.3696 57.3487 54.3827 57.225 54.3715 57.1024L53.434 46.7899C53.4209 46.6472 53.3753 46.5094 53.3007 46.387C53.2261 46.2647 53.1245 46.161 53.0037 46.084L43.1251 39.7976V33.831L52.9268 34.6481L57.3625 40.8573C57.5094 41.0532 57.7271 41.1838 57.9691 41.2212C58.2111 41.2587 58.4581 41.2 58.6574 41.0576C58.8566 40.9153 58.9923 40.7007 59.0354 40.4596C59.0784 40.2186 59.0254 39.9702 58.8878 39.7677ZM22.5001 14.0625C22.5001 12.0734 23.2903 10.1657 24.6968 8.7592C26.1034 7.35268 28.011 6.5625 30.0001 6.5625C31.9893 6.5625 33.8969 7.35268 35.3034 8.7592C36.71 10.1657 37.5001 12.0734 37.5001 14.0625V15.9375H22.5001V14.0625ZM18.7501 42.1875V20.625C18.751 19.8793 19.0475 19.1644 19.5748 18.6372C20.1021 18.1099 20.817 17.8133 21.5626 17.8125H29.0626V53.39C26.2533 53.1529 23.6351 51.8705 21.7257 49.7962C19.8162 47.722 18.7544 45.0068 18.7501 42.1875ZM41.2501 42.1875C41.2461 45.0069 40.1843 47.7221 38.2748 49.7964C36.3653 51.8707 33.747 53.1531 30.9376 53.39V17.8125H38.4376C39.1833 17.8133 39.8982 18.1099 40.4255 18.6372C40.9527 19.1644 41.2493 19.8793 41.2501 20.625V42.1875Z" fill="black"/>
</svg>
