<svg width="60" height="60" viewBox="0 0 60 60" fill="none" xmlns="http://www.w3.org/2000/svg">
<g clip-path="url(#clip0_6_1474)">
<path fill-rule="evenodd" clip-rule="evenodd" d="M41.8527 58.4892H5.90534C5.41273 58.4892 5 58.0898 5 57.5839V7.25751C5 6.76489 5.39941 6.36548 5.90534 6.36548H15.7975H41.8527C42.3454 6.36548 42.7581 6.76489 42.7581 7.25751V57.5839V57.6105V57.6371V57.6637C42.7581 57.6771 42.7581 57.6771 42.7581 57.6904V57.717V57.7436V57.7703C42.7581 57.7836 42.7581 57.7836 42.7581 57.7969V57.8235V57.8501V57.8768V57.8768C42.7581 57.8943 42.754 57.9115 42.7462 57.9272L42.7448 57.93L42.7315 57.9567L42.7181 57.9833L42.7048 58.0099L42.6999 58.0197C42.6944 58.0308 42.687 58.041 42.6782 58.0499V58.0499L42.6649 58.0632L42.6516 58.0765L42.6383 58.0898L42.6249 58.1031L42.6116 58.1164L42.5983 58.1297L42.5955 58.1325C42.5904 58.1377 42.5816 58.1363 42.5783 58.1297V58.1297C42.5751 58.1232 42.5663 58.1218 42.5612 58.1269L42.5584 58.1297L42.5451 58.1431L42.5318 58.1564L42.5184 58.1697L42.5051 58.183L42.4918 58.1963L42.4785 58.2096L42.4652 58.2229L42.4519 58.2362L42.4386 58.2496L42.4252 58.2629L42.4119 58.2762C42.3986 58.2895 42.3853 58.2895 42.372 58.3028C42.3587 58.3161 42.332 58.3294 42.3187 58.3428L42.3054 58.3561L42.2921 58.3694V58.3694C42.2836 58.3779 42.2718 58.3829 42.261 58.3883C42.2575 58.39 42.2539 58.3919 42.2504 58.3933C42.2431 58.3963 42.235 58.3973 42.2275 58.3999C42.1936 58.4119 42.1684 58.4239 42.1323 58.436C42.0258 58.4759 41.9459 58.4892 41.8527 58.4892Z" fill="black"/>
<path fill-rule="evenodd" clip-rule="evenodd" d="M9.00684 8.16284H6.81006V56.6918H40.9601V8.16284H9.00684Z" fill="white"/>
<path fill-rule="evenodd" clip-rule="evenodd" d="M31.9738 9.96022H15.7974C15.3048 9.96022 14.8921 9.56081 14.8921 9.06819V5.47345C14.8921 4.98084 15.2915 4.58143 15.7841 4.58143H18.4868C19.978 4.58143 21.1762 3.36987 21.1762 1.89203C21.1762 1.39942 21.5756 1 22.0683 1H25.663C26.1556 1 26.555 1.39942 26.555 1.89203C26.555 3.38318 27.7666 4.58143 29.2444 4.58143H31.9471C32.4398 4.58143 32.8392 4.98084 32.8392 5.47345V9.06819C32.8658 9.54749 32.4664 9.96022 31.9738 9.96022Z" fill="black"/>
<path fill-rule="evenodd" clip-rule="evenodd" d="M20.2842 27.9342H9.49994C9.00733 27.9342 8.60791 27.5348 8.60791 27.0422V16.258C8.60791 15.7654 9.00733 15.366 9.49994 15.366H20.2842C20.7768 15.366 21.1762 15.7654 21.1762 16.258V27.0422C21.1895 27.5215 20.7901 27.9342 20.2842 27.9342Z" fill="#E3E3EE"/>
<path fill-rule="evenodd" clip-rule="evenodd" d="M20.2842 51.3001H9.49994C9.00733 51.3001 8.60791 50.9007 8.60791 50.3948V39.6105C8.60791 39.1179 9.00733 38.7185 9.49994 38.7185H20.2842C20.7768 38.7185 21.1762 39.1179 21.1762 39.6105V50.3948C21.1895 50.8874 20.7901 51.3001 20.2842 51.3001Z" fill="#E3E3EE"/>
<path fill-rule="evenodd" clip-rule="evenodd" d="M14.8931 24.3387C14.7999 24.3387 14.72 24.3254 14.6268 24.2987C14.3871 24.2322 14.2008 24.0591 14.0942 23.8461L12.2969 20.2513C12.0705 19.812 12.2569 19.2661 12.6963 19.0398C13.1356 18.8134 13.6815 18.9998 13.9078 19.4392L15.2792 22.1952L22.5485 18.1611C22.9879 17.9214 23.5338 18.0812 23.7734 18.5072C24.0131 18.9466 23.8533 19.4924 23.4273 19.7321L15.3324 24.2189C15.1993 24.2987 15.0528 24.3387 14.8931 24.3387Z" fill="black"/>
<path fill-rule="evenodd" clip-rule="evenodd" d="M14.8931 47.7054C14.7999 47.7054 14.72 47.6921 14.6268 47.6654C14.3871 47.5989 14.2008 47.4258 14.0942 47.2128L12.2969 43.618C12.0705 43.1787 12.2569 42.6328 12.6963 42.4065C13.1356 42.1801 13.6815 42.3665 13.9078 42.8059L15.2792 45.5619L22.5485 41.5278C22.9879 41.2881 23.5338 41.4479 23.7734 41.8739C24.0131 42.3133 23.8533 42.8591 23.4273 43.0988L15.3324 47.5856C15.1993 47.6654 15.0528 47.7054 14.8931 47.7054Z" fill="black"/>
<path fill-rule="evenodd" clip-rule="evenodd" d="M37.3667 18.0416H26.5825C26.0898 18.0416 25.6904 17.6422 25.6904 17.1496C25.6904 16.657 26.0898 16.2576 26.5825 16.2576H37.3667C37.8593 16.2576 38.2587 16.657 38.2587 17.1496C38.2587 17.6422 37.8593 18.0416 37.3667 18.0416Z" fill="black"/>
<path fill-rule="evenodd" clip-rule="evenodd" d="M37.3667 22.542H26.5825C26.0898 22.542 25.6904 22.1426 25.6904 21.65C25.6904 21.1574 26.0898 20.7446 26.5825 20.7446H37.3667C37.8593 20.7446 38.2587 21.144 38.2587 21.6367C38.2587 22.1293 37.8593 22.542 37.3667 22.542Z" fill="black"/>
<path fill-rule="evenodd" clip-rule="evenodd" d="M37.3667 27.0284H26.5825C26.0898 27.0284 25.6904 26.629 25.6904 26.1364C25.6904 25.6438 26.0898 25.2444 26.5825 25.2444H37.3667C37.8593 25.2444 38.2587 25.6438 38.2587 26.1364C38.2587 26.629 37.8593 27.0284 37.3667 27.0284Z" fill="black"/>
<path fill-rule="evenodd" clip-rule="evenodd" d="M33.7719 41.4075H26.5825C26.0898 41.4075 25.6904 41.0081 25.6904 40.5021C25.6904 40.0095 26.0898 39.6101 26.5825 39.6101H33.7719C34.2645 39.6101 34.664 40.0095 34.664 40.5021C34.664 41.0081 34.2645 41.4075 33.7719 41.4075Z" fill="black"/>
<path fill-rule="evenodd" clip-rule="evenodd" d="M33.7719 45.9076H26.5825C26.0898 45.9076 25.6904 45.5082 25.6904 45.0156C25.6904 44.523 26.0898 44.1235 26.5825 44.1235H33.7719C34.2645 44.1235 34.664 44.523 34.664 45.0156C34.664 45.5082 34.2645 45.9076 33.7719 45.9076Z" fill="black"/>
<path fill-rule="evenodd" clip-rule="evenodd" d="M31.9746 50.394H26.5825C26.0898 50.394 25.6904 49.9946 25.6904 49.4887C25.6904 48.9828 26.0898 48.5967 26.5825 48.5967H31.9746C32.4672 48.5967 32.8666 48.9961 32.8666 49.4887C32.8666 49.9813 32.4672 50.394 31.9746 50.394Z" fill="black"/>
<path d="M41.9425 37.0246L41.9425 37.0245C42.0102 36.8937 42.1875 36.7683 42.4577 36.7683C42.7156 36.7683 42.9028 36.8977 42.9753 37.0291L54.4669 59.2367C54.4672 59.2373 54.4675 59.2379 54.4678 59.2386C54.5161 59.3358 54.5111 59.4432 54.4448 59.5416C54.3207 59.6764 54.1384 59.7621 53.9386 59.7621H30.9614C30.7551 59.7621 30.5788 59.6719 30.4754 59.5484C30.4046 59.4482 30.3983 59.3381 30.4477 59.2386C30.448 59.238 30.4483 59.2373 30.4486 59.2367L41.9425 37.0246Z" fill="#E90022" stroke="black"/>
<path fill-rule="evenodd" clip-rule="evenodd" d="M42.4466 52.6276C41.5498 52.6276 40.8228 52.1429 40.8228 51.5289V44.9851C40.8228 44.3873 41.5498 43.9026 42.4466 43.9026C43.3433 43.9026 44.0946 44.3873 44.0946 44.9851V51.5289C44.0946 52.1429 43.3676 52.6276 42.4466 52.6276Z" fill="white"/>
<path fill-rule="evenodd" clip-rule="evenodd" d="M42.4466 56.9901C41.5498 56.9901 40.8228 56.5018 40.8228 55.8995V54.8089C40.8228 54.2066 41.5498 53.7183 42.4466 53.7183C43.3433 53.7183 44.0946 54.2066 44.0946 54.8089V55.8995C44.0946 56.4855 43.3676 56.9901 42.4466 56.9901Z" fill="white"/>
</g>
<defs>
<clipPath id="clip0_6_1474">
<rect width="60" height="60" fill="white"/>
</clipPath>
</defs>
</svg>
