<svg width="60" height="60" viewBox="0 0 60 60" fill="none" xmlns="http://www.w3.org/2000/svg">
<g clip-path="url(#clip0_28_2)">
<path d="M33.75 0.9375H30V7.5H33.75V0.9375Z" fill="#E90022"/>
<path d="M33.75 16.875H30V23.4375H33.75V16.875Z" fill="#E90022"/>
<path d="M34.2188 12.1875C34.8404 12.1875 35.4365 11.9406 35.876 11.501C36.3156 11.0615 36.5625 10.4654 36.5625 9.84375C36.5625 9.22215 36.3156 8.62601 35.876 8.18647C35.4365 7.74693 34.8404 7.5 34.2188 7.5H29.5312C28.9096 7.5 28.3135 7.74693 27.874 8.18647C27.4344 8.62601 27.1875 9.22215 27.1875 9.84375C27.1875 10.4654 27.4344 11.0615 27.874 11.501C28.3135 11.9406 28.9096 12.1875 29.5312 12.1875C28.9096 12.1875 28.3135 12.4344 27.874 12.874C27.4344 13.3135 27.1875 13.9096 27.1875 14.5312C27.1875 15.1529 27.4344 15.749 27.874 16.1885C28.3135 16.6281 28.9096 16.875 29.5312 16.875H34.2188C34.8404 16.875 35.4365 16.6281 35.876 16.1885C36.3156 15.749 36.5625 15.1529 36.5625 14.5312C36.5625 13.9096 36.3156 13.3135 35.876 12.874C35.4365 12.4344 34.8404 12.1875 34.2188 12.1875Z" fill="#E6ECFF"/>
<path d="M34.2188 12.1875H29.5312C28.2368 12.1875 27.1875 13.2368 27.1875 14.5312C27.1875 15.8257 28.2368 16.875 29.5312 16.875H34.2188C35.5132 16.875 36.5625 15.8257 36.5625 14.5312C36.5625 13.2368 35.5132 12.1875 34.2188 12.1875Z" fill="#D0DBF7"/>
<path d="M1.875 23.4376V17.8126C1.87604 16.8183 2.27147 15.8651 2.9745 15.1621C3.67754 14.459 4.63076 14.0636 5.625 14.0626H16.2C17.2093 14.0578 18.1928 14.381 19.0025 14.9835C19.8122 15.586 20.4043 16.4352 20.6897 17.4033L22.5 23.4376H1.875Z" fill="#E90022"/>
<path d="M5.625 59.0625C4.63076 59.0615 3.67754 58.666 2.9745 57.963C2.27147 57.26 1.87604 56.3067 1.875 55.3125V23.4375H54.375C55.3692 23.4385 56.3225 23.834 57.0255 24.537C57.7285 25.24 58.124 26.1933 58.125 27.1875V55.3125C58.124 56.3067 57.7285 57.26 57.0255 57.963C56.3225 58.666 55.3692 59.0615 54.375 59.0625H5.625Z" fill="#E6ECFF"/>
<path d="M13.125 52.5C11.8818 52.5 10.6895 52.0061 9.81044 51.1271C8.93136 50.248 8.4375 49.0557 8.4375 47.8125C8.4375 46.5693 8.93136 45.377 9.81044 44.4979C10.6895 43.6189 11.8818 43.125 13.125 43.125H46.875C48.1182 43.125 49.3105 43.6189 50.1896 44.4979C51.0686 45.377 51.5625 46.5693 51.5625 47.8125C51.5625 49.0557 51.0686 50.248 50.1896 51.1271C49.3105 52.0061 48.1182 52.5 46.875 52.5H13.125Z" fill="#E90022"/>
<path d="M40.3125 32.8125V29.0625H45.9375V20.625C45.9385 19.6308 46.334 18.6775 47.037 17.9745C47.74 17.2715 48.6933 16.876 49.6875 16.875V29.0625C49.6865 30.0567 49.291 31.01 48.588 31.713C47.885 32.416 46.9317 32.8115 45.9375 32.8125H40.3125Z" fill="#E90022"/>
<path d="M13.125 42.1875C11.6332 42.1875 10.2024 42.7801 9.14752 43.835C8.09263 44.8899 7.5 46.3207 7.5 47.8125C7.5 49.3043 8.09263 50.7351 9.14752 51.79C10.2024 52.8449 11.6332 53.4375 13.125 53.4375H46.875C48.3668 53.4375 49.7976 52.8449 50.8525 51.79C51.9074 50.7351 52.5 49.3043 52.5 47.8125C52.5 46.3207 51.9074 44.8899 50.8525 43.835C49.7976 42.7801 48.3668 42.1875 46.875 42.1875H13.125ZM50.625 47.8125C50.624 48.8067 50.2285 49.76 49.5255 50.463C48.8225 51.166 47.8692 51.5615 46.875 51.5625H13.125C12.1304 51.5625 11.1766 51.1674 10.4733 50.4641C9.77009 49.7609 9.375 48.8071 9.375 47.8125C9.375 46.8179 9.77009 45.8641 10.4733 45.1609C11.1766 44.4576 12.1304 44.0625 13.125 44.0625H46.875C47.8692 44.0635 48.8225 44.459 49.5255 45.162C50.2285 45.865 50.624 46.8183 50.625 47.8125Z" fill="black"/>
<path d="M32.538 46.6003C32.7088 46.4235 32.8033 46.1866 32.8011 45.9408C32.799 45.695 32.7004 45.4599 32.5266 45.2861C32.3528 45.1122 32.1176 45.0136 31.8718 45.0115C31.626 45.0094 31.3892 45.1039 31.2124 45.2746L30.2749 46.2121L30.0002 46.4867L29.7255 46.2121L28.788 45.2746C28.6112 45.1039 28.3744 45.0094 28.1286 45.0115C27.8828 45.0136 27.6476 45.1122 27.4738 45.2861C27.3 45.4599 27.2014 45.695 27.1993 45.9408C27.1971 46.1866 27.2916 46.4235 27.4624 46.6003L28.3999 47.5378L28.6745 47.8125L28.3999 48.0871L27.4624 49.0246C27.2916 49.2015 27.1971 49.4383 27.1993 49.6841C27.2014 49.9299 27.3 50.165 27.4738 50.3388C27.6476 50.5127 27.8828 50.6113 28.1286 50.6134C28.3744 50.6155 28.6112 50.521 28.788 50.3503L29.7255 49.4128L30.0002 49.1382L30.2749 49.4128L31.2124 50.3503C31.3892 50.521 31.626 50.6155 31.8718 50.6134C32.1176 50.6113 32.3528 50.5127 32.5266 50.3388C32.7004 50.165 32.799 49.9299 32.8011 49.6841C32.8033 49.4383 32.7088 49.2015 32.538 49.0246L31.6005 48.0871L31.3259 47.8125L31.6005 47.5378L32.538 46.6003Z" fill="white"/>
<path d="M40.038 46.6003C40.2088 46.4235 40.3033 46.1866 40.3011 45.9408C40.299 45.695 40.2004 45.4599 40.0266 45.2861C39.8528 45.1122 39.6176 45.0136 39.3718 45.0115C39.126 45.0094 38.8892 45.1039 38.7124 45.2746L37.7749 46.2121L37.5002 46.4867L37.2255 46.2121L36.288 45.2746C36.1112 45.1039 35.8744 45.0094 35.6286 45.0115C35.3828 45.0136 35.1476 45.1122 34.9738 45.2861C34.8 45.4599 34.7014 45.695 34.6993 45.9408C34.6971 46.1866 34.7916 46.4235 34.9624 46.6003L35.8999 47.5378L36.1745 47.8125L35.8999 48.0871L34.9624 49.0246C34.7916 49.2015 34.6971 49.4383 34.6993 49.6841C34.7014 49.9299 34.8 50.165 34.9738 50.3388C35.1476 50.5127 35.3828 50.6113 35.6286 50.6134C35.8744 50.6155 36.1112 50.521 36.288 50.3503L37.2255 49.4128L37.5002 49.1382L37.7749 49.4128L38.7124 50.3503C38.8892 50.521 39.126 50.6155 39.3718 50.6134C39.6176 50.6113 39.8528 50.5127 40.0266 50.3388C40.2004 50.165 40.299 49.9299 40.3011 49.6841C40.3033 49.4383 40.2088 49.2015 40.038 49.0246L39.1005 48.0871L38.8259 47.8125L39.1005 47.5378L40.038 46.6003Z" fill="white"/>
<path d="M46.2124 45.2746L45.2749 46.2121L45.0002 46.4867L44.7255 46.2121L43.788 45.2746C43.6112 45.1039 43.3744 45.0094 43.1286 45.0115C42.8828 45.0136 42.6476 45.1122 42.4738 45.2861C42.3 45.4599 42.2014 45.695 42.1993 45.9408C42.1971 46.1866 42.2916 46.4235 42.4624 46.6003L43.3999 47.5378L43.6745 47.8125L43.3999 48.0871L42.4624 49.0246C42.2916 49.2015 42.1971 49.4383 42.1993 49.6841C42.2014 49.9299 42.3 50.165 42.4738 50.3388C42.6476 50.5127 42.8828 50.6113 43.1286 50.6134C43.3744 50.6155 43.6112 50.521 43.788 50.3503L44.7255 49.4128L45.0002 49.1382L45.2749 49.4128L46.2124 50.3503C46.3892 50.521 46.626 50.6155 46.8718 50.6134C47.1176 50.6113 47.3528 50.5127 47.5266 50.3388C47.7004 50.165 47.799 49.9299 47.8011 49.6841C47.8033 49.4383 47.7088 49.2015 47.538 49.0246L46.6005 48.0871L46.3259 47.8125L46.6005 47.5378L47.538 46.6003C47.7088 46.4235 47.8033 46.1866 47.8011 45.9408C47.799 45.695 47.7004 45.4599 47.5266 45.2861C47.3528 45.1122 47.1176 45.0136 46.8718 45.0115C46.626 45.0094 46.3892 45.1039 46.2124 45.2746Z" fill="white"/>
<path d="M25.038 46.6003C25.2088 46.4235 25.3033 46.1866 25.3011 45.9408C25.299 45.695 25.2004 45.4599 25.0266 45.2861C24.8528 45.1122 24.6176 45.0136 24.3718 45.0115C24.126 45.0094 23.8892 45.1039 23.7124 45.2746L22.7749 46.2121L22.5002 46.4867L22.2255 46.2121L21.288 45.2746C21.1112 45.1039 20.8744 45.0094 20.6286 45.0115C20.3828 45.0136 20.1476 45.1122 19.9738 45.2861C19.8 45.4599 19.7014 45.695 19.6993 45.9408C19.6971 46.1866 19.7916 46.4235 19.9624 46.6003L20.8999 47.5378L21.1745 47.8125L20.8999 48.0871L19.9624 49.0246C19.7916 49.2015 19.6971 49.4383 19.6993 49.6841C19.7014 49.9299 19.8 50.165 19.9738 50.3388C20.1476 50.5127 20.3828 50.6113 20.6286 50.6134C20.8744 50.6155 21.1112 50.521 21.288 50.3503L22.2255 49.4128L22.5002 49.1382L22.7749 49.4128L23.7124 50.3503C23.8892 50.521 24.126 50.6155 24.3718 50.6134C24.6176 50.6113 24.8528 50.5127 25.0266 50.3388C25.2004 50.165 25.299 49.9299 25.3011 49.6841C25.3033 49.4383 25.2088 49.2015 25.038 49.0246L24.1005 48.0871L23.8259 47.8125L24.1005 47.5378L25.038 46.6003Z" fill="white"/>
<path d="M17.538 46.6003C17.7088 46.4235 17.8033 46.1866 17.8011 45.9408C17.799 45.695 17.7004 45.4599 17.5266 45.2861C17.3528 45.1122 17.1176 45.0136 16.8718 45.0115C16.626 45.0094 16.3892 45.1039 16.2124 45.2746L15.2749 46.2121L15.0002 46.4867L14.7255 46.2121L13.788 45.2746C13.6112 45.1039 13.3744 45.0094 13.1286 45.0115C12.8828 45.0136 12.6476 45.1122 12.4738 45.2861C12.3 45.4599 12.2014 45.695 12.1993 45.9408C12.1971 46.1866 12.2916 46.4235 12.4624 46.6003L13.3999 47.5378L13.6745 47.8125L13.3999 48.0871L12.4624 49.0246C12.2916 49.2015 12.1971 49.4383 12.1993 49.6841C12.2014 49.9299 12.3 50.165 12.4738 50.3388C12.6476 50.5127 12.8828 50.6113 13.1286 50.6134C13.3744 50.6155 13.6112 50.521 13.788 50.3503L14.7255 49.4128L15.0002 49.1382L15.2749 49.4128L16.2124 50.3503C16.3892 50.521 16.626 50.6155 16.8718 50.6134C17.1176 50.6113 17.3528 50.5127 17.5266 50.3388C17.7004 50.165 17.799 49.9299 17.8011 49.6841C17.8033 49.4383 17.7088 49.2015 17.538 49.0246L16.6005 48.0871L16.3259 47.8125L16.6005 47.5378L17.538 46.6003Z" fill="white"/>
<path d="M54.375 22.5H52.5C52.2514 22.5 52.0129 22.5988 51.8371 22.7746C51.6613 22.9504 51.5625 23.1889 51.5625 23.4375C51.5625 23.6861 51.6613 23.9246 51.8371 24.1004C52.0129 24.2762 52.2514 24.375 52.5 24.375H54.375C55.1207 24.3758 55.8356 24.6724 56.3628 25.1997C56.8901 25.7269 57.1867 26.4418 57.1875 27.1875V55.3125C57.1867 56.0582 56.8901 56.7731 56.3628 57.3003C55.8356 57.8276 55.1207 58.1242 54.375 58.125H5.625C4.87933 58.1242 4.16444 57.8276 3.63717 57.3003C3.1099 56.7731 2.81332 56.0582 2.8125 55.3125V24.375H43.125C43.3736 24.375 43.6121 24.2762 43.7879 24.1004C43.9637 23.9246 44.0625 23.6861 44.0625 23.4375C44.0625 23.1889 43.9637 22.9504 43.7879 22.7746C43.6121 22.5988 43.3736 22.5 43.125 22.5H34.6875V17.7656C35.2931 17.6809 35.8628 17.4279 36.3316 17.0353C36.8004 16.6426 37.1496 16.1263 37.3393 15.5449C37.529 14.9636 37.5517 14.3406 37.4047 13.7471C37.2577 13.1535 36.9469 12.6131 36.5078 12.1875C36.9468 11.7619 37.2574 11.2215 37.4043 10.628C37.5512 10.0345 37.5286 9.41166 37.3389 8.83041C37.1492 8.24916 36.8001 7.73285 36.3313 7.34026C35.8626 6.94768 35.293 6.6946 34.6875 6.60984V0.9375C34.6875 0.68886 34.5887 0.450403 34.4129 0.274587C34.2371 0.0987721 33.9986 0 33.75 0C33.5014 0 33.2629 0.0987721 33.0871 0.274587C32.9113 0.450403 32.8125 0.68886 32.8125 0.9375V6.5625H30.9375V0.9375C30.9375 0.68886 30.8387 0.450403 30.6629 0.274587C30.4871 0.0987721 30.2486 0 30 0C29.7514 0 29.5129 0.0987721 29.3371 0.274587C29.1613 0.450403 29.0625 0.68886 29.0625 0.9375V6.60984C28.457 6.6946 27.8874 6.94768 27.4187 7.34026C26.9499 7.73285 26.6008 8.24916 26.4111 8.83041C26.2214 9.41166 26.1988 10.0345 26.3457 10.628C26.4926 11.2215 26.8032 11.7619 27.2422 12.1875C26.8031 12.6131 26.4923 13.1535 26.3453 13.7471C26.1983 14.3406 26.221 14.9636 26.4107 15.5449C26.6004 16.1263 26.9496 16.6426 27.4184 17.0353C27.8872 17.4279 28.4569 17.6809 29.0625 17.7656V22.5H23.1976L21.5877 17.1341C21.2451 15.9724 20.5346 14.9534 19.5629 14.2304C18.5913 13.5074 17.4111 13.1195 16.2 13.125H5.625C4.38225 13.1265 3.19081 13.6208 2.31205 14.4996C1.43329 15.3783 0.938964 16.5697 0.9375 17.8125V55.3125C0.938964 56.5553 1.43329 57.7467 2.31205 58.6254C3.19081 59.5042 4.38225 59.9985 5.625 60H54.375C55.6178 59.9985 56.8092 59.5042 57.6879 58.6254C58.5667 57.7467 59.061 56.5553 59.0625 55.3125V27.1875C59.061 25.9447 58.5667 24.7533 57.6879 23.8746C56.8092 22.9958 55.6178 22.5015 54.375 22.5ZM28.125 9.84375C28.1254 9.47092 28.2737 9.11348 28.5373 8.84985C28.801 8.58622 29.1584 8.43792 29.5312 8.4375H34.2188C34.5917 8.4375 34.9494 8.58566 35.2131 8.84938C35.4768 9.1131 35.625 9.47079 35.625 9.84375C35.625 10.2167 35.4768 10.5744 35.2131 10.8381C34.9494 11.1018 34.5917 11.25 34.2188 11.25H29.5312C29.1584 11.2496 28.801 11.1013 28.5373 10.8377C28.2737 10.574 28.1254 10.2166 28.125 9.84375ZM28.125 14.5312C28.1254 14.1584 28.2737 13.801 28.5373 13.5373C28.801 13.2737 29.1584 13.1254 29.5312 13.125H34.2188C34.5917 13.125 34.9494 13.2732 35.2131 13.5369C35.4768 13.8006 35.625 14.1583 35.625 14.5312C35.625 14.9042 35.4768 15.2619 35.2131 15.5256C34.9494 15.7893 34.5917 15.9375 34.2188 15.9375H29.5312C29.1584 15.9371 28.801 15.7888 28.5373 15.5252C28.2737 15.2615 28.1254 14.9041 28.125 14.5312ZM30.9375 17.8125H32.8125V22.5H30.9375V17.8125ZM2.8125 17.8125C2.81332 17.0668 3.1099 16.3519 3.63717 15.8247C4.16444 15.2974 4.87933 15.0008 5.625 15H16.2C17.0074 14.9962 17.7941 15.2547 18.4419 15.7367C19.0896 16.2187 19.5633 16.898 19.7916 17.6724L21.2398 22.5H2.8125V17.8125Z" fill="black"/>
<path d="M41.25 27.1875C41.25 26.9389 41.1512 26.7004 40.9754 26.5246C40.7996 26.3488 40.5611 26.25 40.3125 26.25C40.0639 26.25 39.8254 26.3488 39.6496 26.5246C39.4738 26.7004 39.375 26.9389 39.375 27.1875V34.6875C39.375 34.9361 39.4738 35.1746 39.6496 35.3504C39.8254 35.5262 40.0639 35.625 40.3125 35.625C40.5611 35.625 40.7996 35.5262 40.9754 35.3504C41.1512 35.1746 41.25 34.9361 41.25 34.6875V33.75H45.9375C47.1803 33.7485 48.3717 33.2542 49.2504 32.3754C50.1292 31.4967 50.6235 30.3053 50.625 29.0625V16.875C50.625 16.6264 50.5262 16.3879 50.3504 16.2121C50.1746 16.0363 49.9361 15.9375 49.6875 15.9375C48.4447 15.939 47.2533 16.4333 46.3746 17.3121C45.4958 18.1908 45.0015 19.3822 45 20.625V28.125H41.25V27.1875ZM45.9375 30C46.1861 30 46.4246 29.9012 46.6004 29.7254C46.7762 29.5496 46.875 29.3111 46.875 29.0625V20.625C46.8757 20.0435 47.0563 19.4764 47.392 19.0016C47.7277 18.5267 48.202 18.1674 48.75 17.9727V29.0625C48.7492 29.8082 48.4526 30.5231 47.9253 31.0503C47.3981 31.5776 46.6832 31.8742 45.9375 31.875H41.25V30H45.9375Z" fill="black"/>
</g>
<defs>
<clipPath id="clip0_28_2">
<rect width="60" height="60" fill="white"/>
</clipPath>
</defs>
</svg>
