<svg width="60" height="60" viewBox="0 0 60 60" fill="none" xmlns="http://www.w3.org/2000/svg">
<path d="M21.3188 22.5V11.25C21.3188 8.51496 22.6154 5.89193 24.9233 3.95796C27.2311 2.02399 30.3613 0.9375 33.6251 0.9375C36.8889 0.9375 40.0191 2.02399 42.3269 3.95796C44.6348 5.89193 45.9313 8.51496 45.9313 11.25V12.6562C45.9313 13.2779 45.6367 13.874 45.1122 14.3135C44.5876 14.7531 43.8762 15 43.1345 15C42.3927 15 41.6813 14.7531 41.1568 14.3135C40.6323 13.874 40.3376 13.2779 40.3376 12.6562V11.25C40.3376 9.75816 39.6304 8.32742 38.3716 7.27252C37.1127 6.21763 35.4054 5.625 33.6251 5.625C31.8448 5.625 30.1375 6.21763 28.8786 7.27252C27.6198 8.32742 26.9126 9.75816 26.9126 11.25V22.5H21.3188Z" fill="#0022EF"/>
<path d="M29.1498 22.5H19.0811V27.1875H29.1498V22.5Z" fill="#0022EF"/>
<path d="M48.1688 22.5H38.1001V27.1875H48.1688V22.5Z" fill="#0022EF"/>
<path d="M48.1687 27.1875H19.0812C15.3739 27.1875 12.3687 29.7059 12.3687 32.8125V53.4375C12.3687 56.5441 15.3739 59.0625 19.0812 59.0625H48.1687C51.8759 59.0625 54.8812 56.5441 54.8812 53.4375V32.8125C54.8812 29.7059 51.8759 27.1875 48.1687 27.1875Z" fill="#E3E3EE"/>
<path d="M28.0313 51.5625L29.7766 42.7904L29.4242 42.4562C28.5211 41.6088 28.0249 40.5111 28.0313 39.375C28.0313 38.1318 28.6207 36.9395 29.6697 36.0604C30.7187 35.1814 32.1415 34.6875 33.6251 34.6875C35.1086 34.6875 36.5314 35.1814 37.5804 36.0604C38.6295 36.9395 39.2188 38.1318 39.2188 39.375C39.2254 40.511 38.7293 41.6088 37.8264 42.4562L37.474 42.7904L39.2188 51.5625H28.0313Z" fill="#0022EF"/>
<path d="M49.2875 26.325V22.5C49.2875 22.2514 49.1696 22.0129 48.9598 21.8371C48.75 21.6613 48.4655 21.5625 48.1687 21.5625H38.1C37.8033 21.5625 37.5187 21.6613 37.3089 21.8371C37.0991 22.0129 36.9812 22.2514 36.9812 22.5V26.25H30.2687V22.5C30.2687 22.2514 30.1509 22.0129 29.9411 21.8371C29.7313 21.6613 29.4467 21.5625 29.15 21.5625H28.0312V11.25C28.0312 10.0068 28.6206 8.81451 29.6696 7.93544C30.7187 7.05636 32.1414 6.5625 33.625 6.5625C35.1086 6.5625 36.5313 7.05636 37.5804 7.93544C38.6294 8.81451 39.2187 10.0068 39.2187 11.25V12.6562C39.2187 13.5265 39.6313 14.3611 40.3656 14.9764C41.0999 15.5918 42.0959 15.9375 43.1344 15.9375C44.1729 15.9375 45.1688 15.5918 45.9031 14.9764C46.6375 14.3611 47.05 13.5265 47.05 12.6562V11.25C47.05 8.26631 45.6356 5.40483 43.1179 3.29505C40.6002 1.18526 37.1855 0 33.625 0C30.0645 0 26.6498 1.18526 24.1321 3.29505C21.6144 5.40483 20.2 8.26631 20.2 11.25V21.5625H19.0812C18.7845 21.5625 18.5 21.6613 18.2902 21.8371C18.0804 22.0129 17.9625 22.2514 17.9625 22.5V26.325C16.1007 26.5511 14.3981 27.331 13.1657 28.5221C11.9333 29.7132 11.2533 31.236 11.25 32.8125V53.4375C11.2523 55.1774 12.0781 56.8455 13.5463 58.0758C15.0144 59.306 17.005 59.9981 19.0812 60H48.1687C50.245 59.9981 52.2356 59.306 53.7037 58.0758C55.1719 56.8455 55.9977 55.1774 56 53.4375V32.8125C55.9967 31.236 55.3167 29.7132 54.0843 28.5221C52.8519 27.331 51.1493 26.5511 49.2875 26.325ZM39.2187 23.4375H47.05V26.25H39.2187V23.4375ZM22.4375 11.25C22.4375 8.7636 23.6162 6.37903 25.7142 4.62087C27.8123 2.86272 30.6579 1.875 33.625 1.875C36.5921 1.875 39.4377 2.86272 41.5358 4.62087C43.6338 6.37903 44.8125 8.7636 44.8125 11.25V12.6562C44.8125 13.0292 44.6357 13.3869 44.321 13.6506C44.0063 13.9143 43.5794 14.0625 43.1344 14.0625C42.6893 14.0625 42.2625 13.9143 41.9478 13.6506C41.6331 13.3869 41.4562 13.0292 41.4562 12.6562V11.25C41.4562 9.50952 40.6312 7.84032 39.1625 6.60961C37.6939 5.3789 35.702 4.6875 33.625 4.6875C31.548 4.6875 29.5561 5.3789 28.0875 6.60961C26.6188 7.84032 25.7937 9.50952 25.7937 11.25V21.5625H22.4375V11.25ZM20.2 23.4375H28.0312V26.25H20.2V23.4375ZM53.7625 53.4375C53.7608 54.6803 53.1709 55.8717 52.1222 56.7504C51.0735 57.6292 49.6518 58.1235 48.1687 58.125H19.0812C17.5982 58.1235 16.1765 57.6292 15.1278 56.7504C14.0791 55.8717 13.4892 54.6803 13.4875 53.4375V32.8125C13.4892 31.5697 14.0791 30.3783 15.1278 29.4996C16.1765 28.6208 17.5982 28.1265 19.0812 28.125H48.1687C49.6518 28.1265 51.0735 28.6208 52.1222 29.4996C53.1709 30.3783 53.7608 31.5697 53.7625 32.8125V53.4375Z" fill="black"/>
<path d="M33.6251 33.75C31.8455 33.7516 30.1392 34.3448 28.8808 35.3993C27.6224 36.4539 26.9146 37.8837 26.9126 39.375C26.9085 40.7391 27.504 42.0567 28.5853 43.0764L26.9279 51.4082C26.9012 51.5425 26.9097 51.6801 26.9528 51.8114C26.996 51.9426 27.0727 52.0645 27.1777 52.1684C27.2827 52.2723 27.4135 52.3558 27.5609 52.4131C27.7083 52.4703 27.8689 52.5 28.0314 52.5H39.2189C39.3814 52.5 39.5419 52.4703 39.6893 52.4131C39.8367 52.3558 39.9675 52.2723 40.0725 52.1684C40.1775 52.0645 40.2543 51.9426 40.2974 51.8114C40.3406 51.6801 40.349 51.5425 40.3223 51.4082L38.665 43.0764C39.7463 42.0567 40.3417 40.7391 40.3376 39.375C40.3357 37.8837 39.6278 36.4539 38.3694 35.3993C37.111 34.3448 35.4048 33.7516 33.6251 33.75ZM36.3661 42.9203L37.898 50.625H29.3523L30.885 42.9203C30.9151 42.769 30.9005 42.6138 30.8424 42.4684C30.7843 42.3229 30.6845 42.1916 30.5517 42.086C30.109 41.7386 29.7561 41.3188 29.515 40.8524C29.2739 40.3861 29.1497 39.8832 29.1501 39.375C29.1501 38.3804 29.6216 37.4266 30.4608 36.7234C31.3 36.0201 32.4383 35.625 33.6251 35.625C34.812 35.625 35.9502 36.0201 36.7894 36.7234C37.6286 37.4266 38.1001 38.3804 38.1001 39.375C38.1006 39.8833 37.9765 40.3862 37.7355 40.8526C37.4945 41.319 37.1417 41.7389 36.699 42.0863C36.5663 42.1919 36.4666 42.3232 36.4086 42.4686C36.3505 42.614 36.3359 42.7691 36.3661 42.9203Z" fill="black"/>
</svg>
