<svg width="60" height="60" viewBox="0 0 60 60" fill="none" xmlns="http://www.w3.org/2000/svg">
<g clip-path="url(#clip0_22_11236)">
<path d="M5.625 46.875V13.125C5.62612 12.1308 6.02156 11.1776 6.72458 10.4746C7.4276 9.77156 8.38078 9.37612 9.375 9.375H50.625C51.6192 9.37604 52.5725 9.77147 53.2755 10.4745C53.9785 11.1775 54.374 12.1308 54.375 13.125V46.875H5.625Z" fill="#E3E3EE"/>
<path d="M9.375 43.125V13.125H27.1875C27.1626 13.5097 27.2168 13.8954 27.3468 14.2583C27.4769 14.6211 27.68 14.9535 27.9436 15.2347C28.2072 15.516 28.5257 15.7402 28.8794 15.8934C29.2331 16.0467 29.6145 16.1258 30 16.1258C30.3855 16.1258 30.7669 16.0467 31.1206 15.8934C31.4743 15.7402 31.7928 15.516 32.0564 15.2347C32.32 14.9535 32.5231 14.6211 32.6532 14.2583C32.7832 13.8954 32.8374 13.5097 32.8125 13.125H50.625V43.125H9.375Z" fill="#E3E3EE"/>
<path d="M4.6875 54.375C3.69328 54.3739 2.7401 53.9784 2.03708 53.2754C1.33406 52.5724 0.938617 51.6192 0.9375 50.625V46.875H59.0625V50.625C59.0615 51.6192 58.666 52.5725 57.963 53.2755C57.26 53.9785 56.3067 54.374 55.3125 54.375H4.6875Z" fill="#0022EF"/>
<path d="M14.0625 50.625C13.5654 50.6245 13.0887 50.4268 12.7372 50.0753C12.3857 49.7238 12.188 49.2471 12.1875 48.75V46.875H47.8125V48.75C47.8119 49.2471 47.6142 49.7237 47.2627 50.0752C46.9112 50.4267 46.4346 50.6244 45.9375 50.625H14.0625Z" fill="#E3E3EE"/>
<path d="M35.625 26.25H24.375C23.3395 26.25 22.5 27.0895 22.5 28.125V37.5C22.5 38.5355 23.3395 39.375 24.375 39.375H35.625C36.6605 39.375 37.5 38.5355 37.5 37.5V28.125C37.5 27.0895 36.6605 26.25 35.625 26.25Z" fill="#0022EF"/>
<path d="M30 33.75C31.0355 33.75 31.875 32.9105 31.875 31.875C31.875 30.8395 31.0355 30 30 30C28.9645 30 28.125 30.8395 28.125 31.875C28.125 32.9105 28.9645 33.75 30 33.75Z" fill="#E3E3EE"/>
<path d="M51.5625 43.125V13.125C51.5625 12.8764 51.4637 12.6379 51.2879 12.4621C51.1121 12.2863 50.8736 12.1875 50.625 12.1875H32.8125C32.5639 12.1875 32.3254 12.2863 32.1496 12.4621C31.9738 12.6379 31.875 12.8764 31.875 13.125C31.875 13.6223 31.6775 14.0992 31.3258 14.4508C30.9742 14.8025 30.4973 15 30 15C29.5027 15 29.0258 14.8025 28.6742 14.4508C28.3225 14.0992 28.125 13.6223 28.125 13.125C28.125 12.8764 28.0262 12.6379 27.8504 12.4621C27.6746 12.2863 27.4361 12.1875 27.1875 12.1875H9.375C9.12636 12.1875 8.8879 12.2863 8.71209 12.4621C8.53627 12.6379 8.4375 12.8764 8.4375 13.125V43.125C8.4375 43.3736 8.53627 43.6121 8.71209 43.7879C8.8879 43.9637 9.12636 44.0625 9.375 44.0625H50.625C50.8736 44.0625 51.1121 43.9637 51.2879 43.7879C51.4637 43.6121 51.5625 43.3736 51.5625 43.125ZM49.6875 42.1875H10.3125V14.0625H26.3686C26.5763 14.8677 27.0457 15.581 27.703 16.0903C28.3603 16.5996 29.1682 16.876 29.9998 16.876C30.8313 16.876 31.6392 16.5996 32.2966 16.0903C32.9539 15.581 33.4233 14.8677 33.6309 14.0625H49.6875V42.1875Z" fill="#232328"/>
<path d="M30 14.0625C30.5178 14.0625 30.9375 13.6428 30.9375 13.125C30.9375 12.6072 30.5178 12.1875 30 12.1875C29.4822 12.1875 29.0625 12.6072 29.0625 13.125C29.0625 13.6428 29.4822 14.0625 30 14.0625Z" fill="#232328"/>
<path d="M30 18.75C28.7572 18.7515 27.5658 19.2458 26.6871 20.1246C25.8083 21.0033 25.314 22.1947 25.3125 23.4375V25.3125H24.375C23.6293 25.3133 22.9144 25.6099 22.3872 26.1372C21.8599 26.6644 21.5633 27.3793 21.5625 28.125V37.5C21.5633 38.2457 21.8599 38.9606 22.3872 39.4878C22.9144 40.0151 23.6293 40.3117 24.375 40.3125H35.625C36.3707 40.3117 37.0856 40.0151 37.6128 39.4878C38.1401 38.9606 38.4367 38.2457 38.4375 37.5V28.125C38.4367 27.3793 38.1401 26.6644 37.6128 26.1372C37.0856 25.6099 36.3707 25.3133 35.625 25.3125H34.6875V23.4375C34.686 22.1947 34.1917 21.0033 33.3129 20.1246C32.4342 19.2458 31.2428 18.7515 30 18.75ZM27.1875 23.4375C27.1875 22.6916 27.4838 21.9762 28.0113 21.4488C28.5387 20.9213 29.2541 20.625 30 20.625C30.7459 20.625 31.4613 20.9213 31.9887 21.4488C32.5162 21.9762 32.8125 22.6916 32.8125 23.4375V25.3125H27.1875V23.4375ZM36.5625 28.125V37.5C36.5623 37.7486 36.4634 37.9869 36.2877 38.1627C36.1119 38.3384 35.8736 38.4373 35.625 38.4375H24.375C24.1265 38.4372 23.8882 38.3383 23.7124 38.1626C23.5367 37.9868 23.4378 37.7485 23.4375 37.5V28.125C23.4378 27.8765 23.5367 27.6382 23.7124 27.4624C23.8882 27.2867 24.1265 27.1878 24.375 27.1875H35.625C35.8736 27.1877 36.1119 27.2866 36.2877 27.4623C36.4634 27.6381 36.5623 27.8764 36.5625 28.125Z" fill="#232328"/>
<path d="M29.9998 29.0625C29.337 29.0609 28.695 29.294 28.1877 29.7206C27.6804 30.1471 27.3404 30.7394 27.2281 31.3926C27.1158 32.0458 27.2383 32.7177 27.5741 33.2892C27.9098 33.8607 28.437 34.2948 29.0623 34.5147V35.625C29.0623 35.8736 29.1611 36.1121 29.3369 36.2879C29.5127 36.4637 29.7511 36.5625 29.9998 36.5625C30.2484 36.5625 30.4869 36.4637 30.6627 36.2879C30.8385 36.1121 30.9373 35.8736 30.9373 35.625V34.5147C31.5626 34.2948 32.0898 33.8607 32.4255 33.2892C32.7612 32.7177 32.8838 32.0458 32.7715 31.3926C32.6592 30.7394 32.3192 30.1471 31.8119 29.7206C31.3045 29.294 30.6626 29.0609 29.9998 29.0625ZM29.9998 32.8125C29.8144 32.8125 29.6331 32.7575 29.4789 32.6545C29.3248 32.5515 29.2046 32.4051 29.1337 32.2338C29.0627 32.0625 29.0441 31.874 29.0803 31.6921C29.1165 31.5103 29.2058 31.3432 29.3369 31.2121C29.468 31.081 29.635 30.9917 29.8169 30.9555C29.9987 30.9193 30.1872 30.9379 30.3586 31.0089C30.5299 31.0798 30.6763 31.2 30.7793 31.3542C30.8823 31.5083 30.9373 31.6896 30.9373 31.875C30.937 32.1235 30.8381 32.3618 30.6623 32.5376C30.4866 32.7133 30.2483 32.8122 29.9998 32.8125Z" fill="#232328"/>
<path d="M59.0625 45.9375H55.3125V13.125C55.311 11.8822 54.8167 10.6908 53.9379 9.81205C53.0592 8.93329 51.8678 8.43896 50.625 8.4375H9.375C8.13225 8.43896 6.94081 8.93329 6.06205 9.81205C5.18329 10.6908 4.68896 11.8822 4.6875 13.125V45.9375H0.9375C0.68886 45.9375 0.450403 46.0363 0.274587 46.2121C0.098772 46.3879 0 46.6264 0 46.875L0 50.625C0.00146386 51.8678 0.495794 53.0592 1.37455 53.9379C2.25331 54.8167 3.44475 55.311 4.6875 55.3125H55.3125C56.5553 55.311 57.7467 54.8167 58.6254 53.9379C59.5042 53.0592 59.9985 51.8678 60 50.625V46.875C60 46.6264 59.9012 46.3879 59.7254 46.2121C59.5496 46.0363 59.3111 45.9375 59.0625 45.9375ZM6.5625 13.125C6.56332 12.3793 6.8599 11.6644 7.38717 11.1372C7.91444 10.6099 8.62933 10.3133 9.375 10.3125H50.625C51.3707 10.3133 52.0856 10.6099 52.6128 11.1372C53.1401 11.6644 53.4367 12.3793 53.4375 13.125V45.9375H6.5625V13.125ZM13.125 47.8125H46.875V48.75C46.8748 48.9986 46.7759 49.2369 46.6002 49.4127C46.4244 49.5884 46.1861 49.6873 45.9375 49.6875H14.0625C13.814 49.6872 13.5757 49.5883 13.3999 49.4126C13.2242 49.2368 13.1253 48.9985 13.125 48.75V47.8125ZM58.125 50.625C58.1242 51.3707 57.8276 52.0856 57.3003 52.6128C56.7731 53.1401 56.0582 53.4367 55.3125 53.4375H4.6875C3.94183 53.4367 3.22694 53.1401 2.69967 52.6128C2.1724 52.0856 1.87582 51.3707 1.875 50.625V47.8125H11.25V48.75C11.2508 49.4957 11.5474 50.2106 12.0747 50.7378C12.6019 51.2651 13.3168 51.5617 14.0625 51.5625H45.9375C46.6832 51.5617 47.3981 51.2651 47.9253 50.7378C48.4526 50.2106 48.7492 49.4957 48.75 48.75V47.8125H58.125V50.625Z" fill="#232328"/>
</g>
<defs>
<clipPath id="clip0_22_11236">
<rect width="60" height="60" fill="white"/>
</clipPath>
</defs>
</svg>
