<svg width="60" height="60" viewBox="0 0 60 60" fill="none" xmlns="http://www.w3.org/2000/svg">
<path d="M7 46L5 44.029V16L6 12L22 10.5L22.5 3.5L29 2L35 2.5L38.5 6L39 10.5H35.5L34 6H31H25.5V10.5L38 11.5L54.5029 12L55 17.371V34.1739L54.5029 44.5217L52.5 46.5H42L36.5 53L30 57.5L24 54.5L20.5 49.5L18 47H12L7 46Z" fill="#E3E3EE"/>
<path d="M29.0625 45.6768V46.8749H30.9375V45.6768C31.295 45.4704 31.5743 45.1518 31.7323 44.7705C31.8902 44.3892 31.9179 43.9664 31.8111 43.5677C31.7043 43.169 31.4689 42.8167 31.1414 42.5654C30.814 42.3142 30.4128 42.178 30 42.178C29.5872 42.178 29.186 42.3142 28.8586 42.5654C28.5311 42.8167 28.2957 43.169 28.1889 43.5677C28.0821 43.9664 28.1098 44.3892 28.2677 44.7705C28.4257 45.1518 28.705 45.4704 29.0625 45.6768Z" fill="black"/>
<path d="M16.84 40.7143L16 40.1511V32.1429L16.42 31L23 30L30 27L36.7912 30.5L43.5 31.5V38L42 44L36.7912 53L33 56L30 58L22.51 52L17.5 43.5V43V41.7143L17 41.5H16.84V40.7143Z" fill="#0022EF"/>
<path d="M38.875 10.3125V10.8125H39.375H50.6245C51.9835 10.8139 53.2864 11.3543 54.2473 12.3152C55.2082 13.2761 55.7486 14.579 55.75 15.938V42.187C55.7486 43.546 55.2082 44.8489 54.2473 45.8098C53.2864 46.7707 51.9835 47.3111 50.6245 47.3125H41.6597H41.362L41.2201 47.5742C38.701 52.2209 34.8712 56.0243 30.2072 58.5112C30.1433 58.5448 30.0722 58.5624 30 58.5624C29.9278 58.5624 29.8567 58.5448 29.7928 58.5112C25.1288 56.0243 21.299 52.2209 18.7799 47.5742L18.638 47.3125H18.3403H9.3755C8.01655 47.3111 6.71365 46.7707 5.75272 45.8098C4.79185 44.8489 4.25142 43.5461 4.25 42.1872V15.9378C4.25142 14.5789 4.79185 13.2761 5.75272 12.3152C6.71365 11.3543 8.01655 10.8139 9.3755 10.8125H20.625H21.125V10.3125V7.50057C21.1268 5.89311 21.7662 4.35201 22.9029 3.21536C24.0394 2.07877 25.5804 1.43941 27.1878 1.4375H32.8122C34.4196 1.43941 35.9606 2.07878 37.0971 3.21536C38.2338 4.35201 38.8732 5.89311 38.875 7.50057V10.3125ZM22 7.4994V7.5V10.3125V10.8125H22.5H24.375H24.875V10.3125V7.5C24.875 6.88669 25.1186 6.29849 25.5523 5.86482C25.986 5.43114 26.5742 5.1875 27.1875 5.1875H32.8125C33.4258 5.1875 34.014 5.43114 34.4477 5.86482C34.8814 6.29849 35.125 6.88669 35.125 7.5V10.3125V10.8125H35.625H37.5H38V10.3125V7.5V7.4994C37.9984 6.12426 37.4513 4.8059 36.479 3.83353C35.5066 2.86115 34.1882 2.31415 32.8131 2.3125H32.8125L27.1875 2.3125L27.1869 2.3125C25.8118 2.31415 24.4934 2.86115 23.521 3.83353C22.5487 4.8059 22.0016 6.12426 22 7.4994ZM33.75 10.8125H34.25V10.3125V7.5C34.25 7.11875 34.0986 6.75312 33.829 6.48353C33.5594 6.21395 33.1937 6.0625 32.8125 6.0625H27.1875C26.8063 6.0625 26.4406 6.21395 26.171 6.48353C25.9014 6.75312 25.75 7.11875 25.75 7.5V10.3125V10.8125H26.25H33.75ZM54.6132 17.6896L54.875 17.5478V17.25V15.9375C54.875 14.8103 54.4272 13.7293 53.6302 12.9323C52.8332 12.1353 51.7522 11.6875 50.625 11.6875H9.375C8.24783 11.6875 7.16683 12.1353 6.3698 12.9323C5.57277 13.7293 5.125 14.8103 5.125 15.9375V17.25V17.5477L5.38678 17.6896L24.9222 28.2757C25.1321 28.3896 25.3539 28.487 25.5535 28.5745C25.5957 28.5931 25.6369 28.6111 25.6768 28.6289L25.9022 28.7289L26.1188 28.611C27.431 27.8964 28.6339 26.9971 29.6907 25.9408L29.6907 25.9408C29.7727 25.8588 29.884 25.8127 30 25.8127C30.116 25.8127 30.2273 25.8588 30.3093 25.9408L30.3094 25.9409C31.3663 26.9969 32.5691 27.8961 33.8811 28.6109L34.0977 28.729L34.3232 28.6289C34.3626 28.6113 34.4034 28.5935 34.4451 28.5752C34.6449 28.4875 34.8673 28.3899 35.077 28.2756C35.0772 28.2755 35.0774 28.2754 35.0776 28.2753L54.6132 17.6896ZM5.86314 18.9469L5.125 18.5471V19.3866V42.1875C5.125 43.3147 5.57277 44.3957 6.3698 45.1927C7.16683 45.9897 8.24783 46.4375 9.375 46.4375H17.4094H18.1818L17.8655 45.7328C16.3067 42.2591 15.5006 38.4949 15.5 34.6875C15.5 34.6875 15.5 34.6875 15.5 34.6874V30.9375C15.5 30.8215 15.5461 30.7102 15.6281 30.6281C15.7102 30.5461 15.8215 30.5 15.9375 30.5H18.6788H18.6795C20.428 30.4974 22.1636 30.2 23.8132 29.6205L24.8778 29.2465L23.8856 28.7091L5.86314 18.9469ZM29.7566 57.493L30 57.6287L30.2434 57.493C34.3045 55.2298 37.6867 51.9219 40.0395 47.912C42.3923 43.9021 43.6302 39.3361 43.625 34.6869V31.875V31.375H43.125L41.3166 31.375L41.3151 31.375C37.2598 31.3867 33.3454 29.8879 30.335 27.1707L30 26.8683L29.665 27.1707C26.6546 29.8879 22.7402 31.3867 18.6849 31.375H18.6834H16.875H16.375V31.875V34.6869C16.3698 39.3361 17.6077 43.9021 19.9605 47.912C22.3133 51.9219 25.6955 55.2298 29.7566 57.493ZM42.1345 45.7328L41.8182 46.4375H42.5906H50.625C51.7522 46.4375 52.8332 45.9897 53.6302 45.1927C54.4272 44.3957 54.875 43.3147 54.875 42.1875V19.3866V18.5471L54.1369 18.9469L36.1144 28.7091L35.1222 29.2465L36.1868 29.6205C37.8349 30.1995 39.5688 30.4968 41.3157 30.5H41.3166H44.0625C44.1785 30.5 44.2898 30.5461 44.3719 30.6281C44.4539 30.7102 44.5 30.8215 44.5 30.9375V34.6874C44.5 34.6875 44.5 34.6875 44.5 34.6875C44.4994 38.4949 43.6932 42.2591 42.1345 45.7328Z" fill="#E3E3EE" stroke="black"/>
<path d="M29.0611 43.8848L29 43.8485V43.3318L29.0305 43.2581L29.5091 43.1935L30.0182 43L30.5121 43.2258L31 43.2903V43.7097L30.8909 44.0968L30.5121 44.6774L30.2364 44.871L30.0182 45L29.4735 44.6129L29.1091 44.0645V44.0323V43.9493L29.0727 43.9355H29.0611V43.8848Z" fill="white"/>
<path d="M24.3665 44.202L24 43.9884V40.9507L24.1833 40.5172L27.0545 40.1379H30L33.0725 40.3276L36 40.7069V43.1724L35.3455 45.4483L36 49.6897L31.4182 50H30.5455H24.1833L24 45.4483L24.6545 45.069V44.5813L24.4364 44.5H24.3665V44.202Z" fill="#E3E3EE"/>
<path d="M35.625 39.375V37.5C35.625 36.0082 35.0324 34.5774 33.9775 33.5225C32.9226 32.4676 31.4918 31.875 30 31.875C28.5082 31.875 27.0774 32.4676 26.0225 33.5225C24.9676 34.5774 24.375 36.0082 24.375 37.5V39.375C24.1264 39.375 23.8879 39.4738 23.7121 39.6496C23.5363 39.8254 23.4375 40.0639 23.4375 40.3125V49.6875C23.4375 49.9361 23.5363 50.1746 23.7121 50.3504C23.8879 50.5262 24.1264 50.625 24.375 50.625H35.625C35.8736 50.625 36.1121 50.5262 36.2879 50.3504C36.4637 50.1746 36.5625 49.9361 36.5625 49.6875V40.3125C36.5625 40.0639 36.4637 39.8254 36.2879 39.6496C36.1121 39.4738 35.8736 39.375 35.625 39.375ZM26.25 37.5C26.25 36.5054 26.6451 35.5516 27.3484 34.8484C28.0516 34.1451 29.0054 33.75 30 33.75C30.9946 33.75 31.9484 34.1451 32.6516 34.8484C33.3549 35.5516 33.75 36.5054 33.75 37.5V39.375H26.25V37.5ZM34.6875 48.75H25.3125V41.25H34.6875V48.75Z" fill="black"/>
<path d="M30 42C29.5286 41.9989 29.0721 42.1647 28.7113 42.4679C28.3505 42.7712 28.1087 43.1925 28.0289 43.657C27.949 44.1215 28.0362 44.5993 28.2749 45.0057C28.5137 45.412 28.8886 45.7208 29.3333 45.8771V47.3333C29.3333 47.5101 29.4035 47.6797 29.5286 47.8047C29.6536 47.9298 29.8232 48 30 48C30.1768 48 30.3464 47.9298 30.4714 47.8047C30.5965 47.6797 30.6667 47.5101 30.6667 47.3333V45.8771C31.1114 45.7208 31.4863 45.412 31.7251 45.0057C31.9638 44.5993 32.051 44.1215 31.9711 43.657C31.8913 43.1925 31.6495 42.7712 31.2887 42.4679C30.9279 42.1647 30.4714 41.9989 30 42ZM30 44.6667C29.8681 44.6667 29.7392 44.6276 29.6296 44.5543C29.52 44.4811 29.4345 44.3769 29.384 44.2551C29.3336 44.1333 29.3204 43.9993 29.3461 43.8699C29.3718 43.7406 29.4353 43.6218 29.5286 43.5286C29.6218 43.4354 29.7406 43.3719 29.8699 43.3461C29.9993 43.3204 30.1333 43.3336 30.2551 43.3841C30.377 43.4345 30.4811 43.52 30.5544 43.6296C30.6276 43.7393 30.6667 43.8681 30.6667 44C30.6666 44.1768 30.5963 44.3463 30.4713 44.4713C30.3463 44.5963 30.1768 44.6666 30 44.6667Z" fill="black"/>
</svg>
