<svg width="60" height="60" viewBox="0 0 60 60" fill="none" xmlns="http://www.w3.org/2000/svg">
<path d="M17.0819 51.8957C14.0692 50.4604 11.5266 48.2207 9.74408 45.432C7.96153 42.6432 7.01072 39.4175 7 36.1226V11.7617C15.5014 10.9039 23.5301 7.4964 30 2C36.47 7.49625 44.4987 10.9036 53 11.7613V36.1222C52.9893 39.4171 52.0385 42.6428 50.2559 45.4315C48.4734 48.2203 45.9308 50.46 42.9181 51.8953L30 58L17.0819 51.8957Z" fill="#E3E3EE"/>
<path d="M35.125 25H23.875C22.8395 25 22 25.9594 22 27.1429V37.8571C22 39.0406 22.8395 40 23.875 40H35.125C36.1605 40 37 39.0406 37 37.8571V27.1429C37 25.9594 36.1605 25 35.125 25Z" fill="#E90022"/>
<path d="M29 34C30.1046 34 31 33.1046 31 32C31 30.8954 30.1046 30 29 30C27.8954 30 27 30.8954 27 32C27 33.1046 27.8954 34 29 34Z" fill="#E3E3EE"/>
<path d="M53.4924 10.3139C38.1985 9.4139 30.8038 0.440813 30.7312 0.350157C30.6433 0.240949 30.5321 0.152814 30.4057 0.0922214C30.2792 0.0316291 30.1409 0.000117612 30.0007 0H29.9991C29.8586 0.000148357 29.72 0.0318127 29.5935 0.0926586C29.4669 0.153505 29.3556 0.241981 29.2678 0.351563C29.1955 0.44175 21.8507 9.41119 6.50737 10.3139C6.26873 10.328 6.04448 10.4326 5.88046 10.6066C5.71645 10.7805 5.62506 11.0105 5.625 11.2495V36.0141C5.63705 39.7216 6.69037 43.3511 8.66492 46.4891C10.6395 49.6271 13.4558 52.1473 16.7931 53.7625L29.5944 59.9071C29.721 59.9679 29.8596 59.9995 30 59.9995C30.1404 59.9995 30.279 59.9679 30.4056 59.9071L43.2069 53.7625C46.5442 52.1473 49.3605 49.6271 51.3351 46.4891C53.3096 43.3511 54.363 39.7216 54.375 36.0141V11.2495C54.3749 11.0104 54.2835 10.7804 54.1195 10.6065C53.9554 10.4326 53.7311 10.3279 53.4924 10.3139ZM52.5 36.0141C52.4891 39.3685 51.5361 42.6523 49.7496 45.4915C47.9632 48.3307 45.4151 50.6109 42.3958 52.0724L30 58.022L17.6042 52.0724C14.5849 50.6109 12.0368 48.3307 10.2504 45.4915C8.46393 42.6523 7.51094 39.3685 7.5 36.0141V12.1248C20.501 11.0976 27.7757 4.65956 30 2.34103C32.2243 4.65956 39.499 11.0973 52.5 12.1248V36.0141Z" fill="black"/>
<path d="M24.2222 21.2083V24.3333H23.1667C22.3271 24.3342 21.5222 24.6638 20.9285 25.2496C20.3348 25.8355 20.0009 26.6298 20 27.4583V37.875C20.0009 38.7035 20.3348 39.4979 20.9285 40.0837C21.5222 40.6696 22.3271 40.9991 23.1667 41H35.8333C36.6729 40.9991 37.4778 40.6696 38.0715 40.0837C38.6652 39.4979 38.9991 38.7035 39 37.875V27.4583C38.9991 26.6298 38.6652 25.8355 38.0715 25.2496C37.4778 24.6638 36.6729 24.3342 35.8333 24.3333H34.7778V21.2083C34.7778 19.827 34.2217 18.5022 33.232 17.5255C32.2422 16.5487 30.8998 16 29.5 16C28.1002 16 26.7578 16.5487 25.768 17.5255C24.7783 18.5022 24.2222 19.827 24.2222 21.2083ZM36.8889 27.4583V37.875C36.8885 38.1512 36.7772 38.4159 36.5793 38.6112C36.3814 38.8064 36.1132 38.9163 35.8333 38.9167H23.1667C22.8868 38.9163 22.6186 38.8064 22.4207 38.6112C22.2228 38.4159 22.1115 38.1512 22.1111 37.875V27.4583C22.1115 27.1822 22.2228 26.9174 22.4207 26.7222C22.6186 26.5269 22.8868 26.417 23.1667 26.4167H35.8333C36.1132 26.417 36.3814 26.5269 36.5793 26.7222C36.7772 26.9174 36.8885 27.1822 36.8889 27.4583ZM32.6667 21.2083V24.3333H26.3333V21.2083C26.3333 20.3795 26.667 19.5847 27.2608 18.9986C27.8547 18.4126 28.6601 18.0833 29.5 18.0833C30.3399 18.0833 31.1453 18.4126 31.7392 18.9986C32.333 19.5847 32.6667 20.3795 32.6667 21.2083Z" fill="black"/>
<path d="M29.5 29C28.6751 28.9983 27.8762 29.247 27.2448 29.7019C26.6134 30.1569 26.1903 30.7887 26.0505 31.4855C25.9107 32.1822 26.0633 32.8989 26.4811 33.5085C26.8989 34.118 27.5551 34.5812 28.3332 34.8157V36C28.3332 36.2652 28.4562 36.5196 28.675 36.7071C28.8938 36.8946 29.1906 37 29.5 37C29.8094 37 30.1062 36.8946 30.325 36.7071C30.5438 36.5196 30.6668 36.2652 30.6668 36V34.8157C31.4449 34.5812 32.1011 34.118 32.5189 33.5085C32.9367 32.8989 33.0893 32.1822 32.9495 31.4855C32.8097 30.7887 32.3866 30.1569 31.7552 29.7019C31.1238 29.247 30.3249 28.9983 29.5 29ZM29.5 33C29.2692 33 29.0437 32.9414 28.8518 32.8315C28.6599 32.7216 28.5104 32.5654 28.4221 32.3827C28.3338 32.2 28.3106 31.9989 28.3557 31.8049C28.4007 31.6109 28.5118 31.4328 28.675 31.2929C28.8382 31.153 29.046 31.0578 29.2724 31.0192C29.4987 30.9806 29.7333 31.0004 29.9465 31.0761C30.1597 31.1518 30.3419 31.28 30.4701 31.4444C30.5983 31.6089 30.6668 31.8022 30.6668 32C30.6664 32.2651 30.5433 32.5193 30.3246 32.7067C30.1059 32.8942 29.8093 32.9997 29.5 33Z" fill="black"/>
</svg>
