<svg width="60" height="60" viewBox="0 0 60 60" fill="none" xmlns="http://www.w3.org/2000/svg">
<path d="M6 58.25V2H36.9375L45.375 10.4375V58.25H6Z" fill="#E3E3EE"/>
<path d="M15.9358 25.3125C14.9682 25.3135 14.0168 25.065 13.1734 24.5909C12.33 24.1169 11.6231 23.4332 11.1211 22.6062C10.6191 21.7791 10.3389 20.8365 10.3076 19.8695C10.2763 18.9025 10.495 17.9437 10.9424 17.0859C11.3899 16.2281 12.0511 15.5002 12.8621 14.9726C13.6731 14.4449 14.6064 14.1354 15.572 14.0739C16.5376 14.0124 17.5027 14.2009 18.3741 14.6214C19.2454 15.0418 19.9937 15.6799 20.5464 16.474L20.8265 16.875H37.4983L40.3108 19.6875L37.4983 22.5H34.6858L32.8108 20.625L30.9358 22.5L29.0608 20.625L27.1858 22.5L25.3108 20.625L23.4358 22.5H20.8265L20.5464 22.901C20.0285 23.6442 19.339 24.2514 18.5363 24.6713C17.7337 25.0911 16.8416 25.311 15.9358 25.3125Z" fill="#E90022"/>
<path d="M15.9375 21.5625C16.973 21.5625 17.8125 20.723 17.8125 19.6875C17.8125 18.652 16.973 17.8125 15.9375 17.8125C14.902 17.8125 14.0625 18.652 14.0625 19.6875C14.0625 20.723 14.902 21.5625 15.9375 21.5625Z" fill="#E3E3EE"/>
<path d="M36.5625 1.875V10.3125H45L36.5625 1.875Z" fill="#E3E3EE"/>
<path d="M52.5 40.3125H37.5C36.4645 40.3125 35.625 41.152 35.625 42.1875V56.25C35.625 57.2855 36.4645 58.125 37.5 58.125H52.5C53.5355 58.125 54.375 57.2855 54.375 56.25V42.1875C54.375 41.152 53.5355 40.3125 52.5 40.3125Z" fill="#E90022"/>
<path d="M45 49.6875C46.0355 49.6875 46.875 48.848 46.875 47.8125C46.875 46.777 46.0355 45.9375 45 45.9375C43.9645 45.9375 43.125 46.777 43.125 47.8125C43.125 48.848 43.9645 49.6875 45 49.6875Z" fill="#E3E3EE"/>
<path d="M52.5 39.375H50.625V36.5625C50.625 35.0707 50.0324 33.6399 48.9775 32.585C47.9226 31.5301 46.4918 30.9375 45 30.9375C43.5082 30.9375 42.0774 31.5301 41.0225 32.585C39.9676 33.6399 39.375 35.0707 39.375 36.5625V39.375H37.5C36.7543 39.3758 36.0394 39.6724 35.5122 40.1997C34.9849 40.7269 34.6883 41.4418 34.6875 42.1875V56.25C34.6883 56.9957 34.9849 57.7106 35.5122 58.2378C36.0394 58.7651 36.7543 59.0617 37.5 59.0625H52.5C53.2457 59.0617 53.9606 58.7651 54.4878 58.2378C55.0151 57.7106 55.3117 56.9957 55.3125 56.25V42.1875C55.3117 41.4418 55.0151 40.7269 54.4878 40.1997C53.9606 39.6724 53.2457 39.3758 52.5 39.375ZM41.25 36.5625C41.2524 35.7334 41.5298 34.9285 42.0388 34.2739C42.5477 33.6194 43.2595 33.1522 44.0625 32.9456V36.5625C44.0625 36.8111 44.1613 37.0496 44.3371 37.2254C44.5129 37.4012 44.7514 37.5 45 37.5C45.2486 37.5 45.4871 37.4012 45.6629 37.2254C45.8387 37.0496 45.9375 36.8111 45.9375 36.5625V32.9456C46.7405 33.1522 47.4523 33.6194 47.9612 34.2739C48.4702 34.9285 48.7476 35.7334 48.75 36.5625V39.375H41.25V36.5625ZM53.4375 56.25C53.4374 56.4986 53.3385 56.737 53.1627 56.9127C52.987 57.0885 52.7486 57.1874 52.5 57.1875H37.5C37.2514 57.1874 37.013 57.0885 36.8373 56.9127C36.6615 56.737 36.5626 56.4986 36.5625 56.25V42.1875C36.5626 41.9389 36.6615 41.7005 36.8373 41.5248C37.013 41.349 37.2514 41.2501 37.5 41.25H52.5C52.7486 41.2501 52.987 41.349 53.1627 41.5248C53.3385 41.7005 53.4374 41.9389 53.4375 42.1875V56.25Z" fill="#232328"/>
<path d="M44.9998 45C44.337 44.9984 43.695 45.2315 43.1877 45.6581C42.6804 46.0846 42.3404 46.6769 42.2281 47.3301C42.1158 47.9833 42.2383 48.6552 42.5741 49.2267C42.9098 49.7982 43.437 50.2323 44.0623 50.4522V52.5C44.0623 52.7486 44.1611 52.9871 44.3369 53.1629C44.5127 53.3387 44.7511 53.4375 44.9998 53.4375C45.2484 53.4375 45.4869 53.3387 45.6627 53.1629C45.8385 52.9871 45.9373 52.7486 45.9373 52.5V50.4522C46.5625 50.2323 47.0898 49.7982 47.4255 49.2267C47.7612 48.6552 47.8838 47.9833 47.7715 47.3301C47.6592 46.6769 47.3192 46.0846 46.8119 45.6581C46.3045 45.2315 45.6626 44.9984 44.9998 45ZM44.9998 48.75C44.8144 48.75 44.6331 48.695 44.4789 48.592C44.3248 48.489 44.2046 48.3426 44.1337 48.1713C44.0627 48 44.0441 47.8115 44.0803 47.6296C44.1165 47.4478 44.2058 47.2807 44.3369 47.1496C44.468 47.0185 44.635 46.9292 44.8169 46.893C44.9987 46.8568 45.1872 46.8754 45.3586 46.9464C45.5299 47.0173 45.6763 47.1375 45.7793 47.2917C45.8823 47.4458 45.9373 47.6271 45.9373 47.8125C45.9371 48.0611 45.8383 48.2995 45.6625 48.4753C45.4868 48.651 45.2484 48.7499 44.9998 48.75Z" fill="#232328"/>
<path d="M31.875 57.1875H6.5625V2.8125H35.625V10.3125C35.625 10.5611 35.7238 10.7996 35.8996 10.9754C36.0754 11.1512 36.3139 11.25 36.5625 11.25H44.0625V28.125C44.0625 28.3736 44.1613 28.6121 44.3371 28.7879C44.5129 28.9637 44.7514 29.0625 45 29.0625C45.2486 29.0625 45.4871 28.9637 45.6629 28.7879C45.8387 28.6121 45.9375 28.3736 45.9375 28.125V10.3125C45.9298 10.0649 45.8316 9.82866 45.6616 9.64847L37.2265 1.21341C37.0452 1.04517 36.8097 0.947308 36.5625 0.9375H5.625C5.37636 0.9375 5.1379 1.03627 4.96209 1.21209C4.78627 1.3879 4.6875 1.62636 4.6875 1.875V58.125C4.6875 58.3736 4.78627 58.6121 4.96209 58.7879C5.1379 58.9637 5.37636 59.0625 5.625 59.0625H31.875C32.1236 59.0625 32.3621 58.9637 32.5379 58.7879C32.7137 58.6121 32.8125 58.3736 32.8125 58.125C32.8125 57.8764 32.7137 57.6379 32.5379 57.4621C32.3621 57.2863 32.1236 57.1875 31.875 57.1875ZM37.5 9.375V4.13822L42.7368 9.375H37.5Z" fill="#232328"/>
<path d="M15.9375 16.875C15.3812 16.875 14.8375 17.0399 14.375 17.349C13.9124 17.658 13.552 18.0973 13.3391 18.6112C13.1262 19.1251 13.0705 19.6906 13.179 20.2362C13.2876 20.7818 13.5554 21.2829 13.9488 21.6762C14.3421 22.0696 14.8432 22.3374 15.3888 22.446C15.9344 22.5545 16.4999 22.4988 17.0138 22.2859C17.5277 22.073 17.967 21.7126 18.276 21.25C18.5851 20.7875 18.75 20.2438 18.75 19.6875C18.7492 18.9418 18.4526 18.2269 17.9253 17.6997C17.3981 17.1724 16.6832 16.8758 15.9375 16.875ZM15.9375 20.625C15.7521 20.625 15.5708 20.57 15.4167 20.467C15.2625 20.364 15.1423 20.2176 15.0714 20.0463C15.0004 19.875 14.9818 19.6865 15.018 19.5046C15.0542 19.3227 15.1435 19.1557 15.2746 19.0246C15.4057 18.8935 15.5727 18.8042 15.7546 18.768C15.9365 18.7318 16.125 18.7504 16.2963 18.8214C16.4676 18.8923 16.614 19.0125 16.717 19.1667C16.82 19.3208 16.875 19.5021 16.875 19.6875C16.8749 19.9361 16.776 20.1745 16.6003 20.3502C16.4245 20.526 16.1861 20.6249 15.9375 20.625Z" fill="#232328"/>
<path d="M40.9733 19.0247L38.1608 16.2122C38.0738 16.1251 37.9705 16.056 37.8568 16.0089C37.743 15.9617 37.6211 15.9375 37.498 15.9375H21.3152C20.5168 14.791 19.3734 13.9291 18.0513 13.4774C16.7292 13.0257 15.2975 13.0078 13.9645 13.4262C12.6315 13.8445 11.4668 14.6774 10.6399 15.8036C9.81307 16.9297 9.36719 18.2904 9.36719 19.6875C9.36719 21.0846 9.81307 22.4453 10.6399 23.5714C11.4668 24.6976 12.6315 25.5305 13.9645 25.9488C15.2975 26.3672 16.7292 26.3493 18.0513 25.8976C19.3734 25.4459 20.5168 24.584 21.3152 23.4375H23.4355C23.5586 23.4375 23.6805 23.4133 23.7943 23.3661C23.908 23.319 24.0113 23.2499 24.0983 23.1628L25.3105 21.9507L26.5227 23.1628C26.6097 23.2499 26.713 23.319 26.8268 23.3661C26.9405 23.4133 27.0624 23.4375 27.1855 23.4375C27.3086 23.4375 27.4305 23.4133 27.5443 23.3661C27.658 23.319 27.7613 23.2499 27.8483 23.1628L29.0605 21.9507L30.2727 23.1628C30.3597 23.2499 30.463 23.319 30.5768 23.3661C30.6905 23.4133 30.8124 23.4375 30.9355 23.4375C31.0586 23.4375 31.1805 23.4133 31.2943 23.3661C31.408 23.319 31.5113 23.2499 31.5983 23.1628L32.8105 21.9507L34.0227 23.1628C34.1097 23.2499 34.213 23.319 34.3268 23.3661C34.4405 23.4133 34.5624 23.4375 34.6855 23.4375H37.498C37.6211 23.4375 37.743 23.4133 37.8568 23.3661C37.9705 23.319 38.0738 23.2499 38.1608 23.1628L40.9733 20.3503C41.0604 20.2633 41.1295 20.16 41.1766 20.0462C41.2238 19.9325 41.248 19.8106 41.248 19.6875C41.248 19.5644 41.2238 19.4425 41.1766 19.3288C41.1295 19.215 41.0604 19.1117 40.9733 19.0247ZM37.1098 21.5625H35.0737L33.4733 19.9622C33.3863 19.8751 33.283 19.806 33.1693 19.7589C33.0555 19.7117 32.9336 19.6875 32.8105 19.6875C32.6874 19.6875 32.5655 19.7117 32.4518 19.7589C32.338 19.806 32.2347 19.8751 32.1477 19.9622L30.9355 21.1743L29.7233 19.9622C29.6363 19.8751 29.533 19.806 29.4193 19.7589C29.3055 19.7117 29.1836 19.6875 29.0605 19.6875C28.9374 19.6875 28.8155 19.7117 28.7018 19.7589C28.588 19.806 28.4847 19.8751 28.3977 19.9622L27.1855 21.1743L25.9733 19.9622C25.8863 19.8751 25.783 19.806 25.6693 19.7589C25.5555 19.7117 25.4336 19.6875 25.3105 19.6875C25.1874 19.6875 25.0655 19.7117 24.9518 19.7589C24.838 19.806 24.7347 19.8751 24.6477 19.9622L23.0473 21.5625H20.8011C20.6368 21.5626 20.4754 21.6058 20.333 21.688C20.1907 21.7701 20.0724 21.8881 19.99 22.0303C19.4742 22.9241 18.6779 23.6228 17.7246 24.0179C16.7712 24.413 15.7141 24.4824 14.7173 24.2154C13.7204 23.9484 12.8396 23.36 12.2113 22.5413C11.583 21.7226 11.2425 20.7195 11.2425 19.6875C11.2425 18.6555 11.583 17.6524 12.2113 16.8337C12.8396 16.015 13.7204 15.4266 14.7173 15.1596C15.7141 14.8926 16.7712 14.962 17.7246 15.3571C18.6779 15.7522 19.4742 16.4509 19.99 17.3447C20.0724 17.4869 20.1907 17.6049 20.333 17.687C20.4754 17.7692 20.6368 17.8124 20.8011 17.8125H37.1098L38.9848 19.6875L37.1098 21.5625Z" fill="#232328"/>
<path d="M11.25 30H15C15.2486 30 15.4871 29.9012 15.6629 29.7254C15.8387 29.5496 15.9375 29.3111 15.9375 29.0625C15.9375 28.8139 15.8387 28.5754 15.6629 28.3996C15.4871 28.2238 15.2486 28.125 15 28.125H11.25C11.0014 28.125 10.7629 28.2238 10.5871 28.3996C10.4113 28.5754 10.3125 28.8139 10.3125 29.0625C10.3125 29.3111 10.4113 29.5496 10.5871 29.7254C10.7629 29.9012 11.0014 30 11.25 30Z" fill="#232328"/>
<path d="M41.25 29.0625C41.25 28.8139 41.1512 28.5754 40.9754 28.3996C40.7996 28.2238 40.5611 28.125 40.3125 28.125H17.8125C17.5639 28.125 17.3254 28.2238 17.1496 28.3996C16.9738 28.5754 16.875 28.8139 16.875 29.0625C16.875 29.3111 16.9738 29.5496 17.1496 29.7254C17.3254 29.9012 17.5639 30 17.8125 30H40.3125C40.5611 30 40.7996 29.9012 40.9754 29.7254C41.1512 29.5496 41.25 29.3111 41.25 29.0625Z" fill="#232328"/>
<path d="M35.625 35.625H31.875C31.6264 35.625 31.3879 35.7238 31.2121 35.8996C31.0363 36.0754 30.9375 36.3139 30.9375 36.5625C30.9375 36.8111 31.0363 37.0496 31.2121 37.2254C31.3879 37.4012 31.6264 37.5 31.875 37.5H35.625C35.8736 37.5 36.1121 37.4012 36.2879 37.2254C36.4637 37.0496 36.5625 36.8111 36.5625 36.5625C36.5625 36.3139 36.4637 36.0754 36.2879 35.8996C36.1121 35.7238 35.8736 35.625 35.625 35.625Z" fill="#232328"/>
<path d="M30 36.5625C30 36.3139 29.9012 36.0754 29.7254 35.8996C29.5496 35.7238 29.3111 35.625 29.0625 35.625H11.25C11.0014 35.625 10.7629 35.7238 10.5871 35.8996C10.4113 36.0754 10.3125 36.3139 10.3125 36.5625C10.3125 36.8111 10.4113 37.0496 10.5871 37.2254C10.7629 37.4012 11.0014 37.5 11.25 37.5H29.0625C29.3111 37.5 29.5496 37.4012 29.7254 37.2254C29.9012 37.0496 30 36.8111 30 36.5625Z" fill="#232328"/>
<path d="M35.625 31.875H31.875C31.6264 31.875 31.3879 31.9738 31.2121 32.1496C31.0363 32.3254 30.9375 32.5639 30.9375 32.8125C30.9375 33.0611 31.0363 33.2996 31.2121 33.4754C31.3879 33.6512 31.6264 33.75 31.875 33.75H35.625C35.8736 33.75 36.1121 33.6512 36.2879 33.4754C36.4637 33.2996 36.5625 33.0611 36.5625 32.8125C36.5625 32.5639 36.4637 32.3254 36.2879 32.1496C36.1121 31.9738 35.8736 31.875 35.625 31.875Z" fill="#232328"/>
<path d="M29.0625 31.875H11.25C11.0014 31.875 10.7629 31.9738 10.5871 32.1496C10.4113 32.3254 10.3125 32.5639 10.3125 32.8125C10.3125 33.0611 10.4113 33.2996 10.5871 33.4754C10.7629 33.6512 11.0014 33.75 11.25 33.75H29.0625C29.3111 33.75 29.5496 33.6512 29.7254 33.4754C29.9012 33.2996 30 33.0611 30 32.8125C30 32.5639 29.9012 32.3254 29.7254 32.1496C29.5496 31.9738 29.3111 31.875 29.0625 31.875Z" fill="#232328"/>
<path d="M19.6875 40.3125C19.6875 40.0639 19.5887 39.8254 19.4129 39.6496C19.2371 39.4738 18.9986 39.375 18.75 39.375H11.25C11.0014 39.375 10.7629 39.4738 10.5871 39.6496C10.4113 39.8254 10.3125 40.0639 10.3125 40.3125C10.3125 40.5611 10.4113 40.7996 10.5871 40.9754C10.7629 41.1512 11.0014 41.25 11.25 41.25H18.75C18.9986 41.25 19.2371 41.1512 19.4129 40.9754C19.5887 40.7996 19.6875 40.5611 19.6875 40.3125Z" fill="#232328"/>
<path d="M31.875 39.375H21.5625C21.3139 39.375 21.0754 39.4738 20.8996 39.6496C20.7238 39.8254 20.625 40.0639 20.625 40.3125C20.625 40.5611 20.7238 40.7996 20.8996 40.9754C21.0754 41.1512 21.3139 41.25 21.5625 41.25H31.875C32.1236 41.25 32.3621 41.1512 32.5379 40.9754C32.7137 40.7996 32.8125 40.5611 32.8125 40.3125C32.8125 40.0639 32.7137 39.8254 32.5379 39.6496C32.3621 39.4738 32.1236 39.375 31.875 39.375Z" fill="#232328"/>
<path d="M15 43.125H11.25C11.0014 43.125 10.7629 43.2238 10.5871 43.3996C10.4113 43.5754 10.3125 43.8139 10.3125 44.0625C10.3125 44.3111 10.4113 44.5496 10.5871 44.7254C10.7629 44.9012 11.0014 45 11.25 45H15C15.2486 45 15.4871 44.9012 15.6629 44.7254C15.8387 44.5496 15.9375 44.3111 15.9375 44.0625C15.9375 43.8139 15.8387 43.5754 15.6629 43.3996C15.4871 43.2238 15.2486 43.125 15 43.125Z" fill="#232328"/>
<path d="M31.875 43.125H17.8125C17.5639 43.125 17.3254 43.2238 17.1496 43.3996C16.9738 43.5754 16.875 43.8139 16.875 44.0625C16.875 44.3111 16.9738 44.5496 17.1496 44.7254C17.3254 44.9012 17.5639 45 17.8125 45H31.875C32.1236 45 32.3621 44.9012 32.5379 44.7254C32.7137 44.5496 32.8125 44.3111 32.8125 44.0625C32.8125 43.8139 32.7137 43.5754 32.5379 43.3996C32.3621 43.2238 32.1236 43.125 31.875 43.125Z" fill="#232328"/>
<path d="M25.3125 47.8125C25.3125 47.5639 25.2137 47.3254 25.0379 47.1496C24.8621 46.9738 24.6236 46.875 24.375 46.875H11.25C11.0014 46.875 10.7629 46.9738 10.5871 47.1496C10.4113 47.3254 10.3125 47.5639 10.3125 47.8125C10.3125 48.0611 10.4113 48.2996 10.5871 48.4754C10.7629 48.6512 11.0014 48.75 11.25 48.75H24.375C24.6236 48.75 24.8621 48.6512 25.0379 48.4754C25.2137 48.2996 25.3125 48.0611 25.3125 47.8125Z" fill="#232328"/>
<path d="M31.875 46.875H27.1875C26.9389 46.875 26.7004 46.9738 26.5246 47.1496C26.3488 47.3254 26.25 47.5639 26.25 47.8125C26.25 48.0611 26.3488 48.2996 26.5246 48.4754C26.7004 48.6512 26.9389 48.75 27.1875 48.75H31.875C32.1236 48.75 32.3621 48.6512 32.5379 48.4754C32.7137 48.2996 32.8125 48.0611 32.8125 47.8125C32.8125 47.5639 32.7137 47.3254 32.5379 47.1496C32.3621 46.9738 32.1236 46.875 31.875 46.875Z" fill="#232328"/>
<path d="M11.25 50.625C11.0014 50.625 10.7629 50.7238 10.5871 50.8996C10.4113 51.0754 10.3125 51.3139 10.3125 51.5625C10.3125 51.8111 10.4113 52.0496 10.5871 52.2254C10.7629 52.4012 11.0014 52.5 11.25 52.5H15C15.2486 52.5 15.4871 52.4012 15.6629 52.2254C15.8387 52.0496 15.9375 51.8111 15.9375 51.5625C15.9375 51.3139 15.8387 51.0754 15.6629 50.8996C15.4871 50.7238 15.2486 50.625 15 50.625H11.25Z" fill="#232328"/>
<path d="M31.875 50.625H17.8125C17.5639 50.625 17.3254 50.7238 17.1496 50.8996C16.9738 51.0754 16.875 51.3139 16.875 51.5625C16.875 51.8111 16.9738 52.0496 17.1496 52.2254C17.3254 52.4012 17.5639 52.5 17.8125 52.5H31.875C32.1236 52.5 32.3621 52.4012 32.5379 52.2254C32.7137 52.0496 32.8125 51.8111 32.8125 51.5625C32.8125 51.3139 32.7137 51.0754 32.5379 50.8996C32.3621 50.7238 32.1236 50.625 31.875 50.625Z" fill="#232328"/>
</svg>
